<?xml version="1.0" standalone="no"?>
<!DOCTYPE svg PUBLIC "-//W3C//DTD SVG 20010904//EN"
 "http://www.w3.org/TR/2001/REC-SVG-20010904/DTD/svg10.dtd">
<svg version="1.0" xmlns="http://www.w3.org/2000/svg"
 width="930.000000pt" height="893.000000pt" viewBox="0 0 930.000000 893.000000"
 preserveAspectRatio="xMidYMid meet">

<g transform="translate(0.000000,893.000000) scale(0.100000,-0.100000)"
fill="#000000" stroke="none">
<path d="M4205 8613 c-88 -12 -270 -71 -307 -100 -7 -5 -28 -15 -45 -23 -18
-7 -33 -16 -33 -21 0 -5 -6 -9 -13 -9 -8 0 -24 -8 -36 -17 -11 -10 -33 -27
-47 -38 -15 -11 -36 -30 -47 -42 -11 -13 -27 -23 -34 -23 -7 0 -13 -4 -13 -9
0 -5 -20 -30 -45 -57 -25 -26 -51 -59 -59 -73 -7 -14 -27 -51 -43 -82 -37 -68
-63 -140 -65 -179 0 -8 -5 -20 -10 -27 -6 -7 -5 -14 3 -18 8 -6 8 -9 0 -14 -6
-4 -14 -21 -16 -37 -12 -83 -15 -103 -21 -149 -3 -27 -7 -52 -10 -54 -2 -2 1
-10 7 -18 7 -8 8 -13 1 -13 -14 0 -21 -58 -8 -64 7 -3 5 -9 -4 -15 -13 -10
-13 -12 0 -21 13 -9 13 -11 0 -21 -12 -8 -12 -12 -2 -16 10 -4 10 -8 0 -21
-10 -12 -10 -16 0 -19 6 -3 12 -9 12 -14 0 -6 -4 -8 -9 -5 -5 3 -9 -10 -8 -29
1 -19 3 -35 6 -35 4 0 6 -17 7 -38 0 -20 3 -59 7 -87 3 -27 9 -70 12 -94 3
-24 9 -49 12 -54 4 -6 7 -27 9 -46 1 -20 5 -63 9 -96 4 -33 8 -69 9 -80 1 -17
7 -19 45 -16 56 4 52 -21 -5 -30 -34 -4 -29 -6 31 -10 74 -5 103 4 85 26 -8 9
-8 15 0 20 5 3 10 24 10 46 0 42 17 69 44 69 15 0 35 9 76 32 8 4 22 11 30 14
8 3 36 16 61 30 49 25 74 31 64 14 -4 -6 -10 -8 -15 -5 -4 3 -10 -2 -13 -10
-4 -9 -1 -12 9 -8 24 9 16 -16 -18 -53 -94 -103 -107 -118 -103 -122 3 -3 1
-10 -5 -17 -5 -6 -8 -24 -7 -40 2 -25 7 -31 31 -33 36 -4 86 16 86 35 0 9 6
13 14 10 8 -3 55 35 116 94 57 54 107 99 112 99 4 0 7 4 5 9 -1 4 22 34 51 65
28 31 52 59 52 62 0 5 14 24 43 56 10 11 16 22 14 25 -3 2 9 19 26 36 18 18
38 44 46 59 8 15 19 25 24 21 6 -3 7 -1 3 5 -3 6 5 23 19 38 14 15 25 33 25
40 0 7 3 14 8 16 8 3 72 93 72 101 0 3 16 28 35 57 19 29 35 58 35 66 0 8 4
14 9 14 5 0 11 8 15 18 3 9 19 40 35 69 16 28 34 67 41 87 6 20 17 36 23 36 7
0 6 4 -3 10 -8 5 -10 10 -4 10 10 0 21 25 30 69 1 8 9 18 16 22 10 7 10 9 -2
9 -10 0 -11 3 -4 8 21 14 42 276 23 287 -4 3 -6 12 -3 19 3 8 1 17 -5 21 -6 3
-11 13 -11 22 0 20 -68 123 -81 123 -5 0 -9 6 -9 14 0 8 -9 17 -19 21 -11 3
-22 12 -25 20 -3 8 -12 15 -19 15 -8 0 -25 8 -38 19 -49 38 -188 59 -294 44z
m200 -176 c6 -4 31 -21 56 -38 47 -29 79 -78 79 -117 0 -11 7 -27 15 -35 8 -8
11 -17 8 -20 -10 -10 -10 -51 0 -64 6 -9 5 -13 -3 -13 -7 0 -10 -7 -6 -16 3
-9 3 -21 -1 -27 -4 -7 -9 -21 -10 -32 -3 -17 -31 -118 -39 -135 -1 -3 -5 -15
-9 -27 -4 -13 -14 -23 -22 -23 -8 0 -11 5 -8 10 10 17 7 173 -5 226 -13 60
-58 154 -77 161 -7 3 -13 11 -13 19 0 8 -5 14 -10 14 -6 0 -23 9 -38 20 -41
30 -147 53 -206 45 -28 -3 -53 -10 -56 -14 -3 -4 -25 -11 -50 -14 -37 -5 -40
-4 -20 4 14 6 41 19 61 30 21 10 55 21 78 25 23 4 41 10 41 15 0 4 10 10 23
12 35 7 201 3 212 -6z m-435 -107 c0 -5 -6 -10 -12 -10 -35 -1 -218 -157 -218
-185 0 -7 -6 -15 -13 -18 -16 -6 -107 -185 -107 -210 0 -8 -5 -19 -10 -22 -6
-4 -8 -10 -5 -15 3 -5 1 -11 -5 -15 -5 -3 -10 -15 -10 -26 0 -11 -4 -18 -9
-14 -6 3 -6 18 -1 36 5 17 9 34 8 38 -3 12 32 116 54 161 25 51 218 250 242
250 9 0 16 4 16 8 0 10 38 30 58 31 6 1 12 -3 12 -9z m196 -125 c9 -8 29 -15
45 -15 29 0 40 -14 17 -23 -7 -3 2 -8 20 -12 24 -6 30 -11 22 -20 -8 -9 -6
-14 5 -18 8 -4 12 -13 9 -22 -4 -8 -1 -15 6 -15 7 0 10 -7 7 -15 -4 -8 -2 -17
4 -21 7 -4 6 -10 -1 -19 -8 -9 -6 -14 7 -20 17 -6 17 -7 0 -20 -17 -12 -17
-13 0 -19 15 -6 15 -8 3 -17 -12 -7 -13 -11 -2 -18 11 -6 10 -9 -3 -15 -11 -4
-14 -12 -10 -26 4 -13 2 -20 -6 -20 -10 0 -10 -3 -1 -12 8 -8 9 -15 1 -25 -7
-7 -8 -13 -4 -13 5 0 1 -8 -8 -17 -8 -10 -16 -22 -18 -28 -2 -12 -9 -35 -17
-55 -3 -8 -4 -19 -3 -23 0 -4 -6 -10 -14 -13 -8 -4 -15 -15 -15 -25 0 -10 -7
-19 -15 -19 -18 0 -20 -20 -2 -21 6 0 1 -5 -13 -10 -13 -5 -33 -9 -45 -8 -40
3 -47 -1 -42 -21 3 -11 1 -20 -3 -20 -5 0 -8 -14 -8 -31 1 -20 -5 -35 -15 -41
-10 -5 -17 -13 -17 -18 0 -20 -255 -280 -275 -280 -8 0 -15 -7 -15 -15 0 -8
-6 -15 -14 -15 -8 0 -28 -11 -44 -25 -17 -14 -35 -25 -42 -25 -6 0 -19 -9 -28
-19 -10 -11 -27 -22 -39 -26 -21 -6 -23 -3 -24 27 0 18 -5 42 -10 53 -7 14 -8
5 -5 -32 3 -30 1 -53 -4 -53 -6 0 -10 20 -10 45 0 25 -3 45 -7 45 -5 0 -9 17
-10 38 -1 20 -4 96 -8 167 -3 72 -2 159 3 195 8 57 10 45 11 -97 0 -90 5 -163
10 -163 5 0 7 58 5 130 -4 132 2 190 17 190 5 0 9 -11 9 -24 0 -14 5 -28 10
-31 6 -4 8 -10 5 -15 -7 -12 37 -80 52 -80 6 0 13 -4 15 -9 2 -5 16 -7 31 -4
40 8 56 44 45 102 -5 25 -9 63 -10 84 0 20 -5 37 -12 37 -8 0 -8 2 0 8 7 4 13
21 15 37 2 17 7 35 12 42 4 6 3 14 -3 18 -13 8 -32 -39 -24 -60 5 -11 0 -14
-20 -13 -25 2 -38 18 -14 18 6 0 4 6 -6 13 -18 13 -18 14 -1 21 13 5 15 9 6
20 -9 11 -7 15 10 19 18 5 20 9 10 20 -9 12 -8 16 5 21 12 5 14 9 5 20 -9 11
-7 15 11 19 12 4 19 9 15 13 -4 4 0 16 10 26 9 10 12 18 7 18 -5 0 1 7 13 15
12 9 20 22 17 29 -3 8 4 16 16 19 13 3 19 10 15 17 -4 7 1 14 13 17 12 3 18
11 16 18 -3 8 4 19 16 25 11 6 18 15 15 20 -3 4 9 11 26 15 20 5 29 12 25 21
-3 9 6 15 29 20 19 3 33 11 32 17 -1 6 18 17 43 23 25 7 47 13 50 14 3 1 8 2
13 1 4 0 7 4 7 9 0 16 60 12 76 -5z m-576 -419 c0 -3 -4 -8 -10 -11 -5 -3 -10
-1 -10 4 0 6 5 11 10 11 6 0 10 -2 10 -4z m-33 -118 c-3 -8 -6 -5 -6 6 -1 11
2 17 5 13 3 -3 4 -12 1 -19z m8 -38 c-3 -5 -12 -7 -20 -3 -21 7 -19 13 6 13
11 0 18 -4 14 -10z m-95 -600 c0 -5 -4 -10 -10 -10 -5 0 -10 5 -10 10 0 6 5
10 10 10 6 0 10 -4 10 -10z m150 -6 c0 -2 -9 -4 -20 -4 -11 0 -20 4 -20 9 0 5
9 7 20 4 11 -3 20 -7 20 -9z m-20 -22 c0 -5 -3 -12 -7 -16 -5 -4 -8 -12 -8
-18 0 -17 -82 -37 -113 -28 -32 9 -20 15 53 26 42 6 46 8 25 14 l-25 7 25 11
c31 13 50 15 50 4z m45 -2 c3 -5 -1 -10 -9 -10 -8 0 -18 5 -21 10 -3 6 1 10 9
10 8 0 18 -4 21 -10z m-75 -106 c0 -23 -4 -32 -15 -30 -21 3 -31 16 -12 16 10
0 17 5 17 10 0 6 -15 10 -34 10 -43 0 -57 17 -19 22 57 8 63 6 63 -28z m-70
-34 c0 -13 -11 -13 -30 0 -12 8 -11 10 8 10 12 0 22 -4 22 -10z"/>
<path d="M3735 7810 c-3 -5 -1 -10 4 -10 6 0 11 5 11 10 0 6 -2 10 -4 10 -3 0
-8 -4 -11 -10z"/>
<path d="M3542 7245 c0 -16 4 -41 8 -55 l8 -25 0 25 c0 14 -4 39 -8 55 l-8 30
0 -30z"/>
<path d="M4710 8551 c-13 -10 -7 -15 13 -12 4 0 7 -3 7 -8 0 -4 20 -14 45 -21
24 -7 42 -17 39 -22 -4 -6 2 -8 12 -6 24 4 52 -24 57 -56 1 -14 5 -28 8 -31 3
-3 4 -49 1 -103 -2 -53 -5 -113 -6 -132 0 -19 -5 -38 -10 -42 -6 -4 -5 -12 3
-21 9 -11 9 -16 0 -19 -6 -2 -12 -27 -13 -56 0 -28 -5 -52 -10 -52 -4 0 -6 -6
-3 -14 3 -8 2 -30 -3 -47 -7 -24 -6 -35 3 -41 9 -6 9 -8 0 -8 -7 0 -13 -12
-13 -26 0 -24 -2 -25 -17 -13 -15 13 -16 11 -8 -21 4 -19 8 -45 7 -57 0 -13 3
-23 7 -23 3 0 6 -35 7 -77 1 -99 8 -143 24 -153 9 -6 8 -10 -6 -19 -19 -10
-19 -10 0 -11 13 0 17 -5 13 -20 -3 -11 -1 -20 4 -20 5 0 14 -11 19 -25 5 -14
14 -25 20 -25 6 0 9 -4 5 -9 -3 -5 4 -16 15 -24 11 -7 17 -17 14 -20 -4 -3 5
-12 19 -18 15 -7 24 -16 21 -20 -3 -5 0 -9 7 -9 7 0 20 -7 29 -15 26 -24 105
-34 184 -24 39 5 73 14 74 19 2 6 10 10 17 10 14 0 43 15 90 45 30 19 36 24
88 69 16 14 32 26 36 28 3 2 24 26 46 53 22 28 44 53 48 56 9 6 32 47 78 137
30 58 54 76 54 41 0 -8 4 -19 8 -26 4 -6 1 -14 -5 -17 -9 -3 -7 -9 6 -20 17
-14 18 -16 3 -16 -9 0 -17 -4 -17 -10 0 -5 6 -10 14 -10 10 0 14 -10 12 -35
-2 -20 1 -38 6 -41 5 -3 7 -12 4 -19 -3 -9 4 -15 17 -17 15 -2 21 -9 19 -20
-2 -11 3 -18 14 -18 10 0 14 -6 11 -14 -3 -7 0 -19 6 -25 9 -9 9 -14 -1 -20
-7 -4 -10 -15 -6 -24 4 -10 1 -17 -6 -17 -7 0 -10 -7 -6 -16 4 -11 -1 -18 -14
-21 -12 -3 -19 -11 -17 -17 2 -6 -5 -16 -17 -23 -20 -11 -20 -12 -2 -19 16 -6
15 -9 -10 -20 l-29 -12 27 -1 c36 -1 59 -11 52 -23 -3 -5 3 -12 15 -15 12 -3
21 -12 21 -19 0 -8 6 -17 14 -20 8 -3 16 -14 19 -25 3 -10 14 -19 24 -19 18 0
18 13 17 303 -1 166 -5 345 -9 397 -3 52 -8 146 -10 208 -3 62 -7 132 -10 155
-8 63 -13 104 -20 145 -3 20 -7 46 -8 57 -1 11 -7 23 -14 28 -7 4 -10 14 -7
21 3 8 0 17 -5 21 -6 3 -9 11 -6 16 4 5 -1 12 -9 15 -9 3 -16 12 -16 19 0 15
-53 27 -86 19 -13 -3 -24 -12 -24 -19 0 -7 -7 -16 -16 -19 -13 -5 -14 -9 -4
-21 10 -12 9 -15 -4 -15 -19 0 -22 -20 -3 -21 6 0 1 -5 -12 -10 -18 -7 -21
-13 -13 -21 6 -6 8 -17 5 -24 -3 -8 -1 -14 4 -14 8 0 8 -60 1 -89 -2 -5 6 -17
17 -25 20 -15 20 -15 -5 -16 -24 -1 -24 -1 -6 -15 17 -13 18 -15 3 -15 -9 0
-17 -7 -17 -16 0 -9 -8 -23 -17 -30 -17 -13 -17 -13 2 -14 20 -1 20 -1 0 -16
-16 -12 -17 -17 -7 -23 11 -6 10 -10 -5 -15 -17 -7 -17 -8 1 -22 17 -12 18
-14 3 -14 -9 0 -17 -4 -17 -10 0 -5 5 -10 11 -10 6 0 8 -9 4 -20 -4 -13 -2
-20 7 -20 8 -1 6 -6 -6 -15 -19 -14 -18 -15 5 -24 16 -7 19 -10 7 -10 -27 -1
-31 -20 -6 -30 22 -9 22 -10 -5 -10 -34 -1 -26 -21 9 -21 13 0 24 -4 24 -10 0
-5 -8 -10 -17 -10 -15 0 -15 -1 2 -13 13 -10 15 -16 6 -21 -9 -6 -9 -11 0 -22
9 -11 9 -14 0 -14 -8 0 -10 -8 -6 -20 4 -12 2 -20 -5 -20 -6 0 -10 -6 -7 -12
2 -7 -2 -21 -11 -30 -12 -15 -13 -18 -1 -18 8 -1 3 -7 -10 -14 -22 -12 -23
-14 -6 -23 16 -9 14 -11 -10 -17 -21 -5 -24 -10 -16 -20 9 -10 7 -15 -9 -19
-11 -3 -20 -12 -20 -21 0 -9 -7 -16 -16 -16 -10 0 -14 -6 -11 -14 4 -9 -5 -19
-24 -27 -18 -7 -26 -15 -19 -19 6 -4 -7 -12 -29 -18 -21 -7 -42 -19 -45 -27
-5 -14 -56 -22 -56 -10 0 9 52 55 61 55 5 0 9 6 9 14 0 8 7 16 15 20 8 3 15 9
15 15 0 15 -36 19 -55 5 -17 -13 -14 -19 8 -15 4 0 7 -4 7 -10 0 -6 -9 -9 -20
-6 -11 3 -18 1 -14 -4 3 -5 -7 -9 -23 -10 l-28 -1 25 -8 25 -7 -26 -11 c-14
-6 -32 -16 -40 -24 -19 -18 -119 -58 -145 -58 -11 0 -40 10 -65 22 -24 12 -48
21 -52 20 -5 -1 -6 2 -2 8 3 5 -1 13 -9 16 -9 3 -16 15 -16 25 0 11 -7 19 -17
20 -11 0 -13 3 -5 6 6 2 12 11 12 19 0 8 -6 14 -12 14 -9 0 -8 4 2 10 13 9 13
12 -3 24 -14 11 -15 15 -5 19 10 4 10 8 -2 16 -13 9 -13 12 -1 20 11 7 10 10
-4 18 -10 6 -13 13 -7 17 6 3 7 19 3 38 -6 29 -7 153 -1 153 1 0 4 20 5 45 2
25 6 83 11 130 10 108 10 280 0 345 -9 59 -40 135 -56 135 -6 0 -9 4 -6 8 3 5
-9 20 -27 33 -25 19 -47 24 -102 27 -38 1 -77 -2 -85 -7z m93 -28 c-7 -2 -19
-2 -25 0 -7 3 -2 5 12 5 14 0 19 -2 13 -5z"/>
<path d="M3151 8077 c-41 -23 -102 -57 -135 -76 -34 -19 -63 -37 -66 -41 -3
-4 -16 -13 -30 -20 -14 -7 -31 -21 -38 -32 -7 -10 -17 -18 -23 -18 -12 0 -139
-124 -139 -136 0 -5 -14 -22 -30 -38 -17 -16 -30 -33 -30 -38 0 -19 -45 -68
-63 -68 -14 0 -18 -5 -14 -19 5 -21 -28 -56 -107 -115 -33 -25 -49 -29 -103
-30 -37 -1 -67 4 -71 10 -4 6 -29 22 -57 35 -43 21 -63 24 -147 22 -71 -2
-108 -7 -140 -22 -23 -11 -54 -22 -68 -26 -31 -9 -122 -65 -133 -82 -4 -7 -14
-13 -21 -13 -14 0 -126 -107 -187 -177 -31 -37 -97 -132 -178 -258 -14 -22
-28 -42 -31 -45 -12 -12 -30 -51 -30 -65 0 -8 -4 -15 -10 -15 -5 0 -10 -9 -10
-20 0 -11 -5 -20 -10 -20 -6 0 -14 -8 -17 -17 -4 -10 -17 -32 -30 -49 -13 -17
-23 -38 -23 -47 0 -9 -6 -20 -12 -24 -17 -10 -38 -49 -38 -68 0 -8 -4 -15 -9
-15 -5 0 -19 -26 -31 -57 -13 -32 -29 -65 -37 -74 -7 -8 -13 -21 -13 -27 0 -7
-11 -34 -24 -60 -76 -148 -150 -327 -141 -342 2 -4 -2 -13 -10 -20 -8 -7 -12
-16 -9 -22 3 -5 0 -15 -6 -23 -14 -16 -4 -39 12 -29 7 4 8 2 4 -5 -4 -6 -12
-9 -17 -6 -5 4 -9 -1 -9 -9 0 -24 20 -30 35 -10 8 11 15 31 15 47 0 27 17 66
33 78 5 3 9 13 11 21 1 8 17 33 35 56 18 23 29 42 25 42 -5 0 2 7 14 16 12 8
22 21 22 28 0 6 16 27 35 46 19 19 35 38 35 42 0 4 7 16 15 26 68 76 141 185
161 237 6 17 16 29 21 28 5 -1 19 20 31 48 12 27 26 49 31 49 9 0 26 48 23 63
-1 4 5 10 13 13 8 4 15 17 15 29 0 13 5 27 10 30 6 3 10 15 10 26 0 10 6 19
13 19 8 0 8 3 -2 9 -12 8 -12 12 2 25 9 9 21 32 28 51 7 19 17 35 21 35 10 0
32 50 29 68 -1 6 5 12 14 12 8 0 15 4 15 10 0 14 60 80 74 80 18 0 66 24 66
33 0 4 11 7 25 7 14 0 25 3 25 8 0 8 56 29 115 42 52 12 192 13 199 1 3 -4 18
-11 33 -14 16 -3 40 -17 55 -31 15 -15 30 -26 32 -26 34 0 120 -150 95 -165
-5 -3 2 -23 15 -44 29 -45 35 -93 41 -301 7 -238 25 -390 47 -390 6 0 8 -7 5
-15 -4 -8 -2 -17 3 -20 6 -4 10 -15 10 -26 0 -11 6 -22 14 -25 8 -3 13 -11 10
-19 -3 -7 2 -15 11 -19 9 -3 13 -11 10 -16 -8 -12 118 -136 146 -145 11 -4 19
-12 19 -18 1 -7 9 -22 19 -34 19 -23 33 -30 29 -15 -2 4 0 8 5 10 11 4 74 -24
81 -37 4 -6 29 -17 56 -25 39 -12 54 -12 74 -3 30 14 34 33 9 40 -17 4 -17 5
0 6 23 1 22 22 -3 28 -11 3 -20 12 -20 19 0 8 -11 19 -25 24 -14 5 -25 16 -25
25 0 8 -9 15 -20 15 -13 0 -20 7 -20 20 0 11 -8 24 -17 28 -10 4 -18 14 -18
22 0 9 -10 15 -23 16 -30 2 -42 14 -13 14 30 0 22 23 -10 30 -22 5 -22 7 -5
13 17 7 17 9 4 25 -9 9 -13 23 -11 30 3 6 -2 12 -11 12 -10 0 -13 6 -9 16 3 9
1 19 -5 23 -6 4 -13 24 -15 46 -3 26 -10 41 -23 46 -10 4 -14 8 -7 8 13 1 14
71 0 71 -4 0 -6 9 -2 19 3 11 2 22 -2 24 -4 3 -8 33 -7 66 1 55 -1 61 -20 62
-17 1 -17 2 -3 6 25 7 21 33 -5 34 -17 1 -18 3 -6 6 14 3 17 13 14 46 -6 55
-34 178 -45 191 -5 6 -12 25 -15 43 -4 17 -14 34 -22 37 -9 3 -12 11 -8 17 3
6 3 14 -2 18 -11 7 -27 34 -51 81 -17 33 -110 132 -149 158 -77 50 -188 84
-279 84 -54 1 -225 -36 -234 -50 -11 -17 -51 -34 -51 -21 0 6 9 13 20 16 11 3
20 11 20 17 0 7 11 19 25 26 14 7 25 20 25 27 0 8 5 11 11 7 6 -3 14 -3 18 2
14 19 121 74 184 94 73 23 160 5 231 -48 34 -25 186 -44 186 -23 0 5 17 11 38
15 20 3 48 12 62 20 14 8 46 25 73 38 26 12 47 26 47 30 0 5 4 8 9 8 15 0 114
70 100 70 -8 1 0 7 17 14 17 8 34 21 37 30 4 9 13 16 22 16 8 0 15 7 15 15 0
9 7 18 15 21 8 4 15 13 15 20 0 8 7 17 15 20 8 4 15 10 15 15 0 6 9 20 21 32
28 30 94 130 91 140 -1 4 5 10 13 13 8 4 15 11 15 18 0 6 18 34 40 61 22 28
40 54 40 58 0 4 9 18 21 30 12 13 19 31 16 45 -2 12 -1 22 4 22 5 0 13 9 19
20 6 11 9 20 8 20 -2 0 -36 -19 -77 -43z"/>
<path d="M6881 7733 c-18 -7 -91 -81 -91 -92 0 -5 -7 -11 -15 -15 -8 -3 -15
-12 -15 -20 0 -7 -7 -16 -15 -20 -8 -3 -15 -12 -15 -20 0 -7 -7 -17 -16 -20
-9 -4 -14 -9 -11 -12 3 -3 -2 -14 -11 -24 -32 -35 -41 -48 -36 -53 2 -2 -2
-10 -11 -17 -8 -7 -15 -19 -15 -27 0 -7 -6 -16 -14 -19 -8 -3 -12 -12 -9 -20
3 -8 0 -14 -6 -14 -6 0 -11 -7 -11 -15 0 -9 -7 -18 -15 -21 -8 -4 -12 -10 -9
-16 3 -5 -2 -18 -13 -30 -10 -11 -17 -23 -17 -27 3 -11 -30 -81 -38 -81 -5 0
-8 -9 -8 -20 0 -11 -4 -20 -10 -20 -5 0 -10 -9 -10 -20 0 -11 -5 -20 -11 -20
-6 0 -8 -8 -4 -19 3 -12 0 -21 -10 -25 -9 -3 -13 -10 -10 -16 3 -6 -1 -13 -9
-16 -9 -3 -16 -14 -16 -23 0 -9 -5 -22 -12 -29 -7 -7 -9 -12 -5 -12 4 0 -2
-16 -14 -36 -11 -20 -18 -39 -15 -42 3 -3 -2 -11 -12 -18 -9 -7 -17 -16 -17
-21 -1 -14 -38 -87 -53 -105 -8 -10 -12 -18 -9 -18 4 0 -2 -15 -13 -32 -11
-18 -23 -41 -26 -50 -4 -10 -11 -18 -16 -18 -6 0 -8 -6 -5 -14 3 -8 -1 -17 -9
-20 -8 -3 -14 -15 -14 -26 0 -11 -5 -20 -10 -20 -6 0 -18 -18 -27 -40 -10 -22
-21 -40 -25 -40 -5 0 -8 -9 -8 -20 0 -11 -5 -20 -10 -20 -6 0 -14 -8 -17 -17
-4 -10 -13 -24 -20 -31 -7 -8 -11 -18 -7 -23 3 -5 -2 -12 -10 -15 -9 -3 -16
-15 -16 -25 0 -11 -7 -19 -16 -19 -11 0 -15 -6 -11 -19 3 -14 -2 -21 -17 -25
-20 -6 -19 -8 9 -21 17 -9 23 -13 15 -11 -9 2 -29 -2 -45 -9 l-30 -14 25 -7
25 -8 -29 -6 c-16 -3 -31 -11 -34 -18 -2 -7 2 -10 11 -6 8 3 18 1 22 -5 3 -6
-1 -14 -10 -17 -11 -5 -13 -10 -5 -19 8 -10 8 -15 0 -20 -6 -4 -8 -15 -5 -25
3 -11 0 -20 -10 -23 -8 -4 -12 -13 -9 -20 3 -8 -2 -17 -12 -21 -13 -5 -14 -9
-5 -20 10 -11 8 -16 -9 -21 -13 -4 -19 -12 -16 -21 3 -7 -4 -18 -15 -24 -11
-6 -17 -15 -14 -20 3 -5 -4 -14 -15 -20 -11 -6 -20 -17 -20 -25 0 -7 -9 -17
-20 -20 -11 -3 -25 -15 -30 -26 -6 -10 -16 -19 -23 -19 -7 0 -19 -5 -27 -10
-12 -8 -12 -12 -2 -18 8 -6 -6 -13 -43 -22 -31 -7 -51 -16 -45 -20 6 -4 -9
-15 -34 -24 -26 -10 -46 -22 -46 -26 0 -5 -19 -15 -42 -21 -24 -7 -50 -21 -58
-31 -10 -11 -35 -21 -67 -25 -32 -3 -54 -11 -58 -21 -4 -11 0 -13 15 -9 11 3
18 1 14 -4 -3 -5 -16 -9 -30 -9 -14 0 -35 -5 -46 -11 -17 -9 -18 -13 -7 -20
11 -7 11 -9 1 -9 -7 0 -29 -7 -50 -15 -29 -13 -34 -18 -22 -25 8 -5 13 -10 10
-11 -3 0 -21 -2 -40 -5 -19 -2 -42 -13 -51 -23 -9 -11 -29 -23 -45 -27 -16 -4
-43 -17 -59 -29 -17 -12 -45 -26 -64 -30 -20 -4 -35 -14 -38 -26 -3 -10 -9
-16 -14 -13 -11 7 -51 -21 -42 -29 19 -20 141 6 212 44 20 10 41 19 48 19 10
0 65 27 177 86 11 7 32 15 46 18 21 6 22 5 8 -4 -10 -6 -32 -25 -50 -42 l-33
-31 35 24 c33 22 68 50 94 75 10 9 68 54 191 148 152 116 335 300 458 460 12
15 36 43 52 60 76 82 199 235 193 241 -6 6 -78 -65 -78 -77 0 -4 -4 -8 -10 -8
-12 0 -2 28 25 65 12 17 25 38 28 48 4 9 11 17 17 17 5 0 10 9 10 20 0 11 4
20 9 20 5 0 11 8 15 18 3 9 25 51 47 92 23 41 76 144 118 228 43 84 81 149 86
145 4 -5 5 -3 1 4 -4 7 3 30 14 53 11 22 17 40 13 40 -5 0 -3 4 2 8 15 10 85
160 82 173 -1 4 7 16 17 28 11 12 16 21 12 21 -4 0 4 15 18 33 13 17 28 45 32
60 3 16 13 31 20 34 8 3 14 9 14 14 0 14 42 69 53 69 5 0 7 -6 4 -14 -3 -7 -1
-18 5 -24 7 -7 7 -14 0 -24 -6 -7 -25 -29 -42 -49 -16 -20 -30 -43 -30 -50 0
-7 13 2 28 21 22 25 33 32 47 26 17 -6 17 -9 5 -17 -13 -8 -12 -11 4 -20 15
-9 16 -13 5 -20 -12 -8 -11 -11 3 -19 9 -6 15 -17 12 -25 -4 -8 -1 -15 6 -15
7 0 10 -7 6 -15 -3 -9 1 -18 9 -21 8 -4 15 -10 15 -16 0 -5 -4 -6 -10 -3 -6 3
-7 -1 -4 -9 3 -9 12 -16 20 -16 8 0 11 -6 8 -15 -4 -8 -1 -15 5 -15 6 0 11 -9
11 -19 0 -10 7 -21 15 -25 8 -3 15 -12 15 -21 0 -8 9 -15 20 -15 13 0 18 -5
14 -15 -4 -8 1 -17 10 -21 9 -3 16 -12 16 -20 0 -8 7 -14 16 -14 9 0 18 -9 21
-20 3 -11 12 -20 19 -20 8 0 14 -6 14 -13 0 -8 12 -19 26 -25 14 -7 23 -16 20
-21 -3 -5 5 -12 19 -15 14 -4 24 -11 22 -17 -1 -6 13 -17 31 -23 18 -6 30 -15
26 -19 -4 -4 7 -12 24 -18 18 -6 32 -15 32 -20 0 -4 16 -11 35 -15 19 -3 35
-10 35 -16 0 -5 14 -14 30 -19 17 -6 30 -14 30 -18 0 -4 18 -13 40 -20 29 -9
40 -17 40 -31 0 -11 -4 -20 -9 -20 -5 0 -34 -20 -64 -45 -31 -25 -60 -45 -65
-45 -5 0 -17 -9 -26 -19 -10 -11 -31 -23 -46 -26 -16 -3 -31 -12 -33 -20 -3
-7 -19 -16 -36 -20 -17 -4 -33 -11 -37 -16 -3 -5 -23 -17 -45 -26 -21 -8 -39
-19 -39 -24 0 -4 -16 -11 -35 -15 -19 -3 -35 -10 -35 -15 0 -6 -19 -19 -42
-30 -45 -20 -82 -41 -108 -58 -37 -25 -129 -69 -173 -81 -36 -11 -43 -16 -30
-22 14 -5 11 -7 -10 -7 -19 -1 -30 -8 -36 -25 -5 -13 -17 -26 -26 -30 -9 -3
-13 -10 -10 -16 3 -5 -2 -10 -11 -10 -20 0 -162 -68 -182 -87 -6 -6 -21 -15
-32 -18 -11 -3 -20 -12 -20 -20 0 -7 -12 -16 -26 -19 -16 -4 -24 -12 -21 -20
3 -8 -5 -18 -19 -25 -14 -6 -22 -15 -19 -21 3 -5 -3 -14 -14 -20 -11 -6 -18
-16 -15 -24 3 -7 -2 -16 -11 -20 -11 -4 -15 -12 -11 -22 4 -11 -1 -18 -15 -21
-11 -3 -18 -11 -15 -18 6 -17 -13 -35 -37 -35 -10 0 -16 -4 -12 -10 3 -5 12
-7 20 -3 8 3 15 1 15 -5 0 -6 -14 -13 -30 -17 -24 -5 -29 -11 -25 -25 3 -11 0
-20 -10 -24 -9 -3 -13 -11 -10 -16 4 -6 1 -17 -5 -25 -10 -12 -9 -16 5 -22 16
-6 16 -7 -4 -15 -16 -5 -21 -13 -17 -24 4 -9 1 -23 -5 -30 -6 -7 -8 -18 -5
-23 4 -5 2 -13 -4 -16 -8 -5 -8 -11 0 -20 8 -9 6 -14 -5 -19 -11 -4 -14 -13
-10 -25 3 -11 1 -22 -5 -26 -8 -5 -8 -10 0 -20 8 -9 6 -14 -5 -19 -9 -3 -15
-11 -14 -18 2 -14 -7 -42 -22 -71 -6 -11 -8 -21 -5 -25 3 -3 -3 -11 -14 -19
-10 -7 -17 -20 -14 -27 3 -7 -2 -16 -10 -19 -9 -4 -16 -16 -16 -27 0 -11 -5
-20 -10 -20 -6 0 -15 -11 -20 -25 -5 -14 -15 -25 -21 -25 -8 0 -8 -4 0 -14 10
-11 8 -17 -6 -25 -17 -11 -17 -12 0 -25 15 -12 16 -14 2 -20 -8 -3 -15 -10
-15 -16 0 -14 67 -3 95 15 36 24 103 93 97 100 -4 4 1 11 11 17 10 5 22 19 28
31 5 12 18 37 29 55 11 18 18 38 15 43 -4 5 1 12 10 15 9 4 14 13 11 20 -3 7
-1 16 3 18 5 3 12 20 16 38 4 18 9 38 11 43 1 6 5 19 8 30 3 11 9 35 15 54 6
18 9 36 9 40 -3 10 23 53 59 97 18 23 33 45 33 50 0 5 -4 5 -8 -1 -4 -5 -17
-18 -29 -29 l-22 -18 8 29 c5 17 15 41 22 54 8 13 14 29 14 34 1 16 96 155
106 155 5 0 9 6 9 13 0 8 11 19 25 25 14 6 25 15 25 20 0 12 94 72 113 72 9 0
18 4 21 9 3 4 34 18 68 30 35 12 84 31 110 42 59 24 67 24 38 -1 -13 -11 -27
-20 -32 -20 -4 0 -8 -5 -8 -10 0 -13 62 19 120 62 25 18 55 40 67 48 12 8 61
43 110 78 48 34 138 94 198 134 80 52 140 102 220 183 61 62 125 118 143 126
26 11 32 19 32 44 0 37 -20 83 -38 90 -8 3 -21 1 -29 -4 -14 -7 -13 -10 6 -16
13 -4 20 -12 18 -20 -3 -7 -1 -17 5 -23 22 -22 -19 -23 -82 -3 -35 12 -85 21
-112 21 -35 0 -48 4 -48 14 0 8 -14 17 -30 21 -24 5 -29 10 -20 20 8 10 7 14
-7 17 -28 5 -21 57 9 58 4 0 14 -8 24 -17 20 -21 139 -32 157 -14 8 8 7 11 -4
11 -15 1 -166 74 -214 106 -67 43 -135 99 -141 116 -3 10 -11 18 -18 18 -11 0
-78 65 -75 72 1 2 -15 21 -35 42 -20 22 -36 46 -36 53 0 7 -4 13 -9 13 -5 0
-12 10 -16 23 -4 12 -8 24 -10 27 -12 29 -15 38 -17 60 -2 19 1 24 15 22 9 -2
17 2 17 8 0 5 -11 10 -25 10 -14 0 -25 1 -25 3 -1 1 -3 43 -7 93 -5 86 -4 93
18 118 32 36 39 66 21 94 -14 22 -56 29 -91 15z"/>
<path d="M5488 7633 c7 -3 16 -2 19 1 4 3 -2 6 -13 5 -11 0 -14 -3 -6 -6z"/>
<path d="M5460 7600 c0 -5 7 -10 16 -10 8 0 12 5 9 10 -3 6 -10 10 -16 10 -5
0 -9 -4 -9 -10z"/>
<path d="M2551 7591 c-8 -5 -9 -11 -3 -15 5 -3 12 1 16 9 6 17 6 18 -13 6z"/>
<path d="M5445 7569 c4 -6 0 -9 -10 -7 -10 2 -20 -3 -22 -10 -4 -9 3 -11 22
-8 15 3 30 7 32 10 7 7 -6 26 -18 26 -6 0 -7 -5 -4 -11z"/>
<path d="M2453 7558 c-12 -5 -6 -6 15 -4 19 3 36 7 39 10 8 7 -32 3 -54 -6z"/>
<path d="M2320 7520 c0 -5 7 -7 15 -4 8 4 15 8 15 10 0 2 -7 4 -15 4 -8 0 -15
-4 -15 -10z"/>
<path d="M2264 7505 c-14 -11 -15 -14 -4 -14 8 0 24 6 34 14 15 11 16 15 5 15
-8 0 -24 -7 -35 -15z"/>
<path d="M5734 7408 c2 -29 -1 -58 -6 -65 -5 -6 -5 -14 1 -17 12 -8 42 4 36
14 -3 4 2 13 10 20 7 6 11 18 8 26 -3 8 0 14 7 14 6 0 -2 14 -18 30 -17 17
-33 30 -35 30 -3 0 -4 -24 -3 -52z"/>
<path d="M5255 7440 c-13 -6 -15 -9 -5 -9 8 0 22 4 30 9 18 12 2 12 -25 0z"/>
<path d="M5125 7400 c-7 -12 22 -12 50 0 17 7 15 9 -12 9 -17 1 -35 -3 -38 -9z"/>
<path d="M6743 7264 c-6 -13 -7 -26 -2 -29 4 -3 11 6 15 20 9 34 2 40 -13 9z"/>
<path d="M6711 7203 c-7 -8 -10 -17 -7 -20 9 -9 29 13 25 25 -2 6 -10 3 -18
-5z"/>
<path d="M5730 7184 c0 -4 8 -13 18 -20 16 -13 16 -13 0 -14 -21 0 -24 -16 -5
-23 9 -4 8 -8 -3 -17 -12 -9 -12 -13 -2 -17 9 -4 10 -8 2 -18 -7 -9 -8 -15 -1
-19 6 -4 7 -14 4 -22 -3 -9 0 -20 8 -25 8 -5 9 -9 3 -9 -6 0 -11 -23 -11 -55
0 -43 3 -55 15 -55 13 0 12 -3 -3 -13 -21 -16 -8 -28 23 -21 11 4 18 12 16 19
-3 7 5 15 20 19 26 6 36 26 14 26 -6 0 -3 6 8 14 10 8 16 18 12 22 -4 4 -3 13
3 20 7 8 7 14 -1 19 -8 5 -8 11 1 21 7 9 8 14 1 14 -13 0 -44 59 -37 70 3 4
-5 10 -16 13 -13 4 -18 10 -14 17 4 7 2 16 -6 20 -10 7 -10 11 0 24 12 14 10
16 -18 16 -17 0 -31 -3 -31 -6z"/>
<path d="M6670 7109 c-11 -24 -20 -50 -20 -57 0 -7 -6 -25 -14 -40 -18 -37
-29 -85 -17 -78 5 4 12 19 16 35 3 15 19 61 36 101 32 79 32 110 -1 39z"/>
<path d="M7150 7106 c0 -9 5 -16 10 -16 6 0 10 4 10 9 0 6 -4 13 -10 16 -5 3
-10 -1 -10 -9z"/>
<path d="M2222 7070 c7 -10 14 -18 15 -16 6 6 -9 36 -18 36 -5 0 -4 -9 3 -20z"/>
<path d="M5900 7070 c0 -5 5 -10 10 -10 6 0 10 5 10 10 0 6 -4 10 -10 10 -5 0
-10 -4 -10 -10z"/>
<path d="M2250 7026 c0 -17 34 -70 37 -59 3 7 -5 25 -16 39 -12 15 -21 24 -21
20z"/>
<path d="M5915 6990 c-3 -5 -1 -10 4 -10 6 0 11 5 11 10 0 6 -2 10 -4 10 -3 0
-8 -4 -11 -10z"/>
<path d="M5907 6954 c-3 -3 -3 -12 0 -20 3 -8 -1 -14 -11 -14 -8 0 -20 -9 -26
-19 -5 -11 -19 -22 -30 -26 -11 -3 -19 -11 -17 -17 1 -6 -15 -16 -35 -21 -21
-5 -38 -13 -38 -19 0 -5 4 -7 9 -3 5 3 12 1 16 -5 3 -5 -3 -10 -14 -10 -23 0
-40 -22 -22 -28 8 -3 6 -8 -6 -17 -17 -13 -17 -14 0 -20 17 -7 17 -8 0 -21
-15 -11 -15 -15 -5 -22 11 -7 10 -11 -3 -16 -14 -5 -15 -9 -5 -21 10 -12 10
-15 0 -15 -7 0 -10 -8 -7 -20 3 -11 1 -23 -5 -26 -5 -3 -7 -12 -4 -20 3 -8 1
-14 -4 -14 -5 0 -12 -10 -16 -22 -4 -13 -14 -28 -23 -35 -14 -11 -13 -12 8
-13 20 0 22 -2 11 -15 -7 -9 -11 -18 -8 -20 9 -10 38 7 38 21 0 8 8 14 18 14
10 0 28 11 40 25 12 14 27 25 33 25 6 0 9 6 7 12 -3 7 5 20 16 30 16 13 17 17
6 18 -12 0 -11 3 3 11 12 7 16 17 12 30 -5 15 -1 19 19 19 14 0 26 -4 26 -10
0 -5 -4 -10 -9 -10 -6 0 -10 -9 -10 -20 -1 -11 -1 -29 -2 -40 0 -11 -5 -22
-10 -25 -5 -4 -7 -10 -4 -15 3 -4 -2 -13 -10 -20 -8 -7 -15 -16 -15 -20 0 -18
-56 -70 -74 -70 -16 0 -17 -3 -8 -12 9 -9 5 -15 -21 -26 -17 -8 -26 -16 -19
-19 17 -7 15 -23 -3 -23 -8 0 -15 -9 -15 -20 0 -11 -5 -20 -11 -20 -6 0 -9 -9
-6 -20 3 -11 1 -20 -4 -20 -5 0 -14 -11 -19 -25 -5 -14 -15 -25 -21 -25 -6 0
-9 -6 -6 -14 3 -8 -5 -18 -19 -25 -14 -6 -22 -16 -19 -21 4 -6 -7 -16 -24 -23
-17 -7 -29 -16 -25 -19 13 -13 -39 -29 -84 -26 l-47 3 29 13 c28 12 28 13 10
27 -10 9 -14 14 -9 13 6 -1 25 1 44 5 23 5 32 11 28 21 -4 9 2 17 14 21 29 9
23 27 -8 23 -19 -2 -28 -8 -27 -20 1 -10 -1 -17 -5 -16 -17 3 -61 -23 -61 -37
0 -8 -8 -15 -17 -15 -10 0 -25 -5 -33 -10 -13 -9 -13 -11 0 -20 12 -8 10 -10
-10 -10 -27 -1 -94 -28 -72 -29 20 -1 4 -20 -16 -19 -9 0 -57 -5 -107 -11 -49
-6 -151 -11 -226 -11 -113 0 -138 3 -143 15 -4 11 -22 15 -63 16 -38 1 -50 3
-34 8 l24 6 -27 13 c-15 6 -37 12 -50 12 -17 0 -23 5 -22 18 1 12 -8 18 -27
20 -19 2 -27 8 -25 20 2 13 -8 18 -47 23 -27 3 -43 7 -35 9 8 1 21 2 28 1 6
-1 12 5 12 14 0 11 -11 15 -37 16 -30 0 -34 2 -18 8 11 5 23 7 26 5 4 -2 12 3
19 11 10 13 9 15 -9 15 -27 0 -28 16 -1 23 11 3 20 10 20 17 0 7 -9 9 -22 6
-13 -3 -4 3 20 14 45 20 57 41 20 33 -19 -4 -20 -3 -8 6 8 6 25 11 38 11 13 0
44 9 70 19 72 30 143 41 263 41 106 0 111 1 134 26 27 29 32 44 14 44 -8 0 -8
5 1 15 10 12 9 16 -4 21 -9 3 -14 10 -11 14 8 13 -21 31 -51 31 -31 0 -259
-17 -333 -26 -24 -3 -51 -11 -60 -19 -9 -8 -35 -19 -58 -25 -24 -7 -43 -16
-43 -21 0 -5 -16 -14 -35 -21 -19 -7 -35 -19 -35 -27 0 -8 -9 -16 -20 -19 -10
-3 -22 -14 -25 -24 -4 -10 -13 -19 -21 -19 -8 0 -14 -9 -14 -20 0 -10 -8 -24
-17 -29 -15 -9 -15 -12 -4 -20 9 -6 10 -11 2 -15 -6 -4 -11 -4 -12 1 -1 4 -5
-8 -10 -27 -6 -28 -5 -38 8 -47 16 -12 15 -13 0 -13 -13 0 -17 -7 -15 -27 2
-16 7 -31 13 -35 5 -4 10 -15 10 -25 0 -10 11 -20 25 -24 14 -4 19 -7 13 -8
-21 -2 -15 -13 25 -56 48 -53 104 -95 126 -95 9 0 15 -4 11 -10 -7 -12 46 -40
71 -36 10 2 13 1 6 -1 -16 -6 -5 -23 15 -23 9 0 34 -9 57 -19 54 -25 170 -51
259 -58 133 -10 448 27 466 55 3 5 21 13 40 17 19 4 52 20 74 36 22 16 44 29
48 29 5 0 28 18 51 40 24 22 47 40 52 40 4 0 6 7 2 15 -3 8 -1 15 4 15 11 0
70 62 70 73 0 5 10 23 23 40 41 59 46 68 79 147 11 25 15 39 21 63 1 6 6 18
11 25 4 7 5 16 2 19 -3 3 -2 11 3 17 12 16 34 114 37 166 1 25 3 45 4 45 2 0
4 33 6 73 2 50 0 72 -8 72 -7 0 -3 6 8 14 18 14 18 15 1 22 -14 5 -15 9 -6 15
10 6 10 11 1 22 -10 12 -9 16 3 21 9 3 13 10 10 16 -4 6 -11 8 -16 5 -5 -4 -9
-1 -9 4 0 6 4 11 8 11 5 0 9 14 9 30 0 29 -7 37 -20 24z m-12 -184 c-3 -5 -11
-10 -16 -10 -6 0 -7 5 -4 10 3 6 11 10 16 10 6 0 7 -4 4 -10z m-5 -40 c0 -5
-7 -10 -15 -10 -8 0 -15 5 -15 10 0 6 7 10 15 10 8 0 15 -4 15 -10z m0 -39 c0
-11 -26 -22 -34 -14 -12 12 -5 23 14 23 11 0 20 -4 20 -9z m-1257 -298 c-7 -2
-19 -2 -25 0 -7 3 -2 5 12 5 14 0 19 -2 13 -5z m-76 -259 c-3 -3 -12 -4 -19
-1 -8 3 -5 6 6 6 11 1 17 -2 13 -5z m26 -41 c-7 -2 -19 -2 -25 0 -7 3 -2 5 12
5 14 0 19 -2 13 -5z m60 -40 c-7 -2 -21 -2 -30 0 -10 3 -4 5 12 5 17 0 24 -2
18 -5z m750 0 c-7 -2 -21 -2 -30 0 -10 3 -4 5 12 5 17 0 24 -2 18 -5z m-613
-33 c0 -6 -24 -10 -52 -9 -42 1 -48 3 -28 9 36 12 80 12 80 0z m355 -20 c-3
-5 -12 -7 -20 -3 -21 7 -19 13 6 13 11 0 18 -4 14 -10z m73 3 c-10 -2 -28 -2
-40 0 -13 2 -5 4 17 4 22 1 32 -1 23 -4z m80 0 c-10 -2 -28 -2 -40 0 -13 2 -5
4 17 4 22 1 32 -1 23 -4z m-292 -16 c4 -4 -9 -7 -29 -7 -20 0 -38 4 -41 9 -7
10 59 9 70 -2z m72 6 c-10 -2 -28 -2 -40 0 -13 2 -5 4 17 4 22 1 32 -1 23 -4z
m-238 -7 c0 -3 -4 -8 -10 -11 -5 -3 -10 -1 -10 4 0 6 5 11 10 11 6 0 10 -2 10
-4z m335 -26 c4 -6 -7 -10 -27 -9 -31 1 -32 1 -8 9 14 4 26 8 27 9 1 1 5 -3 8
-9z"/>
<path d="M6580 6859 c0 -5 5 -7 10 -4 6 3 10 8 10 11 0 2 -4 4 -10 4 -5 0 -10
-5 -10 -11z"/>
<path d="M6567 6833 c-4 -3 -7 -13 -7 -22 1 -13 3 -13 11 2 11 19 8 33 -4 20z"/>
<path d="M7534 6809 c-8 -14 -5 -15 45 -22 49 -6 44 8 -7 22 -20 6 -34 6 -38
0z"/>
<path d="M6542 6765 c-7 -15 -11 -30 -8 -32 7 -7 28 36 24 49 -2 6 -9 -2 -16
-17z"/>
<path d="M3472 6772 l-42 -3 1 -47 c1 -26 6 -53 12 -59 6 -9 6 -13 -2 -13 -8
0 -9 -5 -2 -19 6 -10 8 -21 5 -23 -2 -3 -5 -32 -5 -64 -1 -99 -3 -94 31 -82
17 5 40 8 51 5 12 -3 32 -1 46 4 15 5 31 6 41 0 23 -13 -49 -31 -108 -27 -62
5 -68 1 -66 -45 1 -22 -1 -42 -6 -45 -14 -9 1 -24 17 -17 8 3 23 2 32 -1 15
-6 15 -8 3 -16 -8 -6 -25 -10 -37 -10 -13 0 -23 -4 -23 -9 0 -4 35 -6 77 -4
60 2 74 0 65 -9 -6 -6 -39 -13 -72 -14 -70 -3 -86 -10 -69 -30 9 -11 8 -14 -5
-14 -14 0 -15 -4 -6 -20 6 -11 7 -20 1 -20 -8 0 -24 -69 -26 -110 0 -8 -4 -20
-8 -27 -4 -6 -5 -18 -1 -26 3 -8 -2 -17 -11 -21 -10 -3 -15 -12 -11 -21 3 -8
1 -17 -5 -21 -6 -3 -8 -12 -5 -19 3 -8 -2 -19 -10 -26 -10 -8 -11 -15 -4 -24
8 -9 5 -14 -10 -18 -11 -3 -20 -13 -20 -24 0 -10 -6 -25 -12 -32 -11 -11 -10
-14 0 -18 10 -4 6 -9 -10 -17 -12 -7 -22 -19 -20 -28 1 -9 -4 -18 -13 -22 -26
-10 -16 -26 18 -27 30 -2 30 -2 -8 -8 -29 -4 -41 -11 -44 -26 -2 -11 -9 -24
-17 -28 -8 -4 -14 -14 -14 -21 0 -8 -7 -19 -15 -26 -9 -7 -14 -19 -11 -27 3
-8 -1 -16 -9 -19 -8 -4 -15 -13 -15 -22 0 -8 -7 -24 -17 -34 -12 -14 -13 -18
-3 -18 9 0 7 -5 -5 -13 -10 -8 -20 -30 -22 -50 -3 -30 -1 -36 16 -34 22 1 65
72 54 89 -3 7 -1 8 5 4 7 -4 17 4 24 21 7 15 21 34 30 41 10 7 18 18 18 23 0
5 5 15 10 22 41 48 50 62 50 74 0 7 7 16 15 19 8 4 15 14 15 24 0 10 6 20 14
23 8 3 21 19 29 36 15 31 15 31 -13 31 -16 0 -32 5 -35 10 -4 6 11 10 38 10
32 0 47 5 51 16 6 15 0 16 -39 11 -25 -4 -45 -3 -45 3 0 11 26 18 68 18 49 1
69 10 93 43 l21 29 -39 -5 c-21 -2 -54 -2 -73 2 l-35 6 55 13 c30 7 70 13 88
14 17 0 32 4 32 8 0 5 -13 7 -30 4 -16 -2 -38 -1 -47 3 -16 7 -15 9 7 15 14 5
40 8 59 9 63 2 19 19 -52 20 -71 2 -34 23 43 25 46 1 75 7 78 14 4 14 -36 15
-93 2 -25 -5 -44 -5 -49 0 -17 17 2 23 66 23 68 -1 113 11 103 27 -4 6 -11 8
-16 5 -5 -4 -9 -2 -9 4 0 5 10 11 22 13 27 4 36 28 11 28 -13 1 -10 5 12 18
28 16 29 17 8 20 -29 4 -30 20 -3 24 22 3 24 24 3 22 -24 -3 -13 14 12 20 32
8 23 26 -13 27 -26 1 -26 1 6 10 59 17 34 28 -53 22 -54 -3 -85 -2 -85 5 0 14
36 22 107 22 34 0 65 5 68 10 4 7 -20 9 -74 4 -47 -3 -87 -1 -98 4 -16 9 -15
11 7 15 14 3 36 5 50 4 60 -2 120 4 120 13 0 6 -7 10 -15 10 -20 0 -19 19 2
27 13 5 12 8 -8 16 -20 8 -21 11 -6 14 20 5 23 23 5 24 -7 0 -33 0 -58 0 -42
-1 -44 0 -26 14 11 8 32 15 48 15 15 0 28 4 28 9 0 4 -11 6 -25 3 -18 -3 -25
0 -25 12 0 9 5 16 11 16 8 0 8 5 -1 15 -10 12 -8 16 11 23 15 6 18 11 11 16
-7 4 -12 16 -12 26 0 23 -17 29 -55 18 -39 -10 -85 -10 -85 1 0 7 63 19 118
23 24 2 2 11 -34 14 -36 3 -74 24 -44 24 19 0 3 14 -18 15 -9 1 -30 2 -46 3
-57 4 -11 22 57 24 37 1 67 5 67 9 0 8 -23 8 -118 1z m107 -141 c11 -7 9 -10
-8 -16 -11 -3 -21 -11 -21 -16 0 -6 4 -8 8 -5 4 2 14 1 21 -4 10 -6 8 -9 -8
-15 -22 -7 -29 -25 -10 -25 5 0 7 -4 4 -10 -3 -5 -24 -10 -46 -10 -21 0 -39 5
-39 10 0 6 11 10 24 10 14 0 28 5 31 11 4 6 -3 9 -21 7 -15 -2 -29 3 -31 10
-3 7 4 12 16 12 11 0 23 5 26 10 3 6 -3 10 -14 10 -21 0 -27 11 -14 23 9 10
66 8 82 -2z m-61 -133 c-3 -7 -10 -13 -16 -12 -59 5 -58 5 -37 14 30 13 57 12
53 -2z m57 -78 c7 -11 4 -12 -40 -16 -38 -3 -58 3 -50 16 8 13 82 13 90 0z
m-27 -172 c-5 -14 -98 -22 -98 -9 0 16 15 21 58 21 30 0 42 -4 40 -12z m-33
-52 c-10 -7 -27 -11 -37 -8 -31 8 -20 22 19 22 34 0 35 -1 18 -14z m92 8 c-3
-3 -12 -4 -19 -1 -8 3 -5 6 6 6 11 1 17 -2 13 -5z m-62 -43 c17 -7 14 -9 -15
-13 -38 -6 -60 -1 -60 13 0 11 47 11 75 0z m0 -40 c16 -7 10 -10 -28 -16 -50
-8 -72 -1 -47 15 18 12 48 12 75 1z m-81 -220 c6 -10 -94 -32 -108 -24 -5 4
-1 12 9 20 21 15 91 18 99 4z m-164 -151 c0 -5 -7 -10 -15 -10 -8 0 -15 5 -15
10 0 6 7 10 15 10 8 0 15 -4 15 -10z m37 4 c-3 -3 -12 -4 -19 -1 -8 3 -5 6 6
6 11 1 17 -2 13 -5z m-92 -94 c-3 -5 -11 -10 -16 -10 -6 0 -7 5 -4 10 3 6 11
10 16 10 6 0 7 -4 4 -10z m-125 -230 c0 -5 -5 -10 -11 -10 -5 0 -7 5 -4 10 3
6 8 10 11 10 2 0 4 -4 4 -10z"/>
<path d="M3550 6730 c0 -5 7 -10 15 -10 8 0 15 5 15 10 0 6 -7 10 -15 10 -8 0
-15 -4 -15 -10z"/>
<path d="M6472 6624 c-18 -31 -26 -54 -20 -52 14 5 64 96 56 103 -2 2 -18 -21
-36 -51z"/>
<path d="M6399 6508 c-13 -18 -41 -54 -63 -81 -21 -26 -36 -50 -33 -54 4 -3
17 7 29 23 13 16 31 37 41 46 9 10 17 22 17 27 0 5 6 14 14 20 12 11 29 51 21
51 -2 0 -14 -15 -26 -32z"/>
<path d="M5640 6470 c0 -5 5 -10 10 -10 6 0 10 5 10 10 0 6 -4 10 -10 10 -5 0
-10 -4 -10 -10z"/>
<path d="M5595 6389 c-4 -6 -5 -12 -2 -15 2 -3 7 2 10 11 7 17 1 20 -8 4z"/>
<path d="M5565 6340 c-3 -5 -1 -10 4 -10 6 0 11 5 11 10 0 6 -2 10 -4 10 -3 0
-8 -4 -11 -10z"/>
<path d="M5547 6288 c6 -11 31 -10 37 1 3 5 -5 8 -18 7 -13 0 -22 -4 -19 -8z"/>
<path d="M5517 6253 c-24 -23 9 -31 39 -8 18 14 18 14 -7 15 -14 0 -29 -3 -32
-7z"/>
<path d="M7865 6229 c-33 -5 -76 -15 -95 -23 -19 -7 -57 -17 -85 -21 -27 -4
-61 -13 -75 -20 -14 -6 -47 -18 -75 -24 -27 -7 -55 -17 -61 -21 -5 -5 -55 -14
-110 -20 -122 -13 -191 -30 -172 -41 9 -6 5 -9 -12 -9 -14 0 -43 -5 -64 -11
-29 -8 -36 -13 -25 -20 8 -5 10 -9 4 -10 -5 -1 -14 -2 -20 -4 -5 -1 -17 -3
-25 -3 -8 -1 -28 -13 -44 -27 -16 -14 -35 -25 -42 -25 -7 0 -18 -8 -23 -19 -6
-10 -22 -22 -35 -25 -17 -4 -23 -11 -20 -21 4 -10 0 -15 -10 -15 -9 0 -32 -16
-52 -35 -27 -28 -31 -35 -17 -36 11 0 6 -5 -12 -11 -39 -14 -42 -17 -26 -27 9
-6 4 -11 -18 -19 -21 -7 -29 -16 -25 -26 3 -9 -2 -17 -16 -21 -15 -5 -19 -12
-15 -26 5 -13 2 -19 -10 -19 -11 0 -15 -6 -10 -19 4 -13 0 -20 -15 -24 -13 -3
-18 -10 -14 -21 4 -10 0 -18 -10 -22 -21 -8 -20 -24 2 -25 10 0 6 -5 -11 -11
-21 -7 -27 -15 -24 -28 3 -11 -2 -21 -10 -24 -9 -4 -13 -13 -9 -22 4 -11 -1
-18 -15 -21 -11 -3 -18 -11 -15 -19 3 -7 -1 -18 -9 -24 -8 -6 -12 -17 -9 -24
3 -8 -2 -16 -11 -20 -10 -3 -15 -13 -12 -21 4 -8 -2 -16 -14 -20 -10 -4 -19
-15 -19 -25 0 -10 -7 -21 -16 -24 -9 -4 -14 -13 -10 -21 3 -9 -1 -18 -9 -21
-8 -4 -15 -15 -15 -25 0 -10 -5 -19 -10 -19 -6 0 -15 -11 -20 -25 -5 -14 -14
-25 -20 -25 -5 0 -10 -9 -10 -20 0 -11 -5 -20 -10 -20 -6 0 -15 -11 -20 -25
-5 -14 -17 -28 -25 -31 -11 -5 -13 -10 -5 -19 8 -10 6 -15 -9 -20 -12 -3 -21
-13 -21 -20 0 -8 -9 -19 -20 -25 -11 -6 -20 -16 -20 -22 0 -11 -15 -29 -57
-70 -12 -11 -20 -24 -18 -28 3 -4 -9 -13 -25 -20 -17 -7 -30 -19 -30 -26 0 -8
-11 -20 -25 -26 -14 -6 -25 -16 -25 -23 0 -6 -16 -19 -35 -28 -19 -9 -35 -21
-35 -27 0 -5 -16 -16 -36 -25 -19 -8 -33 -19 -30 -24 4 -5 -7 -12 -23 -16 -15
-3 -38 -15 -50 -26 -12 -11 -42 -27 -66 -36 -25 -8 -45 -21 -45 -28 0 -7 -17
-16 -37 -20 -43 -8 -93 -32 -93 -44 0 -4 -18 -13 -40 -20 -23 -7 -38 -16 -34
-22 3 -6 12 -8 20 -5 8 3 14 3 14 0 0 -2 -11 -9 -25 -14 -14 -5 -25 -14 -25
-20 0 -12 46 -3 75 15 11 7 59 26 105 43 172 62 210 77 210 84 0 4 -7 5 -15 2
-8 -4 -15 -2 -15 4 0 5 15 10 33 10 17 -1 52 9 77 21 41 19 42 20 13 15 -22
-4 -33 -2 -33 6 0 7 7 10 15 7 8 -4 17 -2 19 2 8 12 96 12 96 1 0 -6 5 -10 10
-10 6 0 10 6 10 13 0 7 17 19 38 27 l37 14 -35 7 -35 6 36 2 c20 0 51 9 70 18
l34 17 -25 7 -25 7 25 3 c14 1 30 3 36 3 6 1 22 9 35 18 l24 17 -30 1 c-28 2
-27 3 12 13 49 14 62 25 44 36 -9 6 -5 10 14 15 21 5 25 11 19 29 -3 12 -3 19
1 15 9 -9 45 9 45 22 0 6 -10 10 -22 11 -22 0 -22 1 -3 8 12 5 23 4 28 -3 7
-11 46 29 47 49 0 7 -3 7 -8 0 -9 -13 -55 -18 -47 -5 3 6 13 10 22 10 11 0 14
6 10 21 -3 12 0 22 9 26 19 7 18 21 -3 26 -15 3 -13 6 9 15 30 12 46 32 26 33
-7 0 -3 4 10 9 12 5 25 18 29 27 3 10 21 37 40 60 18 23 33 44 33 48 0 6 12
23 42 55 9 10 13 21 10 25 -4 4 1 11 11 16 9 6 17 14 17 20 0 14 140 195 192
249 78 81 236 210 255 210 4 0 -1 -7 -11 -15 -11 -8 -16 -15 -12 -15 5 0 -3
-10 -18 -21 -15 -12 -25 -24 -22 -26 3 -3 24 9 48 28 24 18 45 34 48 36 2 2
-2 9 -10 14 -12 8 -10 9 7 4 19 -5 71 20 93 46 3 3 21 14 40 25 19 10 37 21
40 24 9 9 72 38 130 61 76 29 199 64 370 106 174 42 202 53 240 95 40 43 38
58 -10 86 -42 24 -103 27 -215 11z m-1998 -1715 c-3 -3 -12 -4 -19 -1 -8 3 -5
6 6 6 11 1 17 -2 13 -5z"/>
<path d="M5835 6019 c-4 -6 -5 -13 -2 -16 7 -7 27 6 27 18 0 12 -17 12 -25 -2z"/>
<path d="M5800 5974 c-10 -11 -9 -14 8 -14 25 0 37 16 18 23 -8 3 -20 -1 -26
-9z"/>
<path d="M6723 5958 c-24 -16 -43 -34 -43 -39 0 -10 86 47 96 63 10 15 -12 6
-53 -24z"/>
<path d="M5760 5930 c-8 -5 -12 -12 -8 -15 8 -8 58 5 58 16 0 12 -31 11 -50
-1z"/>
<path d="M5721 5886 c-7 -8 -8 -17 -3 -20 11 -6 62 15 62 27 0 13 -47 7 -59
-7z"/>
<path d="M6625 5878 l-20 -21 22 12 c23 12 40 31 26 30 -4 0 -17 -10 -28 -21z"/>
<path d="M5686 5848 c-9 -5 -16 -12 -16 -17 0 -9 58 -2 65 9 7 12 -30 18 -49
8z"/>
<path d="M872 5833 c2 -9 9 -18 16 -21 18 -6 15 25 -4 32 -11 4 -14 1 -12 -11z"/>
<path d="M6565 5830 c-10 -11 -14 -20 -8 -20 5 0 18 9 28 20 10 11 14 20 8 20
-5 0 -18 -9 -28 -20z"/>
<path d="M5634 5795 c-16 -12 -17 -14 -2 -15 23 0 48 11 48 21 0 14 -24 11
-46 -6z"/>
<path d="M6490 5765 c-7 -8 -8 -15 -2 -15 5 0 15 7 22 15 7 8 8 15 2 15 -5 0
-15 -7 -22 -15z"/>
<path d="M5575 5750 c-7 -12 12 -12 40 0 18 8 17 9 -7 9 -15 1 -30 -3 -33 -9z"/>
<path d="M5515 5700 c-8 -13 15 -13 35 0 12 8 11 10 -7 10 -12 0 -25 -4 -28
-10z"/>
<path d="M6374 5649 c-16 -16 -22 -28 -14 -24 13 5 56 55 47 55 -2 0 -16 -14
-33 -31z"/>
<path d="M7055 5670 c-3 -6 1 -7 9 -4 18 7 21 14 7 14 -6 0 -13 -4 -16 -10z"/>
<path d="M5450 5650 c-18 -12 -2 -12 25 0 13 6 15 9 5 9 -8 0 -22 -4 -30 -9z"/>
<path d="M8100 5652 c-112 -8 -209 -25 -238 -43 -18 -10 -42 -19 -52 -19 -10
0 -31 -5 -47 -11 -22 -8 -24 -12 -13 -19 11 -7 9 -10 -12 -10 -33 0 -78 -16
-92 -34 -6 -7 -30 -18 -53 -25 -24 -6 -42 -17 -40 -24 1 -7 -11 -13 -28 -15
-33 -4 -79 -31 -55 -33 8 0 -3 -6 -25 -13 -22 -7 -39 -18 -38 -24 2 -6 -13
-16 -32 -22 -19 -6 -35 -17 -35 -24 0 -7 -15 -17 -32 -23 -21 -6 -32 -15 -30
-25 1 -10 -8 -18 -29 -22 -18 -3 -29 -11 -26 -18 2 -7 -9 -19 -25 -25 -16 -7
-27 -17 -23 -23 4 -6 -7 -15 -24 -21 -17 -6 -31 -17 -31 -24 0 -7 -11 -20 -25
-29 -14 -9 -23 -21 -20 -26 4 -6 0 -10 -7 -10 -12 0 -68 -61 -68 -74 0 -3 -16
-22 -35 -43 -19 -21 -35 -43 -35 -48 0 -6 -9 -16 -20 -23 -12 -7 -18 -17 -15
-22 3 -5 -4 -14 -15 -20 -11 -6 -20 -16 -20 -22 0 -6 -7 -18 -15 -27 -48 -53
-55 -62 -55 -71 0 -5 -9 -15 -20 -22 -11 -7 -20 -18 -20 -25 0 -7 -9 -17 -20
-23 -10 -6 -17 -16 -14 -23 2 -7 -5 -17 -17 -22 -12 -6 -20 -13 -18 -17 2 -4
-6 -15 -18 -23 -13 -9 -23 -22 -23 -28 0 -7 -9 -20 -20 -30 -12 -10 -18 -22
-15 -27 3 -5 -4 -11 -15 -15 -11 -3 -20 -15 -20 -26 0 -10 -4 -19 -9 -19 -9 0
-28 -29 -50 -77 -6 -13 -15 -23 -21 -23 -5 0 -10 -6 -10 -13 0 -8 -9 -22 -20
-32 -11 -10 -20 -22 -20 -27 0 -6 -10 -18 -22 -29 -17 -13 -19 -19 -8 -19 8 0
3 -7 -12 -16 -16 -8 -28 -21 -28 -29 0 -8 -9 -19 -20 -25 -11 -6 -20 -17 -20
-25 0 -8 -9 -19 -20 -25 -11 -6 -20 -17 -20 -24 0 -7 -11 -19 -25 -26 -14 -7
-25 -19 -25 -27 0 -7 -11 -19 -25 -25 -14 -6 -25 -16 -25 -23 0 -6 -16 -19
-35 -28 -19 -9 -35 -23 -35 -31 0 -8 -13 -17 -29 -21 -33 -7 -64 -35 -40 -35
8 -1 1 -7 -16 -14 -25 -11 -27 -15 -13 -21 10 -4 32 -2 49 4 18 6 42 11 55 11
13 0 28 8 33 18 6 9 11 14 11 9 0 -10 80 44 80 54 0 5 6 9 13 9 7 0 23 10 37
23 14 12 45 38 70 58 80 65 380 385 380 406 0 3 20 30 45 61 25 32 91 116 148
187 117 148 135 171 160 197 9 10 17 20 17 23 0 13 138 155 151 155 5 0 9 6 9
13 1 16 188 149 304 214 178 101 246 122 252 78 2 -11 8 -21 14 -23 5 -2 7 -8
4 -13 -3 -6 -1 -16 5 -23 14 -16 20 -95 9 -103 -5 -3 -7 -11 -4 -19 3 -7 1
-16 -5 -20 -6 -3 -8 -12 -5 -19 3 -8 -2 -19 -10 -25 -8 -7 -14 -19 -14 -27 0
-7 -7 -16 -15 -19 -8 -4 -12 -10 -9 -15 3 -5 -2 -16 -10 -25 -9 -9 -14 -19
-11 -24 3 -5 -4 -15 -16 -23 -14 -10 -17 -17 -9 -22 8 -5 5 -12 -9 -22 -12 -8
-19 -19 -16 -24 4 -5 -1 -12 -10 -15 -9 -4 -14 -13 -11 -20 3 -8 -4 -19 -15
-24 -14 -8 -18 -17 -13 -32 3 -11 2 -18 -3 -15 -5 3 -15 1 -23 -4 -13 -8 -13
-10 -1 -18 11 -7 9 -11 -8 -21 -13 -6 -20 -18 -17 -25 2 -7 -2 -16 -11 -19 -9
-4 -13 -13 -9 -23 4 -9 1 -20 -6 -24 -10 -6 -10 -11 -1 -20 10 -10 9 -15 -5
-26 -13 -11 -14 -16 -4 -20 10 -4 10 -8 1 -20 -10 -12 -10 -16 2 -24 12 -8 12
-10 -1 -18 -12 -9 -12 -11 3 -17 12 -4 16 -13 12 -25 -4 -12 -1 -21 10 -25 9
-4 14 -13 11 -20 -3 -9 2 -14 13 -14 10 0 21 -9 24 -19 6 -25 79 -38 113 -20
35 18 42 69 15 112 -27 44 -26 69 3 131 13 28 50 105 81 171 92 194 135 314
135 379 0 44 -29 158 -42 167 -19 13 -37 58 -26 65 43 27 245 18 275 -11 8 -8
20 -15 27 -15 7 0 21 -9 31 -20 10 -11 24 -20 32 -20 8 0 12 -4 9 -9 -3 -5 1
-14 9 -21 7 -6 11 -18 8 -26 -3 -8 0 -14 6 -14 7 0 9 -9 5 -25 -4 -17 -2 -25
6 -25 10 0 9 -4 -1 -16 -10 -13 -10 -17 0 -24 8 -5 9 -9 3 -11 -6 -2 -13 -38
-15 -79 -2 -42 -6 -80 -9 -85 -3 -6 -4 -44 -4 -85 1 -41 -2 -80 -6 -87 -5 -6
-4 -14 2 -18 8 -5 7 -11 -2 -23 -10 -12 -10 -16 0 -19 6 -3 9 -10 5 -15 -10
-17 -10 -279 0 -285 5 -3 3 -9 -4 -13 -10 -7 -10 -12 2 -26 11 -13 11 -18 2
-21 -7 -3 -13 -9 -13 -14 0 -6 5 -7 10 -4 6 4 10 -5 10 -19 0 -14 5 -26 11
-26 6 0 8 -9 4 -20 -4 -11 -2 -20 4 -20 6 0 11 -11 11 -25 0 -14 5 -25 11 -25
5 0 8 -4 4 -9 -3 -5 2 -16 10 -24 18 -19 20 -31 3 -22 -7 4 -5 0 5 -8 9 -8 17
-21 17 -30 0 -8 7 -17 15 -21 8 -3 12 -12 9 -21 -3 -8 -1 -15 4 -15 6 0 14 -9
17 -20 3 -11 13 -20 21 -20 8 0 14 -9 14 -19 0 -11 9 -22 20 -26 11 -3 19 -11
17 -17 -3 -14 59 -36 106 -37 34 -1 37 1 37 28 0 16 -25 77 -55 136 -30 59
-53 111 -53 114 1 3 -6 24 -16 46 -32 74 -48 168 -50 300 -2 135 7 396 19 500
7 65 25 99 26 50 0 -17 5 -39 10 -50 6 -13 7 12 3 75 -3 52 -7 121 -8 153 -1
36 -7 61 -15 66 -11 7 -11 9 0 13 8 3 10 9 3 19 -5 8 -9 18 -9 24 0 5 -8 11
-17 13 -20 4 -25 -14 -5 -21 9 -4 9 -8 -2 -15 -8 -6 -11 -17 -7 -27 12 -32
-28 -11 -44 22 -8 18 -23 35 -32 39 -10 3 -18 12 -18 20 0 8 -4 14 -8 14 -5 0
-19 9 -32 20 -13 11 -33 20 -46 20 -12 0 -30 7 -39 16 -14 15 -33 16 -142 10
-69 -3 -159 -11 -200 -18 -54 -8 -77 -8 -85 0 -14 14 -8 16 102 36 47 9 86 20
88 26 2 6 44 10 98 10 61 0 93 -4 89 -10 -4 -6 23 -10 74 -10 44 0 83 -4 86
-10 3 -5 0 -10 -7 -11 -21 -1 25 -18 51 -18 20 -1 21 1 11 14 -7 8 -19 15 -26
15 -8 0 -14 4 -14 9 0 11 -55 31 -89 32 -23 0 -24 1 -6 9 15 7 8 9 -30 11 -70
4 -144 4 -185 1z m450 -452 c0 -5 -5 -10 -11 -10 -5 0 -7 5 -4 10 3 6 8 10 11
10 2 0 4 -4 4 -10z"/>
<path d="M7000 5615 c-7 -8 -8 -15 -2 -15 5 0 15 7 22 15 7 8 8 15 2 15 -5 0
-15 -7 -22 -15z"/>
<path d="M5400 5610 c-13 -8 -12 -10 3 -10 9 0 17 5 17 10 0 12 -1 12 -20 0z"/>
<path d="M6930 5530 c-6 -11 -8 -20 -6 -20 3 0 10 9 16 20 6 11 8 20 6 20 -3
0 -10 -9 -16 -20z"/>
<path d="M8460 5540 c0 -5 7 -10 15 -10 8 0 15 5 15 10 0 6 -7 10 -15 10 -8 0
-15 -4 -15 -10z"/>
<path d="M8480 5500 c0 -5 9 -10 21 -10 11 0 17 5 14 10 -3 6 -13 10 -21 10
-8 0 -14 -4 -14 -10z"/>
<path d="M6900 5489 c0 -5 5 -7 10 -4 6 3 10 8 10 11 0 2 -4 4 -10 4 -5 0 -10
-5 -10 -11z"/>
<path d="M6835 5399 c-4 -6 -5 -12 -2 -15 2 -3 7 2 10 11 7 17 1 20 -8 4z"/>
<path d="M882 5149 c-126 -16 -247 -72 -309 -143 -42 -48 -89 -134 -85 -154 2
-8 -2 -20 -9 -28 -18 -21 -24 -418 -8 -502 6 -34 15 -65 20 -68 5 -3 9 -16 9
-29 0 -13 14 -46 30 -72 17 -26 30 -51 30 -56 0 -13 61 -87 100 -121 19 -17
41 -38 50 -46 29 -28 115 -86 148 -99 17 -7 32 -17 32 -22 0 -5 8 -9 19 -9 10
0 36 -7 57 -17 22 -9 50 -17 63 -19 13 -2 29 -8 34 -13 16 -16 253 -14 299 2
21 7 41 16 44 20 4 4 16 7 26 7 26 0 139 117 165 170 29 61 43 107 43 141 0
16 5 29 11 29 5 0 7 4 4 10 -3 5 1 38 9 72 8 35 15 90 15 123 0 53 4 92 17
159 2 10 8 24 15 32 6 8 8 14 5 14 -10 0 26 62 47 81 9 9 17 19 17 22 0 5 64
69 94 95 8 6 20 12 26 12 5 0 10 4 10 9 0 13 82 31 144 31 64 0 176 -37 239
-80 46 -31 127 -105 127 -116 0 -4 15 -25 34 -48 18 -23 41 -54 50 -71 9 -16
20 -37 26 -45 22 -36 70 -146 70 -162 0 -10 5 -18 11 -18 6 0 8 -7 5 -16 -3
-9 -3 -21 1 -27 13 -21 11 -68 -3 -74 -20 -7 -17 -20 5 -26 29 -7 50 44 46
118 -1 33 -3 60 -4 60 -2 0 -4 11 -5 25 -7 69 -19 110 -32 110 -9 0 -13 4 -10
8 7 12 -20 86 -33 90 -6 2 -9 7 -6 12 6 10 -21 64 -40 80 -8 7 -15 19 -15 26
0 8 -4 14 -10 14 -5 0 -10 7 -10 15 0 9 -7 18 -15 21 -8 3 -17 14 -20 24 -3
11 -15 22 -25 25 -11 3 -19 11 -17 18 1 6 -8 16 -20 21 -12 6 -24 18 -26 28
-3 10 -14 18 -26 18 -12 0 -21 6 -21 14 0 12 -36 29 -65 30 -5 1 -13 6 -18 13
-4 7 -24 15 -45 18 -20 4 -51 13 -69 21 -22 10 -65 14 -137 13 -58 0 -109 2
-115 5 -5 4 -29 -1 -53 -9 -24 -9 -56 -20 -71 -25 -29 -9 -106 -65 -120 -87
-4 -6 -13 -18 -20 -25 -15 -16 -41 -71 -56 -119 -11 -35 -26 -174 -35 -320 -2
-42 -9 -85 -14 -95 -5 -11 -18 -46 -28 -79 -26 -82 -109 -166 -217 -219 -67
-33 -90 -39 -154 -42 -42 -1 -83 1 -92 6 -9 4 -29 14 -46 21 -16 8 -34 20 -38
26 -4 7 -12 13 -17 13 -6 0 -19 8 -31 18 -25 21 -179 197 -202 232 -16 24 -17
24 -17 3 0 -16 -6 -21 -21 -20 -14 1 -19 7 -16 19 3 10 1 21 -5 24 -5 3 -8 15
-5 25 3 10 2 21 -1 23 -6 3 -7 71 -2 71 1 0 4 27 6 60 5 78 10 116 19 137 4 9
4 22 0 28 -3 5 -1 10 5 10 17 0 37 23 33 37 -3 7 5 18 16 25 24 15 28 30 6 22
-8 -4 -15 -1 -15 4 0 6 10 12 23 14 14 2 23 11 25 24 2 12 12 24 23 27 10 3
23 16 28 29 8 20 10 21 16 6 10 -25 24 -23 18 2 -4 16 0 20 20 20 14 0 28 4
31 8 4 7 68 9 144 4 12 -1 22 -8 22 -16 0 -8 9 -18 20 -21 15 -5 19 -12 15
-25 -5 -17 10 -57 26 -70 4 -3 15 -23 25 -45 18 -38 22 -40 67 -43 l47 -3 1
33 c2 58 -3 93 -13 99 -5 3 -9 8 -8 10 5 10 -43 78 -51 73 -5 -3 -9 6 -9 19 0
25 -23 42 -41 31 -5 -3 -9 2 -9 11 0 8 -8 18 -17 22 -10 3 -26 13 -35 21 -44
37 -280 19 -340 -27 -20 -16 -49 -30 -63 -31 -13 -1 -113 -112 -130 -144 -11
-20 -22 -36 -26 -36 -9 0 -1 104 11 153 17 66 49 123 95 169 44 43 138 98 167
98 9 0 20 5 23 10 4 6 10 8 15 5 5 -3 29 -1 52 6 24 6 79 13 123 15 96 4 98 4
60 14 -38 10 -84 10 -163 -1z m968 -269 c0 -5 -16 -12 -36 -16 -24 -4 -39 -14
-46 -30 -6 -13 -16 -24 -21 -24 -14 0 -77 -63 -77 -77 0 -6 -9 -15 -20 -18
-11 -3 -20 -13 -20 -20 0 -20 -47 -87 -54 -77 -3 5 1 19 8 33 7 13 13 28 13
32 8 49 83 146 132 170 9 4 27 14 41 22 28 17 80 20 80 5z m-1165 -710 c3 -5
1 -10 -4 -10 -6 0 -11 5 -11 10 0 6 2 10 4 10 3 0 8 -4 11 -10z m64 -71 c13
-17 21 -32 19 -35 -3 -2 -17 11 -32 31 -15 19 -23 35 -19 34 4 0 19 -14 32
-30z m753 -12 c-4 -7 -14 -31 -22 -54 -7 -24 -16 -43 -20 -43 -4 0 -13 -12
-19 -28 -6 -15 -20 -32 -30 -37 -10 -6 -33 -18 -51 -28 -37 -21 -49 -24 -130
-31 -36 -3 -60 -2 -60 4 0 6 6 10 13 10 6 0 50 19 96 42 59 29 104 62 148 105
35 35 63 68 63 74 0 5 5 7 10 4 7 -4 7 -12 2 -18z m-682 -69 c0 -14 -19 1 -31
25 -12 22 -12 22 10 3 11 -11 21 -23 21 -28z"/>
<path d="M6635 5110 c-3 -5 -1 -10 4 -10 6 0 11 5 11 10 0 6 -2 10 -4 10 -3 0
-8 -4 -11 -10z"/>
<path d="M8560 5050 c0 -5 5 -10 10 -10 6 0 10 5 10 10 0 6 -4 10 -10 10 -5 0
-10 -4 -10 -10z"/>
<path d="M8572 4940 c0 -14 2 -19 5 -12 2 6 2 18 0 25 -3 6 -5 1 -5 -13z"/>
<path d="M8575 4860 c3 -5 8 -10 11 -10 2 0 4 5 4 10 0 6 -5 10 -11 10 -5 0
-7 -4 -4 -10z"/>
<path d="M8581 4784 c0 -11 3 -14 6 -6 3 7 2 16 -1 19 -3 4 -6 -2 -5 -13z"/>
<path d="M8583 4680 c0 -25 2 -35 4 -22 2 12 2 32 0 45 -2 12 -4 2 -4 -23z"/>
<path d="M6070 4559 c0 -5 5 -7 10 -4 6 3 10 8 10 11 0 2 -4 4 -10 4 -5 0 -10
-5 -10 -11z"/>
<path d="M4023 4333 c-7 -2 -13 -13 -13 -24 0 -11 -7 -19 -16 -19 -9 0 -14 -6
-11 -12 2 -7 10 -12 17 -10 7 2 9 -5 5 -18 -5 -17 -1 -21 24 -26 17 -4 31 -10
31 -14 0 -5 17 -14 38 -21 39 -13 90 -55 78 -66 -3 -4 -20 4 -37 16 -44 33
-48 18 -7 -27 20 -22 41 -56 48 -77 18 -55 1 -217 -28 -272 -7 -12 -12 -29
-12 -37 0 -9 -10 -37 -21 -61 -12 -25 -19 -49 -15 -52 3 -3 2 -11 -3 -17 -23
-30 -55 -172 -41 -181 6 -4 4 -13 -5 -22 -12 -11 -13 -19 -5 -28 8 -9 8 -15 0
-20 -7 -4 -7 -12 0 -24 5 -10 7 -21 3 -24 -3 -3 -2 -14 2 -24 4 -10 9 -31 11
-46 4 -26 16 -52 47 -102 17 -27 47 -54 80 -71 35 -19 34 -29 -3 -44 -16 -7
-30 -18 -30 -25 0 -7 -15 -16 -34 -19 -31 -6 -34 -10 -40 -50 -4 -24 -13 -46
-20 -49 -6 -3 -18 -24 -25 -48 -7 -24 -17 -52 -22 -61 -5 -11 -4 -18 4 -21 9
-3 9 -7 0 -19 -19 -22 -4 -29 23 -11 13 8 21 20 17 27 -3 6 -3 8 2 4 4 -4 22
4 40 17 17 14 37 25 43 25 7 0 12 4 12 9 0 5 17 20 38 32 20 13 39 27 40 31 2
4 8 8 14 8 6 0 29 13 52 29 65 43 129 64 179 59 28 -3 50 0 62 8 17 13 14 14
-28 14 -29 0 -47 4 -47 11 0 7 -7 17 -15 23 -10 7 -12 16 -5 26 7 12 12 12 34
1 21 -12 28 -12 42 0 15 12 14 15 -5 30 -11 9 -17 20 -13 24 6 7 -103 1 -178
-9 -37 -5 -116 8 -110 17 3 5 -7 15 -22 23 -16 8 -28 21 -28 28 0 8 -7 16 -15
20 -9 3 -12 12 -8 22 3 9 0 20 -7 24 -11 7 -11 12 -1 23 8 10 8 16 1 19 -14 4
-2 65 15 72 8 3 11 -2 8 -15 -4 -13 0 -19 11 -19 9 0 13 6 10 14 -3 8 -1 23 5
34 7 13 7 22 0 29 -8 8 -7 13 0 17 6 4 11 18 11 31 0 13 5 27 10 30 6 4 8 11
4 16 -3 6 2 19 12 30 16 18 16 19 -2 19 -17 0 -16 2 4 16 12 8 22 24 22 35 0
10 4 19 8 19 9 0 42 70 42 89 0 7 4 10 9 7 10 -6 25 22 22 40 -1 7 5 14 14 17
8 4 12 12 9 20 -3 8 2 20 11 27 8 7 15 20 15 29 0 9 6 23 13 30 10 11 9 14 -1
18 -10 4 -10 8 -1 19 13 16 18 73 7 80 -5 3 -3 12 3 21 8 9 9 17 3 21 -5 4
-10 25 -12 47 -1 21 -7 42 -12 45 -6 4 -8 14 -5 22 4 9 2 19 -4 23 -6 3 -11
15 -11 26 0 10 -7 19 -15 19 -8 0 -15 6 -15 13 0 19 -35 49 -45 40 -4 -5 -5 0
-2 10 5 13 0 20 -16 26 -12 5 -26 6 -31 3 -5 -3 -7 2 -3 11 7 19 -17 29 -72
30 -20 0 -28 2 -18 4 9 3 17 9 17 14 0 9 -115 11 -137 2z m182 -236 c7 -7 15
-22 17 -33 2 -10 10 -18 18 -16 11 3 11 0 1 -12 -7 -9 -9 -21 -5 -28 11 -17
12 -118 2 -118 -4 0 -8 -11 -8 -25 0 -14 -5 -25 -10 -25 -7 0 -9 21 -4 63 4
34 7 67 6 72 -5 40 -22 99 -31 108 -12 12 -15 27 -5 27 3 0 11 -6 19 -13z
m130 -1091 c-11 -7 -30 -16 -42 -20 -13 -4 -23 -14 -23 -21 0 -8 -11 -22 -25
-31 -14 -9 -25 -22 -25 -30 0 -7 -9 -18 -20 -24 -10 -6 -17 -16 -14 -23 5 -15
-35 -37 -66 -37 -23 0 -27 18 -5 26 8 3 17 15 20 25 4 11 18 24 31 30 14 5 23
13 20 18 -8 12 21 41 39 41 7 0 15 7 17 17 3 16 56 41 93 42 19 1 19 1 0 -13z"/>
<path d="M4065 4170 c3 -5 11 -10 16 -10 6 0 7 5 4 10 -3 6 -11 10 -16 10 -6
0 -7 -4 -4 -10z"/>
<path d="M3010 4133 c-47 -17 -88 -40 -111 -63 -42 -41 -80 -70 -91 -70 -6 0
-26 -11 -45 -26 -18 -14 -48 -30 -66 -36 -17 -6 -42 -19 -55 -29 -12 -9 -46
-23 -75 -29 -28 -7 -57 -17 -64 -22 -7 -5 -17 -7 -23 -3 -5 3 -10 2 -10 -4 0
-6 -19 -15 -42 -21 -24 -6 -60 -18 -81 -25 -20 -8 -39 -15 -42 -15 -3 0 -24
-9 -48 -19 -23 -10 -58 -22 -77 -26 -19 -4 -39 -11 -45 -15 -5 -3 -37 -17 -70
-30 -33 -13 -80 -35 -105 -49 -25 -14 -47 -25 -50 -25 -10 2 -50 -19 -50 -27
0 -4 -11 -10 -25 -13 -14 -4 -25 -11 -25 -16 0 -6 -7 -10 -15 -10 -8 0 -20 -9
-27 -20 -7 -11 -19 -20 -26 -20 -8 0 -23 -11 -34 -25 -11 -14 -23 -23 -28 -20
-4 3 -11 -2 -14 -11 -3 -8 -10 -12 -16 -9 -5 3 -10 1 -10 -6 0 -6 -11 -22 -25
-35 -14 -13 -25 -26 -25 -29 0 -3 -18 -24 -40 -46 -38 -40 -56 -66 -79 -116
-6 -13 -15 -23 -21 -23 -5 0 -10 -7 -10 -15 0 -15 -31 -87 -41 -95 -4 -3 -10
-20 -14 -39 -12 -56 -106 -244 -137 -274 -10 -10 -18 -22 -18 -28 0 -6 -39
-48 -86 -94 -85 -84 -98 -113 -46 -100 15 4 29 10 32 14 3 4 30 24 60 44 70
45 190 162 190 185 0 4 8 17 18 28 18 20 32 45 119 214 30 57 58 107 62 110 5
3 12 19 15 36 4 18 16 40 27 50 10 9 19 24 19 33 0 9 9 22 20 29 11 7 20 18
20 25 0 16 98 121 128 136 12 6 22 17 22 24 0 13 56 41 78 38 6 -1 12 4 12 12
0 20 94 48 210 61 14 2 27 5 30 6 3 1 13 2 23 1 9 -1 17 2 17 7 0 5 28 15 63
21 34 7 77 17 94 22 18 6 54 12 80 13 27 1 69 12 95 24 26 12 53 22 61 22 7 0
45 16 84 35 39 19 78 35 86 35 8 0 20 6 26 14 7 8 31 24 54 36 23 12 76 57
118 100 l75 78 0 66 c0 36 -2 66 -5 65 -4 0 -13 -3 -21 -6z m-560 -448 c-7 -9
-15 -13 -17 -11 -7 7 7 26 19 26 6 0 6 -6 -2 -15z"/>
<path d="M7155 4054 c-75 -17 -112 -29 -125 -39 -8 -7 -30 -17 -48 -23 -19 -6
-47 -23 -64 -37 -16 -14 -34 -25 -39 -25 -5 0 -9 -6 -9 -12 0 -7 -14 -21 -30
-30 -17 -9 -30 -23 -30 -31 0 -7 -11 -20 -25 -27 -14 -7 -25 -19 -25 -25 0 -6
-11 -18 -25 -25 -17 -9 -21 -16 -14 -21 8 -4 0 -13 -22 -25 -30 -15 -32 -18
-14 -24 17 -6 14 -9 -18 -21 -33 -12 -36 -15 -22 -25 15 -11 14 -13 -4 -19
-22 -7 -29 -35 -9 -35 7 0 3 -7 -9 -15 -13 -9 -19 -22 -16 -34 3 -13 -2 -20
-18 -24 -18 -5 -20 -9 -10 -21 10 -12 8 -16 -9 -21 -17 -5 -19 -9 -9 -21 9
-12 9 -17 -4 -27 -18 -14 -31 -117 -15 -117 7 0 7 -4 1 -12 -14 -18 -5 -191
11 -216 4 -7 5 -16 2 -21 -3 -5 1 -14 9 -21 8 -7 15 -19 15 -26 0 -8 5 -14 10
-14 6 0 15 -11 20 -25 5 -14 16 -25 25 -25 8 0 15 -5 15 -10 0 -6 12 -15 28
-21 l27 -11 -29 -13 -29 -12 40 -6 c22 -4 53 -14 69 -22 37 -19 143 -20 180 0
43 22 94 92 94 130 0 58 -46 71 -105 30 -45 -32 -63 -36 -105 -25 -43 12 -92
61 -115 117 -19 46 -19 143 0 218 15 57 84 206 125 270 11 17 24 39 29 50 10
20 54 72 108 129 48 49 114 86 154 86 31 0 43 -6 68 -37 17 -21 31 -46 31 -55
0 -10 5 -18 11 -18 6 0 8 -9 4 -20 -4 -12 -2 -20 5 -20 7 0 9 -7 6 -16 -3 -9
-3 -21 0 -26 10 -15 12 -108 3 -114 -4 -2 -6 -21 -4 -42 1 -20 -2 -43 -9 -51
-8 -11 -8 -15 2 -19 10 -3 10 -7 1 -18 -6 -7 -9 -20 -6 -28 3 -8 3 -17 -1 -21
-3 -3 -7 -14 -7 -23 -1 -9 -2 -30 -3 -47 -2 -23 -4 -27 -12 -15 -8 13 -10 13
-10 -1 0 -9 6 -19 14 -22 10 -4 13 -23 12 -72 -1 -36 2 -69 7 -72 4 -3 6 -11
3 -18 -2 -7 -2 -16 2 -19 3 -4 7 -16 9 -29 5 -36 9 -50 23 -82 7 -16 12 -34
11 -39 -1 -5 6 -17 15 -27 9 -10 13 -22 10 -28 -4 -5 1 -14 10 -19 10 -6 15
-16 11 -26 -4 -9 -2 -16 4 -16 5 0 12 -8 16 -17 3 -10 21 -39 39 -65 19 -27
31 -54 28 -63 -4 -10 0 -15 14 -15 12 0 24 -5 27 -10 10 -15 137 -96 165 -105
14 -4 31 -13 39 -19 9 -7 59 -11 130 -11 94 0 125 4 163 20 27 11 48 23 48 28
0 4 7 7 15 7 8 0 15 4 15 8 0 5 16 17 35 28 19 10 35 24 35 30 0 7 4 14 8 16
20 8 94 115 135 195 59 115 86 190 113 318 9 44 5 193 -7 240 -35 140 -129
227 -273 254 -62 11 -84 6 -118 -30 -24 -25 -23 -30 6 -25 34 6 128 -25 145
-47 8 -11 21 -17 33 -14 15 4 18 1 13 -14 -4 -11 -2 -19 5 -19 10 0 33 -43 35
-65 0 -5 4 -16 8 -22 5 -7 6 -17 2 -22 -3 -5 -1 -13 5 -16 6 -4 8 -15 5 -25
-3 -10 -1 -21 5 -25 8 -5 8 -10 0 -20 -6 -7 -7 -15 -3 -18 7 -4 9 -72 2 -72
-1 0 -3 -10 -5 -22 -8 -48 -11 -59 -19 -77 -4 -10 -8 -31 -9 -47 -1 -19 -8
-31 -24 -39 -13 -5 -20 -15 -17 -21 4 -5 -1 -19 -11 -30 -9 -10 -14 -22 -11
-26 4 -3 -2 -12 -13 -20 -11 -8 -20 -20 -20 -27 0 -8 -7 -16 -15 -20 -8 -3
-15 -15 -15 -26 0 -11 -7 -23 -16 -27 -8 -3 -13 -11 -11 -18 3 -6 -4 -17 -15
-24 -11 -7 -17 -18 -15 -26 4 -8 -6 -18 -24 -25 -17 -7 -28 -18 -25 -25 2 -7
-11 -21 -30 -31 -19 -10 -34 -22 -34 -25 0 -4 -18 -14 -40 -23 -43 -17 -160
-22 -160 -7 0 16 -54 71 -70 71 -11 1 -8 7 10 22 20 17 21 20 5 13 -33 -13
-79 -6 -93 15 -8 10 -23 30 -35 44 -34 39 -63 101 -107 223 -18 50 -23 86 -23
180 -2 134 4 203 15 203 4 0 8 8 8 19 0 10 6 24 14 30 9 7 13 26 12 47 -2 19
1 37 6 40 5 3 8 25 7 48 -2 23 1 48 5 55 5 8 3 16 -5 21 -10 7 -10 11 0 24 10
12 10 16 1 16 -6 0 -14 -9 -17 -20 -5 -20 -6 -20 -18 3 -11 21 -13 30 -16 75
-1 9 -6 22 -11 29 -5 7 -7 17 -3 23 3 5 -1 13 -9 16 -9 3 -14 10 -11 14 6 10
-24 70 -36 70 -5 0 -9 7 -9 15 0 8 -12 21 -27 29 -16 8 -26 16 -23 18 2 1 -2
13 -11 25 -16 23 -58 35 -94 27z"/>
<path d="M7355 4000 c3 -5 8 -10 11 -10 2 0 4 5 4 10 0 6 -5 10 -11 10 -5 0
-7 -4 -4 -10z"/>
<path d="M3330 3960 c0 -6 -6 -10 -12 -8 -7 1 -24 -2 -37 -6 -16 -6 -26 -4
-32 5 -6 10 -12 6 -21 -18 -6 -17 -22 -37 -35 -44 -13 -7 -23 -18 -23 -24 0
-7 -13 -18 -30 -25 -16 -7 -30 -16 -30 -20 0 -5 -24 -32 -54 -60 -30 -29 -53
-57 -50 -64 2 -6 -6 -16 -18 -21 -13 -6 -22 -16 -21 -23 2 -6 -6 -16 -17 -22
-11 -6 -20 -20 -20 -31 0 -11 -7 -22 -15 -25 -8 -4 -15 -14 -15 -24 0 -11 -4
-22 -10 -25 -5 -3 -10 -14 -10 -24 0 -10 -6 -24 -14 -30 -8 -6 -19 -32 -25
-56 -6 -25 -16 -45 -21 -45 -6 0 -10 -9 -10 -19 0 -11 -5 -23 -11 -26 -6 -4
-8 -14 -4 -22 3 -9 -1 -23 -8 -32 -16 -18 -47 -106 -47 -133 0 -10 -5 -18 -11
-18 -6 0 -9 -9 -6 -20 3 -11 1 -20 -3 -20 -4 0 -11 -27 -15 -60 -4 -33 -11
-60 -15 -60 -5 0 -9 -8 -9 -17 -3 -178 0 -220 25 -292 14 -42 31 -87 38 -101
15 -28 41 -105 36 -105 -2 0 3 -11 11 -25 16 -28 18 -43 19 -120 2 -66 -21
-117 -59 -132 -47 -18 -220 22 -248 59 -7 9 -24 29 -37 44 -13 15 -43 62 -67
104 l-42 77 -2 147 c-2 179 -3 196 -11 188 -4 -4 -8 -22 -10 -42 -2 -19 -6
-51 -8 -70 -2 -20 -6 -38 -9 -42 -4 -3 -4 -17 0 -31 4 -18 2 -23 -8 -20 -17 6
-19 23 -21 148 0 52 -4 102 -9 110 -4 8 -13 29 -20 46 -13 32 -59 60 -85 50
-19 -7 -36 33 -22 52 8 9 2 12 -25 12 -44 0 -80 -33 -71 -64 4 -12 7 -21 8
-21 0 -1 27 -20 58 -43 53 -39 81 -72 83 -97 0 -5 6 -28 13 -50 6 -22 11 -69
11 -105 0 -92 8 -230 16 -264 9 -42 50 -108 88 -142 44 -40 106 -67 215 -95
55 -14 92 -29 92 -36 0 -7 -7 -13 -15 -13 -8 0 -23 -4 -33 -9 -40 -22 -130
-43 -177 -42 -54 1 -135 21 -135 33 0 4 -8 8 -17 8 -23 0 -83 22 -83 31 0 4
-21 10 -46 14 -25 3 -47 12 -50 20 -3 7 -24 16 -47 19 -22 4 -68 20 -101 35
-67 31 -126 46 -126 31 0 -5 11 -12 25 -16 14 -3 25 -12 25 -20 0 -8 6 -14 14
-14 17 0 85 -42 86 -52 0 -11 -28 -10 -34 1 -4 5 -25 12 -48 16 -22 4 -55 13
-73 21 -47 19 -118 9 -151 -21 l-27 -25 59 -1 c68 -1 80 -3 178 -28 88 -23
160 -47 195 -65 68 -35 139 -66 149 -66 7 0 12 -4 12 -8 0 -5 23 -19 52 -32
43 -19 67 -23 140 -22 49 1 97 6 108 12 10 5 32 10 48 10 16 0 35 6 41 14 7 8
25 18 41 21 15 3 47 18 71 33 24 15 56 33 72 41 15 8 27 18 27 23 0 4 7 8 17
8 9 0 14 2 11 5 -3 3 6 19 21 34 41 45 51 59 51 74 0 7 3 17 8 21 16 17 29
128 19 177 -7 37 -6 69 6 132 18 88 24 191 32 497 3 121 1 189 -5 179 -9 -15
-17 -159 -24 -434 -5 -169 -20 -253 -42 -234 -8 6 -14 18 -14 25 0 8 -4 22 -9
32 -9 17 -23 47 -56 127 -32 78 -24 293 14 380 5 11 14 38 19 60 11 43 37 118
52 150 61 133 80 177 80 183 0 4 7 16 15 26 14 18 15 16 11 -27 -3 -26 -10
-63 -17 -82 -7 -19 -10 -38 -6 -41 11 -11 17 0 23 42 3 22 8 46 12 54 3 8 6
20 7 25 1 15 39 129 45 135 3 3 13 20 23 38 21 37 59 76 194 194 28 26 49 49
46 52 -4 3 2 15 11 25 25 27 18 75 -11 79 -13 2 -23 -2 -23 -8z m-925 -1630
c50 -78 51 -80 32 -80 -8 0 -20 11 -27 25 -7 14 -16 23 -18 20 -3 -3 -10 6
-17 18 -13 25 -27 87 -20 87 2 0 24 -32 50 -70z"/>
<path d="M4905 3940 c-3 -5 1 -10 9 -10 8 0 18 5 21 10 3 6 -1 10 -9 10 -8 0
-18 -4 -21 -10z"/>
<path d="M4853 3898 c-13 -6 -23 -16 -23 -23 0 -6 -11 -18 -25 -25 -17 -9 -22
-17 -15 -25 6 -7 3 -15 -10 -23 -11 -6 -17 -18 -14 -25 3 -8 -2 -20 -11 -27
-11 -10 -13 -16 -4 -26 9 -11 7 -15 -5 -20 -10 -4 -15 -13 -11 -22 3 -8 0 -21
-6 -28 -9 -11 -8 -18 1 -29 10 -12 9 -16 -4 -21 -21 -8 -21 -24 1 -24 14 0 14
-2 -2 -20 -16 -18 -16 -20 -1 -26 13 -5 14 -10 5 -20 -12 -15 -3 -38 12 -29 5
4 9 1 9 -4 0 -6 -4 -11 -10 -11 -19 0 -10 -21 12 -29 18 -6 19 -9 5 -14 -24
-9 -21 -26 6 -37 18 -7 19 -9 4 -9 -12 -1 -17 -7 -15 -18 2 -11 11 -17 21 -15
9 2 17 -2 17 -8 0 -5 -7 -10 -16 -10 -14 0 -15 -7 -10 -37 10 -54 15 -68 49
-143 11 -25 20 -51 20 -57 0 -7 4 -13 9 -13 4 0 8 -7 8 -15 0 -8 4 -15 8 -15
4 0 16 -15 27 -32 46 -80 157 -162 370 -272 82 -43 182 -107 195 -125 3 -4 41
-34 85 -66 144 -105 219 -167 296 -248 42 -44 82 -78 89 -75 21 7 -233 247
-322 303 -42 26 -148 102 -188 134 -57 46 -69 53 -160 99 -42 21 -94 51 -115
65 -22 15 -43 27 -48 27 -16 0 -82 54 -143 117 -62 63 -153 221 -140 242 4 5
2 13 -4 16 -6 4 -8 15 -5 26 4 11 2 19 -4 19 -6 0 -11 5 -11 10 0 6 14 10 31
10 25 0 29 -3 21 -13 -8 -9 -6 -16 8 -25 11 -6 17 -18 14 -26 -3 -8 3 -16 15
-19 14 -3 19 -10 15 -21 -4 -9 0 -18 9 -22 9 -3 13 -13 10 -25 -4 -14 0 -19
16 -19 23 0 27 -10 10 -27 -7 -7 -3 -12 15 -17 16 -4 23 -11 20 -20 -3 -8 3
-19 15 -25 12 -7 18 -17 15 -26 -5 -11 1 -15 20 -15 19 0 26 -5 26 -20 0 -13
7 -20 19 -20 11 0 26 -8 33 -18 7 -11 30 -22 50 -26 20 -4 38 -11 40 -17 2 -6
22 -13 46 -16 24 -3 42 -11 42 -18 0 -7 11 -16 25 -19 33 -8 32 -24 -1 -28
-22 -2 -12 -9 52 -36 42 -19 98 -49 122 -68 25 -19 49 -34 53 -34 5 0 17 -8
27 -17 10 -10 59 -51 110 -92 51 -41 92 -78 92 -83 0 -4 6 -8 13 -8 6 0 27
-21 46 -45 18 -25 49 -62 67 -82 19 -20 32 -38 30 -41 -4 -3 17 -30 67 -83 9
-10 14 -19 10 -19 -3 0 2 -9 12 -20 10 -11 14 -20 10 -20 -4 0 0 -9 10 -20 18
-20 56 -88 110 -200 14 -30 30 -62 35 -71 9 -16 4 -29 -10 -29 -4 0 -15 19
-25 43 -10 23 -25 50 -33 60 -8 9 -12 17 -7 17 4 0 0 11 -9 25 -9 13 -16 31
-16 40 0 8 -4 15 -8 15 -5 0 -16 15 -25 33 -28 53 -51 87 -81 117 -23 23 -35
18 -15 -6 7 -9 18 -24 24 -34 72 -128 95 -171 95 -180 0 -5 5 -10 10 -10 6 0
10 -5 10 -12 0 -6 14 -40 30 -75 17 -34 30 -68 30 -73 0 -6 4 -18 9 -28 27
-53 45 -99 46 -114 0 -9 3 -20 8 -24 13 -13 7 -21 -25 -34 -18 -7 -43 -23 -56
-34 -28 -25 -86 -27 -133 -4 -75 36 -89 41 -94 36 -3 -2 18 -15 45 -28 51 -24
68 -47 28 -37 -13 3 -49 12 -81 19 -32 7 -56 16 -52 20 7 6 -53 24 -69 20 -4
-2 -15 3 -23 9 -23 20 -104 16 -119 -6 -10 -14 -14 -15 -14 -4 0 10 -6 7 -18
-7 -9 -12 -28 -25 -42 -29 -35 -10 -50 -24 -43 -41 3 -8 -5 -17 -21 -24 -17
-6 -26 -17 -26 -31 0 -15 -5 -19 -15 -15 -12 4 -15 -3 -15 -29 0 -44 18 -82
40 -88 19 -5 81 21 77 32 -1 3 8 23 21 43 19 31 30 38 68 44 43 6 65 4 164
-17 70 -15 238 -23 253 -11 6 5 26 13 43 16 18 4 49 20 70 36 49 37 64 37 65
3 6 -121 7 -179 2 -187 -4 -5 -5 -34 -4 -63 2 -33 -2 -53 -8 -53 -7 0 -9 -10
-5 -24 4 -17 1 -27 -11 -34 -12 -6 -14 -12 -6 -16 7 -5 4 -14 -9 -28 -11 -12
-19 -27 -18 -32 4 -16 -32 -49 -73 -68 -40 -20 -118 -24 -239 -14 -90 7 -87
-2 7 -24 59 -13 223 -10 223 4 0 6 5 5 12 -2 10 -10 5 -19 -21 -42 -18 -17
-37 -27 -43 -23 -7 4 -9 0 -5 -10 4 -10 0 -16 -11 -16 -9 0 -51 -6 -92 -14
-64 -12 -78 -12 -97 -1 -30 18 -136 18 -172 -1 -23 -11 -30 -24 -36 -62 -13
-78 -12 -116 1 -161 6 -23 9 -42 6 -42 -4 0 -1 -4 6 -9 8 -5 17 -24 22 -42 l7
-34 16 36 c9 19 23 42 32 49 9 7 14 19 11 26 -3 7 2 18 10 24 8 7 14 24 14 39
0 47 10 52 86 42 85 -10 178 -4 221 15 17 8 36 14 41 14 6 0 22 10 36 23 13
12 38 33 55 46 17 13 31 28 31 33 0 5 11 19 24 31 13 12 24 24 24 27 1 11 27
67 43 90 9 14 16 27 15 30 -1 7 25 92 35 112 5 10 9 29 9 42 0 14 3 27 8 30 4
2 9 33 10 67 2 35 7 70 11 78 8 19 5 195 -4 231 -4 14 -8 39 -10 56 -5 53 -32
148 -59 208 -14 32 -26 62 -26 66 0 4 -8 25 -17 46 -9 22 -16 42 -15 47 1 4
-2 7 -7 7 -5 0 -15 17 -21 38 -7 20 -20 46 -30 57 -9 11 -23 35 -30 53 -7 17
-16 32 -21 32 -4 0 -11 10 -15 23 -4 12 -9 24 -13 27 -9 7 -30 41 -41 68 -5
12 -14 22 -20 22 -5 0 -10 5 -10 11 0 27 -142 186 -247 278 -27 22 -57 49 -68
59 -11 11 -28 22 -38 25 -10 4 -15 11 -12 17 4 6 -7 13 -24 16 -17 4 -29 11
-28 17 1 6 -12 16 -29 22 -17 5 -30 14 -30 19 1 5 -8 14 -18 20 -11 6 -28 19
-38 29 -10 9 -25 17 -33 17 -8 0 -24 9 -35 20 -11 11 -29 20 -40 20 -11 0 -19
5 -17 11 1 6 -11 16 -28 22 -16 6 -36 16 -44 24 -7 8 -26 17 -41 20 -18 3 -27
10 -24 18 3 7 -7 17 -25 23 -17 6 -31 16 -31 21 0 6 -6 11 -13 11 -7 0 -23 11
-35 25 -12 14 -29 25 -37 25 -9 0 -12 6 -9 15 4 8 1 15 -5 15 -13 0 -71 56
-71 69 0 5 -8 16 -18 23 -10 7 -21 21 -25 31 -3 9 -14 17 -23 17 -8 0 -14 6
-11 13 2 6 -11 31 -29 53 -18 23 -31 44 -27 47 3 4 -2 9 -11 13 -10 4 -14 13
-11 24 3 11 -1 20 -10 24 -9 3 -14 10 -11 14 3 5 -2 28 -10 52 -9 24 -16 61
-16 82 0 21 -4 38 -8 38 -4 0 -5 11 -2 25 3 16 0 25 -9 25 -9 0 -8 4 4 13 9 6
17 30 19 51 2 28 13 50 35 75 18 20 31 41 29 46 -2 6 6 20 17 33 l20 22 -29
-1 c-16 0 -39 -5 -51 -11z m574 -1094 c-3 -3 -12 -4 -19 -1 -8 3 -5 6 6 6 11
1 17 -2 13 -5z m778 -1048 c15 -49 22 -83 16 -89 -11 -11 -25 28 -16 43 3 6
-1 13 -9 16 -9 3 -16 17 -16 30 0 13 -5 24 -11 24 -6 0 -9 6 -6 14 3 7 1 18
-5 24 -6 6 -7 16 -3 22 11 19 22 1 50 -84z"/>
<path d="M5147 3654 c-17 -9 -26 -21 -23 -29 3 -8 -2 -19 -11 -24 -14 -7 -15
-12 -5 -24 9 -11 10 -17 2 -22 -7 -4 -3 -17 10 -36 19 -25 24 -28 43 -17 14 7
17 13 9 16 -8 2 -5 10 10 22 20 16 26 16 49 4 15 -7 30 -10 34 -6 5 4 5 2 1
-5 -4 -7 2 -18 14 -25 11 -7 20 -17 20 -23 0 -6 8 -18 18 -26 9 -9 32 -32 50
-52 18 -20 37 -37 43 -37 6 0 7 -5 3 -12 -4 -6 1 -17 10 -23 9 -7 18 -26 20
-42 2 -17 16 -43 31 -59 28 -29 125 -169 125 -179 0 -5 10 -18 50 -62 11 -13
20 -28 20 -35 0 -6 18 -35 40 -64 22 -29 40 -57 40 -62 0 -8 19 -35 73 -102 7
-8 18 -27 25 -41 7 -14 29 -42 48 -63 19 -20 32 -42 28 -47 -3 -5 9 -12 26
-15 21 -5 29 -11 26 -21 -4 -8 -1 -11 5 -8 5 4 27 -5 48 -18 114 -75 174 -74
254 5 41 41 57 47 57 23 0 -9 12 -20 27 -26 22 -8 24 -12 13 -19 -12 -8 -12
-10 3 -15 18 -8 50 -63 42 -75 -3 -4 2 -13 11 -20 10 -9 11 -16 4 -20 -14 -9
17 -70 36 -70 8 0 14 -5 14 -11 0 -5 -4 -7 -10 -4 -5 3 -10 1 -10 -5 0 -6 7
-13 15 -16 10 -4 13 -13 10 -24 -3 -11 0 -20 10 -24 8 -3 15 -14 15 -25 0 -11
5 -23 10 -26 6 -3 10 -15 10 -26 0 -10 5 -19 11 -19 5 0 7 -5 4 -10 -4 -6 -1
-17 5 -25 6 -8 9 -19 5 -25 -3 -5 -2 -10 3 -10 9 0 35 -53 36 -75 1 -5 8 -15
16 -22 8 -6 12 -14 8 -18 -4 -4 10 -35 31 -68 21 -34 39 -66 41 -72 17 -49 26
-65 38 -65 8 0 12 -6 9 -14 -3 -7 2 -20 11 -28 10 -8 24 -25 32 -38 21 -32 78
-96 124 -139 22 -20 46 -44 55 -53 8 -10 21 -18 27 -18 6 0 17 -7 24 -15 7 -8
21 -15 31 -15 18 0 19 2 5 29 -9 16 -29 43 -46 59 -16 17 -30 33 -30 36 0 3
-8 14 -17 24 -34 36 -110 145 -141 202 -45 83 -56 109 -59 145 -2 22 -8 42
-13 43 -6 2 -10 12 -10 23 0 10 -4 19 -10 19 -5 0 -10 7 -10 15 0 9 -7 27 -16
40 -9 13 -12 30 -8 36 4 8 3 9 -4 5 -8 -5 -12 0 -12 13 0 12 -4 21 -10 21 -5
0 -10 7 -10 15 0 8 -11 38 -23 67 -13 29 -30 69 -37 88 -7 19 -20 43 -28 53
-14 15 -13 17 6 17 12 0 22 -4 22 -10 0 -5 11 -12 24 -16 14 -3 32 -14 42 -25
9 -10 23 -19 31 -19 7 0 16 -7 19 -15 4 -8 10 -15 16 -15 5 0 33 -11 61 -24
89 -41 120 -54 177 -71 66 -20 130 -44 150 -56 8 -5 22 -12 30 -15 58 -22 116
-52 137 -70 15 -12 32 -20 40 -17 7 3 13 0 13 -6 0 -6 -6 -11 -12 -11 -7 -1 5
-9 27 -20 22 -10 39 -21 38 -24 -2 -3 -3 -7 -2 -8 0 -2 2 -12 4 -23 2 -11 9
-21 14 -23 6 -2 11 -12 11 -23 0 -10 4 -19 9 -19 5 0 12 -7 15 -16 3 -8 2 -12
-4 -9 -6 3 -10 1 -10 -4 0 -6 5 -11 11 -11 19 0 41 -28 28 -36 -8 -5 -6 -10 5
-16 11 -6 15 -16 10 -30 -4 -13 -1 -24 7 -29 10 -6 11 -9 2 -9 -7 0 -13 -4
-13 -9 0 -7 24 -8 51 -2 23 4 -19 258 -47 285 -8 8 -14 18 -14 21 0 4 -9 19
-20 35 -11 15 -17 30 -15 34 3 3 2 4 -1 2 -3 -2 -23 14 -45 35 -22 21 -42 39
-45 39 -3 0 -14 9 -25 19 -28 26 -165 91 -274 131 -138 50 -303 138 -288 154
4 3 -1 6 -10 6 -8 0 -29 11 -45 25 -17 14 -35 25 -41 25 -6 0 -11 4 -11 10 0
5 -12 16 -27 24 -16 8 -45 30 -67 50 -21 20 -42 36 -47 36 -5 0 -9 5 -9 10 0
6 -14 19 -31 29 -20 12 -26 21 -17 24 8 4 7 6 -5 6 -15 1 -143 122 -182 173
-6 7 -27 34 -48 59 -20 25 -37 49 -37 52 0 3 -15 32 -34 65 -19 33 -32 63 -29
65 2 3 0 13 -6 24 -18 33 -32 78 -32 103 -1 8 -3 22 -6 30 -3 8 -8 31 -10 50
-7 62 -25 85 -62 83 -38 -1 -91 -22 -91 -35 0 -5 4 -6 10 -3 6 3 7 -1 4 -9 -3
-9 -12 -16 -20 -16 -21 0 -17 -30 4 -31 13 0 12 -2 -5 -9 -26 -11 -31 -30 -7
-30 9 0 14 -7 12 -17 -1 -10 1 -24 6 -32 5 -8 4 -16 -3 -21 -9 -5 -8 -10 4
-20 11 -9 12 -16 5 -25 -8 -9 -6 -14 4 -18 9 -4 12 -14 9 -25 -3 -14 1 -22 16
-27 12 -3 19 -10 16 -15 -3 -5 3 -15 15 -22 11 -7 20 -19 20 -26 0 -7 7 -15
15 -18 8 -4 15 -12 15 -20 0 -7 8 -18 18 -23 15 -9 15 -12 2 -21 -8 -5 -23
-10 -33 -10 -29 0 -9 -20 21 -21 25 -1 26 -1 4 -7 -22 -7 -22 -8 -4 -23 10 -8
24 -13 31 -11 8 3 11 0 7 -6 -3 -6 4 -18 16 -26 12 -9 19 -18 16 -22 -4 -3 20
-33 53 -66 59 -60 74 -98 46 -115 -8 -4 -18 -16 -23 -25 -8 -15 -12 -15 -49 2
-22 10 -60 37 -85 59 -24 23 -48 41 -52 41 -4 0 -7 4 -5 9 3 11 -50 71 -64 71
-5 0 -7 5 -3 11 3 6 3 14 -2 18 -14 10 -54 69 -54 80 0 5 -7 11 -15 15 -8 3
-15 12 -15 20 0 8 -3 16 -7 18 -12 5 -46 57 -73 113 -14 28 -33 57 -42 66 -10
9 -15 18 -13 21 3 3 -4 13 -14 22 -11 10 -17 24 -14 32 3 8 -1 14 -10 14 -8 0
-18 8 -21 18 -12 33 -37 72 -46 72 -5 0 -7 6 -4 14 3 7 -2 16 -10 19 -9 4 -16
13 -16 21 0 9 -9 20 -20 26 -11 6 -18 15 -15 20 3 5 -3 15 -15 22 -11 7 -20
18 -20 25 0 7 -6 16 -13 20 -8 4 -16 16 -20 26 -3 9 -13 17 -22 17 -8 0 -15 5
-15 11 0 14 -67 79 -81 79 -6 0 -8 4 -4 10 3 5 -8 16 -24 24 -16 9 -31 21 -33
27 -6 19 -109 22 -141 3z m1766 -1401 c-7 -2 -19 -2 -25 0 -7 3 -2 5 12 5 14
0 19 -2 13 -5z m92 -33 c4 -6 -6 -10 -24 -10 -16 0 -33 5 -36 10 -4 6 6 10 24
10 16 0 33 -4 36 -10z m191 -77 c-7 -8 -56 9 -51 18 3 4 17 3 30 -3 14 -6 23
-13 21 -15z m-116 7 c0 -5 -5 -10 -11 -10 -5 0 -7 5 -4 10 3 6 8 10 11 10 2 0
4 -4 4 -10z m171 -20 c5 0 9 -4 9 -10 0 -12 -47 -13 -54 -1 -8 12 6 22 22 16
7 -3 18 -5 23 -5z m60 -40 c5 0 9 -4 9 -10 0 -16 -26 -12 -41 7 -12 15 -12 16
4 10 10 -4 23 -7 28 -7z m99 -80 c0 -5 -4 -10 -10 -10 -5 0 -10 5 -10 10 0 6
5 10 10 10 6 0 10 -4 10 -10z"/>
<path d="M6595 3630 c-3 -5 -1 -10 4 -10 6 0 11 5 11 10 0 6 -2 10 -4 10 -3 0
-8 -4 -11 -10z"/>
<path d="M6570 3600 c0 -5 5 -10 10 -10 6 0 10 5 10 10 0 6 -4 10 -10 10 -5 0
-10 -4 -10 -10z"/>
<path d="M7456 3554 c-10 -25 1 -29 14 -5 6 12 7 21 1 21 -5 0 -12 -7 -15 -16z"/>
<path d="M1940 3475 c-7 -8 -9 -15 -6 -15 4 0 14 7 22 15 9 8 11 15 6 15 -5 0
-15 -7 -22 -15z"/>
<path d="M2998 3294 c-5 -4 -8 -32 -7 -63 1 -53 1 -54 10 -22 11 37 8 97 -3
85z"/>
<path d="M4170 3250 c0 -5 7 -10 16 -10 8 0 12 5 9 10 -3 6 -10 10 -16 10 -5
0 -9 -4 -9 -10z"/>
<path d="M4186 3212 c-3 -6 -1 -14 5 -17 15 -10 25 3 12 16 -7 7 -13 7 -17 1z"/>
<path d="M4215 3160 c3 -5 10 -10 16 -10 5 0 9 5 9 10 0 6 -7 10 -16 10 -8 0
-12 -4 -9 -10z"/>
<path d="M4024 2895 c-10 -8 -14 -15 -7 -15 19 0 43 11 43 21 0 13 -14 11 -36
-6z"/>
<path d="M3968 2853 c-16 -8 -28 -19 -28 -26 0 -7 -18 -21 -40 -31 -22 -11
-40 -25 -40 -32 0 -8 -11 -16 -24 -20 -13 -3 -36 -19 -52 -35 -15 -16 -33 -29
-39 -29 -6 0 -21 -11 -33 -25 -12 -14 -28 -25 -35 -25 -8 0 -25 -10 -39 -22
-13 -13 -41 -31 -61 -40 -21 -10 -40 -25 -43 -33 -4 -8 -14 -15 -24 -15 -9 0
-43 -9 -76 -21 -32 -11 -63 -22 -69 -23 -5 -1 -15 -5 -21 -8 -6 -4 -25 -3 -43
2 -27 8 -31 6 -31 -11 0 -11 10 -33 22 -49 21 -30 23 -30 117 -30 134 0 137 2
426 155 39 20 76 42 84 49 8 6 26 16 40 23 25 11 25 11 -6 6 -18 -3 -33 -3
-33 1 0 8 21 46 37 66 7 9 14 31 16 50 2 19 13 55 25 79 12 25 22 48 22 53 0
11 -21 8 -52 -9z"/>
<path d="M4225 2784 c-16 -8 -43 -23 -60 -34 -16 -11 -38 -23 -47 -26 -10 -4
-18 -10 -18 -14 0 -5 -13 -11 -30 -15 -16 -4 -30 -11 -30 -16 0 -5 -7 -9 -15
-9 -8 0 -19 -9 -25 -19 -14 -26 -13 -34 3 -21 26 21 118 79 135 84 10 4 27 14
38 24 10 9 39 27 64 39 25 12 38 22 30 22 -8 -1 -28 -7 -45 -15z"/>
<path d="M4529 2713 c-7 -16 -15 -31 -17 -35 -2 -5 1 -8 6 -8 11 0 37 58 30
65 -3 3 -11 -7 -19 -22z"/>
<path d="M4471 2607 c-17 -26 -31 -53 -29 -60 2 -7 -16 -32 -39 -56 -24 -23
-43 -48 -43 -54 0 -7 -9 -18 -21 -25 -11 -7 -18 -19 -16 -26 3 -7 -4 -18 -14
-24 -10 -7 -19 -21 -19 -31 0 -10 -7 -22 -16 -25 -9 -3 -14 -12 -11 -19 3 -7
-1 -21 -9 -31 -7 -11 -11 -23 -7 -29 3 -5 0 -13 -7 -17 -21 -13 -32 -197 -18
-280 16 -88 48 -193 82 -264 20 -43 36 -82 36 -87 0 -10 17 -43 36 -69 38 -54
48 -105 50 -270 3 -175 -12 -319 -40 -383 -26 -64 -89 -153 -116 -165 -22 -10
-25 -19 -28 -66 -2 -47 0 -56 22 -74 14 -10 22 -22 19 -26 -3 -3 -2 -6 3 -6 6
0 32 -20 59 -44 47 -43 137 -96 163 -96 7 0 11 -4 7 -10 -3 -5 7 -9 22 -8 15
1 58 -4 95 -11 73 -12 173 -5 303 23 39 9 84 18 100 21 37 8 47 12 170 71 55
26 107 54 115 62 8 8 29 21 48 29 18 7 36 21 39 31 4 9 19 35 35 56 34 47 35
58 6 54 -19 -2 -24 2 -26 24 -2 16 -8 28 -13 28 -5 0 -8 3 -8 8 1 4 1 21 0 37
-1 23 -3 27 -11 15 -8 -12 -10 -12 -11 5 -1 30 -5 45 -28 105 -11 30 -27 85
-36 123 -8 37 -19 77 -24 90 -5 12 -17 47 -26 77 -16 53 -38 106 -94 220 -15
30 -33 75 -40 100 -7 25 -17 54 -21 65 -20 49 -61 296 -53 323 3 12 1 22 -3
22 -11 0 -10 177 1 202 4 9 4 21 2 25 -10 16 35 292 52 318 6 10 10 41 11 79
1 33 -36 48 -47 19 -4 -9 -15 -25 -25 -35 -10 -10 -18 -25 -18 -33 0 -8 -6
-15 -14 -15 -9 0 -12 -7 -9 -19 3 -10 0 -22 -6 -25 -6 -4 -11 -18 -11 -31 0
-13 -5 -25 -12 -27 -6 -2 -13 -13 -14 -24 -7 -45 -29 -119 -37 -125 -6 -4 -7
-16 -4 -27 2 -12 1 -22 -4 -24 -5 -2 -11 -34 -14 -71 -2 -37 -9 -77 -15 -87
-8 -15 -8 -20 1 -20 7 0 8 -5 3 -12 -5 -7 -8 -24 -7 -38 1 -21 4 -56 16 -209
1 -13 8 -26 15 -29 10 -3 10 -7 1 -18 -10 -12 -8 -17 6 -28 13 -9 15 -15 6
-20 -9 -6 -9 -11 -1 -21 7 -8 9 -19 5 -25 -3 -5 -3 -16 2 -22 7 -12 12 -39 14
-80 0 -10 4 -20 10 -23 5 -4 5 -14 -1 -26 -9 -15 -7 -19 5 -19 11 0 14 -6 9
-24 -4 -17 -1 -25 13 -30 17 -7 17 -8 -2 -22 -19 -14 -19 -15 3 -21 17 -4 22
-11 19 -25 -3 -11 1 -22 9 -25 11 -4 12 -8 3 -19 -9 -12 -8 -18 7 -30 14 -11
15 -17 7 -20 -18 -8 -16 -24 2 -24 18 0 20 -17 4 -22 -8 -3 -7 -9 3 -19 9 -8
19 -30 23 -49 4 -19 11 -41 16 -50 12 -24 22 -54 21 -63 -1 -4 2 -7 8 -7 5 0
10 -11 10 -24 0 -14 4 -27 9 -30 13 -8 96 -179 93 -192 -1 -6 4 -17 12 -23 8
-7 13 -18 10 -26 -3 -7 -1 -16 5 -20 6 -3 11 -17 11 -31 0 -13 5 -24 10 -24
19 0 9 -25 -16 -43 -19 -15 -68 -23 -207 -38 -247 -27 -402 -29 -442 -6 -16 9
-35 17 -41 17 -6 0 -42 14 -80 31 l-69 31 40 34 c22 19 36 34 32 34 -12 0 41
50 53 50 6 0 9 4 5 9 -7 13 16 62 26 55 5 -3 6 1 3 9 -3 8 -1 18 5 22 6 3 11
14 10 23 0 11 -3 12 -6 5 -6 -15 -53 -17 -53 -3 0 6 7 13 16 17 8 3 13 11 10
18 -6 18 30 49 49 42 9 -4 15 -1 15 8 0 8 -6 12 -14 9 -23 -9 -31 18 -10 33
16 12 17 15 4 23 -13 9 -11 13 9 29 18 14 20 20 10 23 -12 5 -12 9 0 29 9 16
10 24 3 27 -8 2 -8 9 1 23 10 16 9 21 -1 28 -11 6 -10 12 4 25 15 16 16 24 5
74 -6 31 -12 67 -12 79 1 12 -4 25 -9 28 -6 3 -10 13 -10 21 0 8 -9 34 -20 56
-11 23 -20 48 -20 55 0 7 -3 13 -7 13 -5 0 -16 20 -26 45 -11 25 -23 45 -29
45 -5 0 -6 9 -3 20 4 11 2 20 -4 20 -6 0 -11 9 -11 20 0 11 -4 20 -8 20 -18 0
-62 125 -87 245 -18 86 -14 257 5 263 5 2 10 10 10 18 0 15 38 95 49 104 4 3
12 17 18 33 7 15 17 27 23 27 6 0 9 4 6 9 -3 4 3 16 14 26 11 10 20 24 20 31
0 7 6 17 13 21 6 4 18 19 25 32 40 71 47 88 44 110 -3 21 -8 23 -39 18 -20 -4
-42 -15 -50 -27 -8 -11 -21 -20 -29 -20 -12 0 -12 4 2 25 30 47 8 49 -25 2z
m736 -1329 c-3 -8 -6 -5 -6 6 -1 11 2 17 5 13 3 -3 4 -12 1 -19z m-720 -41
c12 -93 15 -189 5 -183 -8 5 -12 -2 -12 -19 0 -18 4 -24 13 -19 10 6 10 4 0
-7 -7 -7 -13 -25 -13 -40 0 -15 -4 -30 -10 -34 -5 -3 -7 -12 -4 -19 3 -8 0
-17 -7 -21 -9 -6 -10 10 -5 66 4 41 8 84 9 97 1 12 9 27 17 32 13 8 12 10 -4
10 -15 0 -17 5 -12 31 3 17 6 56 6 87 0 53 11 65 17 19z m742 -11 c-3 -3 -11
5 -18 17 -13 21 -12 21 5 5 10 -10 16 -20 13 -22z m11 -36 c0 -5 -4 -10 -10
-10 -5 0 -10 5 -10 10 0 6 5 10 10 10 6 0 10 -4 10 -10z m7 -52 c-3 -8 -6 -5
-6 6 -1 11 2 17 5 13 3 -3 4 -12 1 -19z m-497 -643 c63 0 139 3 168 7 28 4 52
3 52 -1 0 -10 -156 -31 -230 -31 -29 0 -69 4 -89 10 -20 5 -49 12 -64 15 -15
3 -25 10 -22 15 3 5 19 4 38 -3 17 -6 84 -12 147 -12z"/>
<path d="M3028 2386 c-6 -30 35 -86 63 -86 32 0 68 -29 113 -94 37 -52 126
-224 126 -244 0 -8 45 -78 87 -135 26 -37 141 -137 187 -164 144 -85 242 -113
408 -116 120 -2 123 -1 126 20 3 17 -3 24 -25 28 -15 4 -39 11 -53 15 -14 5
-43 13 -65 17 -50 9 -43 7 -90 27 -83 36 -128 63 -196 118 -97 80 -139 120
-139 136 0 7 -7 15 -15 18 -8 4 -15 15 -15 25 0 10 -4 19 -10 19 -5 0 -10 7
-10 15 0 8 -9 23 -19 32 -11 9 -17 22 -14 29 3 9 -4 12 -23 11 -20 -1 -31 4
-39 19 -6 12 -16 28 -22 35 -5 8 -20 41 -32 74 -13 33 -28 66 -34 74 -7 8 -11
16 -9 18 6 9 -1 22 -28 53 -16 18 -27 37 -24 42 3 5 2 8 -3 7 -4 -1 -21 3 -38
10 -38 16 -100 17 -118 2 -9 -7 -12 -22 -9 -38 l5 -26 -31 22 c-35 25 -38 31
-20 49 9 9 7 12 -9 12 -14 0 -22 -8 -25 -24z m157 -47 c12 -19 -3 -22 -27 -5
l-22 16 21 0 c12 0 25 -5 28 -11z m15 -56 c0 -22 -2 -25 -10 -13 -13 20 -13
40 0 40 6 0 10 -12 10 -27z"/>
<path d="M3410 2206 c0 -8 5 -18 10 -21 6 -3 10 1 10 9 0 8 -4 18 -10 21 -5 3
-10 -1 -10 -9z"/>
<path d="M3442 2130 c7 -10 14 -18 15 -16 6 6 -9 36 -18 36 -5 0 -4 -9 3 -20z"/>
<path d="M1519 2108 c-5 -13 -16 -34 -23 -48 -8 -14 -17 -40 -21 -57 -8 -38 5
-43 35 -13 17 17 18 23 8 40 -11 17 -10 22 0 29 7 4 12 12 10 17 -1 5 3 19 10
32 8 14 9 22 2 22 -6 0 -15 -10 -21 -22z"/>
<path d="M6788 1861 c9 -16 20 -27 24 -25 9 6 -20 54 -33 54 -4 0 -1 -13 9
-29z"/>
<path d="M6815 1810 c3 -5 8 -10 11 -10 2 0 4 5 4 10 0 6 -5 10 -11 10 -5 0
-7 -4 -4 -10z"/>
<path d="M6850 1763 c0 -5 7 -18 15 -29 13 -18 14 -18 8 4 -5 22 -23 41 -23
25z"/>
<path d="M5800 1654 c0 -2 9 -8 20 -14 11 -6 20 -7 20 -2 0 6 -9 12 -20 15
-11 3 -20 3 -20 1z"/>
<path d="M6916 1642 c-4 -7 -1 -12 6 -12 7 0 21 -12 30 -27 10 -16 18 -23 18
-18 0 20 -46 69 -54 57z"/>
<path d="M4012 1511 c-6 -4 -92 -6 -189 -4 -229 3 -282 -6 -218 -35 37 -17 32
-35 -7 -26 -41 10 -130 6 -183 -7 -22 -6 -47 -11 -57 -13 -9 -1 -22 -7 -30
-13 -7 -6 -39 -23 -71 -37 -31 -14 -60 -32 -63 -40 -3 -9 -21 -21 -39 -27 -18
-7 -39 -23 -46 -36 -7 -13 -18 -23 -24 -23 -16 0 -73 -29 -80 -41 -11 -16 -21
-10 -23 15 -1 18 6 27 31 37 17 8 35 13 40 11 4 -1 7 3 7 8 0 24 -87 0 -130
-35 -38 -32 -240 -63 -240 -37 0 4 -18 8 -40 9 -21 1 -49 7 -60 13 -11 6 -24
8 -29 6 -5 -3 -11 1 -15 9 -3 8 -15 15 -26 15 -11 0 -28 8 -38 18 -36 33 -55
39 -101 30 -58 -10 -76 -25 -56 -44 8 -8 12 -21 9 -29 -4 -9 0 -15 9 -15 9 0
22 -9 29 -19 8 -11 27 -23 43 -27 17 -4 37 -12 45 -19 8 -8 33 -16 55 -20 61
-10 72 -15 57 -24 -15 -9 -114 8 -123 21 -10 15 -59 17 -59 3 0 -8 9 -10 25
-7 14 2 25 0 25 -6 0 -11 51 -34 84 -38 12 -1 44 -9 72 -17 82 -24 197 -31
267 -17 34 8 64 16 67 20 9 11 94 48 151 65 163 50 405 129 414 135 6 4 39 17
75 30 36 13 79 29 95 35 177 73 163 70 291 70 132 0 143 6 97 52 -13 13 -20
29 -17 37 7 17 -7 27 -24 17z m-327 -141 c-51 -22 -255 -100 -300 -115 -137
-45 -163 -53 -200 -58 -22 -3 -32 -3 -22 -1 9 3 17 9 17 14 0 4 8 10 18 14 9
3 24 10 32 15 42 28 175 80 250 99 153 38 165 40 195 40 25 1 27 -1 10 -8z
m-715 -164 c0 -3 -4 -8 -10 -11 -5 -3 -10 -1 -10 4 0 6 5 11 10 11 6 0 10 -2
10 -4z m-210 -107 c0 -5 -35 -9 -77 -8 -53 0 -72 3 -58 9 26 11 135 10 135 -1z"/>
<path d="M5415 1490 c3 -5 11 -10 16 -10 6 0 7 5 4 10 -3 6 -11 10 -16 10 -6
0 -7 -4 -4 -10z"/>
<path d="M3072 1328 c-7 -7 -12 -17 -12 -22 0 -8 3 -8 8 -1 4 6 18 16 32 22
22 10 23 12 5 12 -12 1 -26 -4 -33 -11z"/>
<path d="M2277 1273 c-4 -6 0 -30 10 -52 13 -30 24 -41 47 -45 39 -8 46 0 8 9
-29 6 -37 17 -51 75 -4 16 -9 21 -14 13z"/>
<path d="M4586 905 c-11 -8 -17 -18 -13 -21 10 -11 37 4 37 21 0 18 0 18 -24
0z"/>
<path d="M5208 263 c6 -2 18 -2 25 0 6 3 1 5 -13 5 -14 0 -19 -2 -12 -5z"/>
</g>
</svg>
