<?xml version="1.0" standalone="no"?>
<!DOCTYPE svg PUBLIC "-//W3C//DTD SVG 20010904//EN"
 "http://www.w3.org/TR/2001/REC-SVG-20010904/DTD/svg10.dtd">
<svg version="1.0" xmlns="http://www.w3.org/2000/svg"
 width="1200.000000pt" height="1600.000000pt" viewBox="0 0 1200.000000 1600.000000"
 preserveAspectRatio="xMidYMid meet">

<g transform="translate(0.000000,1600.000000) scale(0.100000,-0.100000)"
fill="#000000" stroke="none">
<path d="M0 14598 l0 -1401 908 6 c499 4 1096 9 1327 12 873 11 2287 15 4945
15 2548 0 3189 -2 4373 -15 l447 -5 0 1395 0 1395 -6000 0 -6000 0 0 -1402z"/>
<path d="M5595 11440 c-90 -15 -258 -71 -285 -95 -8 -7 -26 -16 -39 -20 -30
-9 -126 -75 -176 -120 -20 -19 -41 -35 -46 -35 -5 0 -9 -4 -9 -10 0 -5 -15
-24 -32 -42 -48 -48 -80 -95 -115 -168 -45 -91 -64 -141 -58 -150 3 -5 1 -11
-5 -15 -6 -4 -8 -11 -5 -16 4 -5 3 -15 -2 -21 -4 -7 -8 -17 -8 -23 0 -5 -4
-30 -9 -55 -5 -25 -10 -54 -12 -65 -2 -10 -6 -49 -10 -85 -3 -36 -9 -82 -14
-103 -5 -23 -4 -39 2 -43 6 -4 5 -10 -3 -14 -10 -7 -10 -12 0 -23 9 -12 9 -16
-1 -20 -10 -4 -10 -8 2 -16 10 -7 11 -11 3 -11 -7 0 -13 -7 -13 -15 0 -8 6
-15 13 -15 9 0 9 -2 0 -8 -8 -5 -11 -22 -8 -42 8 -66 16 -135 20 -179 3 -24
10 -71 16 -105 6 -34 13 -72 14 -86 8 -54 17 -136 19 -155 1 -17 7 -19 44 -17
33 3 42 0 42 -12 0 -12 -11 -16 -42 -18 -31 -1 -23 -3 27 -8 39 -3 75 -5 80
-3 6 2 12 34 13 70 3 74 13 93 48 93 12 0 26 5 29 10 3 6 14 10 24 10 10 0 24
7 31 15 7 8 19 15 26 15 8 0 36 14 62 30 53 32 62 35 62 20 0 -5 -6 -10 -14
-10 -8 0 -17 -7 -20 -16 -5 -14 -4 -15 9 -4 12 10 15 9 15 -5 0 -10 -16 -33
-35 -52 -19 -19 -35 -35 -35 -37 0 -2 -15 -20 -34 -41 -19 -20 -32 -44 -29
-51 3 -8 1 -14 -5 -14 -5 0 -9 -15 -8 -32 1 -30 4 -33 38 -36 40 -3 92 23 81
41 -4 6 0 8 9 5 10 -4 51 29 124 100 121 119 214 219 214 230 0 4 14 22 30 41
17 18 28 36 25 41 -3 5 4 11 14 15 11 3 23 15 26 26 4 10 11 19 16 19 5 0 9 5
9 10 0 6 18 35 40 64 22 29 40 58 40 64 0 5 3 12 8 14 7 3 54 70 77 108 5 10
30 51 55 91 53 88 110 200 110 215 0 6 6 16 13 22 7 6 14 23 15 38 1 15 6 32
11 38 12 16 29 73 37 126 9 61 13 213 5 225 -3 6 -6 15 -6 20 -3 35 -55 133
-82 155 -13 10 -23 23 -23 28 0 6 -9 14 -20 17 -11 3 -20 10 -20 14 0 8 -69
44 -134 70 -39 16 -178 22 -241 11z m209 -172 c-2 -3 13 -12 33 -19 51 -17 99
-71 113 -127 13 -51 20 -171 11 -187 -3 -5 -7 -19 -8 -30 -7 -51 -58 -185 -70
-185 -8 0 -11 5 -8 10 11 18 8 183 -5 230 -16 60 -60 151 -77 157 -7 3 -13 11
-13 17 0 14 -82 57 -144 76 -42 14 -149 8 -169 -8 -7 -6 -30 -13 -52 -16 -35
-6 -37 -5 -15 5 14 6 39 17 55 25 87 41 181 63 267 61 47 -1 84 -5 82 -9z
m-424 -108 c0 -5 -8 -10 -18 -10 -22 0 -69 -34 -131 -94 -72 -71 -81 -82 -81
-93 0 -6 -7 -13 -15 -17 -8 -3 -15 -12 -15 -20 0 -8 -4 -16 -8 -18 -14 -6 -84
-158 -79 -172 3 -8 -1 -17 -9 -20 -8 -3 -13 -9 -12 -13 2 -12 -22 -67 -27 -61
-7 6 41 192 58 225 23 44 87 122 142 173 26 25 55 52 64 60 54 50 131 85 131
60z m190 -125 c7 -8 28 -15 46 -15 33 0 46 -14 22 -23 -7 -2 2 -7 20 -11 27
-6 31 -10 21 -22 -9 -11 -8 -14 5 -14 13 0 16 -5 11 -20 -4 -12 -2 -20 5 -20
7 0 10 -7 7 -15 -4 -8 -2 -17 4 -21 7 -4 6 -10 -1 -19 -8 -9 -6 -14 7 -20 17
-6 17 -7 -1 -21 -17 -12 -18 -14 -3 -14 20 0 23 -16 5 -23 -10 -4 -10 -8 0
-15 11 -7 10 -10 -3 -16 -11 -4 -14 -12 -10 -26 4 -11 2 -20 -4 -20 -6 0 -8
-6 -5 -14 3 -8 0 -17 -6 -21 -9 -6 -9 -10 1 -16 11 -7 10 -11 -6 -23 -11 -9
-16 -16 -11 -16 5 0 3 -7 -4 -15 -6 -8 -9 -19 -6 -24 4 -5 -4 -17 -16 -25 -21
-15 -21 -16 -3 -17 17 0 17 -1 -4 -10 -15 -6 -21 -14 -17 -24 3 -9 -1 -18 -10
-22 -8 -3 -13 -12 -10 -19 5 -14 -40 -26 -79 -21 -14 1 -20 -4 -20 -18 0 -11
-3 -24 -6 -30 -3 -5 -5 -22 -4 -37 1 -17 -4 -28 -12 -28 -8 0 -16 -7 -20 -15
-6 -17 -44 -60 -148 -168 -91 -94 -146 -141 -183 -156 -17 -7 -33 -19 -36 -27
-3 -8 -11 -14 -18 -14 -6 0 -21 -9 -33 -20 -12 -12 -38 -23 -57 -26 l-35 -6
-6 58 c-4 33 -9 73 -12 89 -11 63 -16 283 -7 340 9 55 10 49 11 -69 0 -71 4
-126 8 -122 11 11 9 265 -2 270 -6 3 -4 9 5 15 20 14 27 7 28 -35 1 -21 6 -40
12 -44 6 -4 8 -14 5 -23 -4 -10 7 -29 34 -56 37 -37 43 -39 69 -30 37 13 52
44 40 84 -16 55 -11 205 7 235 3 6 1 10 -5 10 -14 0 -31 -46 -24 -65 5 -12 -2
-15 -27 -15 -31 1 -32 2 -16 14 16 13 16 14 1 20 -16 6 -16 8 1 20 10 7 15 18
11 25 -4 6 0 14 8 17 9 3 13 10 10 15 -3 6 0 16 6 24 6 8 9 19 5 25 -3 5 1 10
9 10 9 0 16 8 16 18 0 10 5 23 12 30 7 7 8 12 3 12 -5 0 0 7 12 15 12 9 20 22
17 29 -3 8 4 16 16 19 12 3 19 10 15 16 -3 6 1 14 9 17 9 3 16 12 16 19 0 8 9
17 21 20 12 4 18 13 15 20 -3 9 5 16 24 20 19 4 27 11 24 20 -4 9 5 16 30 20
20 4 33 11 30 16 -6 11 38 29 71 29 12 0 25 7 29 15 3 9 18 15 39 15 19 0 40
-7 47 -15z m-590 -535 c0 -5 -4 -10 -10 -10 -5 0 -10 5 -10 10 0 6 5 10 10 10
6 0 10 -4 10 -10z m-100 -640 c0 -5 -4 -10 -10 -10 -5 0 -10 5 -10 10 0 6 5
10 10 10 6 0 10 -4 10 -10z m147 -6 c-3 -3 -12 -4 -19 -1 -8 3 -5 6 6 6 11 1
17 -2 13 -5z m-17 -24 c0 -14 -24 -22 -52 -18 l-23 5 25 11 c32 14 50 15 50 2z
m40 0 c0 -5 -4 -10 -9 -10 -6 0 -13 5 -16 10 -3 6 1 10 9 10 9 0 16 -4 16 -10z
m-60 -39 c0 -14 -79 -30 -108 -21 -30 8 -19 16 33 23 56 7 75 7 75 -2z m-8
-62 c-4 -28 -27 -46 -37 -29 -4 6 1 10 9 10 9 0 16 5 16 10 0 6 -15 10 -34 10
-43 0 -57 17 -19 22 66 9 69 7 65 -23z m-72 -39 c0 -5 -4 -10 -10 -10 -5 0
-10 5 -10 10 0 6 5 10 10 10 6 0 10 -4 10 -10z"/>
<path d="M5155 10670 c3 -5 8 -10 11 -10 2 0 4 5 4 10 0 6 -5 10 -11 10 -5 0
-7 -4 -4 -10z"/>
<path d="M5145 10640 c-3 -5 -1 -10 4 -10 6 0 11 5 11 10 0 6 -2 10 -4 10 -3
0 -8 -4 -11 -10z"/>
<path d="M4940 10160 c0 -5 5 -10 10 -10 6 0 10 5 10 10 0 6 -4 10 -10 10 -5
0 -10 -4 -10 -10z"/>
<path d="M4947 10098 c3 -24 9 -56 14 -73 8 -27 8 -26 4 10 -3 22 -5 55 -5 73
0 17 -4 32 -9 32 -5 0 -7 -19 -4 -42z"/>
<path d="M4962 9948 c1 -27 5 -48 10 -48 11 0 9 49 -2 75 -7 15 -9 8 -8 -27z"/>
<path d="M6116 11381 c-7 -10 41 -35 91 -47 13 -4 23 -14 23 -23 0 -14 2 -14
10 -1 5 8 10 10 10 4 0 -7 9 -14 20 -17 12 -3 20 -14 20 -26 0 -12 6 -21 13
-21 9 0 8 -3 -2 -9 -7 -5 -9 -11 -4 -14 5 -3 9 -31 8 -61 -1 -35 2 -56 9 -56
7 0 7 -3 -1 -8 -7 -4 -14 -39 -17 -82 -2 -41 -5 -75 -6 -75 -3 0 -13 -73 -14
-107 0 -21 -3 -38 -6 -38 -3 0 -7 -17 -8 -37 -1 -21 -4 -47 -6 -58 -3 -11 -5
-30 -5 -42 -1 -16 -6 -21 -16 -17 -8 4 -15 1 -15 -5 0 -6 4 -11 9 -11 5 0 8
-15 7 -32 -2 -18 -1 -37 2 -42 4 -7 9 -95 13 -213 1 -13 6 -23 11 -23 6 0 7
-7 4 -15 -3 -9 1 -18 9 -22 11 -4 13 -9 5 -18 -8 -9 -6 -14 5 -19 9 -3 14 -10
10 -15 -3 -5 4 -16 15 -24 11 -7 17 -16 14 -19 -7 -7 40 -58 54 -58 5 0 12 -6
15 -13 2 -7 26 -23 51 -36 49 -24 129 -31 196 -16 70 15 165 69 240 135 19 17
40 34 45 38 6 5 24 25 40 46 17 21 38 45 48 54 9 9 17 20 17 25 0 5 9 22 21
38 11 16 17 33 14 39 -3 5 -2 10 4 10 6 0 20 21 31 46 20 42 45 55 45 23 0 -8
4 -19 8 -26 4 -6 1 -13 -5 -16 -10 -3 -10 -7 1 -20 9 -11 10 -17 2 -17 -6 0
-11 -4 -11 -10 0 -5 6 -10 14 -10 10 0 14 -10 12 -35 -2 -20 1 -38 6 -41 5 -3
7 -12 4 -20 -3 -9 4 -16 19 -20 15 -4 22 -11 18 -20 -3 -9 1 -14 12 -14 10 0
15 -5 12 -14 -3 -7 0 -19 6 -26 9 -9 9 -14 1 -17 -7 -2 -10 -13 -7 -23 3 -12
0 -20 -7 -20 -7 0 -10 -7 -6 -16 4 -10 0 -18 -13 -21 -11 -3 -17 -11 -15 -18
3 -8 -4 -16 -17 -20 l-22 -7 22 -13 c23 -12 23 -12 -9 -19 -40 -7 -37 -13 10
-19 21 -2 34 -9 32 -16 -1 -7 7 -15 18 -18 11 -3 20 -12 20 -19 0 -8 6 -17 14
-20 8 -3 16 -14 19 -25 3 -10 14 -19 24 -19 18 0 19 12 17 288 -1 158 -6 343
-9 412 -4 69 -9 166 -10 215 -3 102 -11 181 -27 275 -6 36 -11 74 -13 84 -1
11 -7 22 -13 24 -7 2 -9 8 -6 13 3 6 1 15 -4 22 -6 7 -10 14 -9 17 4 14 -32
49 -56 55 -35 9 -77 -2 -77 -19 0 -8 -7 -17 -16 -20 -8 -3 -12 -11 -9 -17 4
-5 -1 -17 -11 -24 -18 -14 -18 -14 1 -15 17 -1 16 -3 -5 -11 -23 -10 -24 -11
-7 -21 18 -9 18 -10 0 -24 -15 -11 -15 -13 -3 -14 16 0 21 -43 7 -57 -4 -3 -2
-12 4 -20 9 -9 8 -13 0 -13 -6 0 -11 -4 -11 -10 0 -5 7 -10 15 -10 8 0 15 -5
15 -11 0 -5 -4 -8 -9 -4 -5 3 -12 1 -16 -4 -3 -5 3 -14 12 -20 17 -10 17 -10
-1 -11 -13 0 -17 -5 -13 -19 3 -14 -2 -21 -17 -25 -18 -5 -19 -8 -6 -16 13 -9
13 -11 0 -20 -12 -8 -13 -12 -2 -19 11 -6 10 -10 -5 -15 -17 -7 -17 -8 0 -21
17 -12 17 -13 0 -19 -17 -7 -17 -8 1 -18 15 -8 16 -12 5 -19 -12 -8 -12 -11 1
-18 12 -9 12 -11 -3 -17 -13 -5 -15 -10 -7 -19 8 -10 8 -15 -1 -21 -9 -5 -7
-11 6 -21 18 -12 10 -19 -18 -14 -5 1 -6 -3 -2 -9 3 -5 17 -10 31 -10 24 0 35
-20 12 -20 -8 0 -5 -7 6 -15 17 -13 18 -15 2 -21 -13 -5 -14 -9 -5 -20 9 -11
8 -14 -1 -14 -7 0 -10 -7 -7 -15 4 -8 2 -17 -4 -21 -6 -3 -8 -12 -5 -19 2 -7
-1 -18 -7 -24 -9 -9 -8 -14 3 -21 11 -7 8 -10 -13 -15 -21 -6 -25 -10 -17 -20
8 -10 6 -15 -10 -20 -16 -5 -18 -10 -10 -20 8 -9 5 -14 -10 -18 -11 -3 -20
-12 -20 -20 0 -8 -9 -17 -20 -20 -13 -3 -18 -10 -14 -21 4 -10 1 -16 -8 -16
-7 0 -21 -9 -31 -20 -9 -11 -23 -20 -30 -20 -7 0 -20 -9 -30 -20 -15 -18 -67
-29 -67 -15 0 9 52 55 61 55 5 0 9 6 9 14 0 8 7 16 15 20 26 10 16 26 -15 26
-21 0 -30 -5 -30 -16 0 -8 5 -12 10 -9 6 3 10 2 10 -4 0 -6 -17 -13 -37 -17
-21 -4 -32 -9 -25 -11 15 -6 16 -23 0 -23 -6 0 -21 -8 -32 -18 -25 -22 -129
-62 -161 -62 -42 0 -36 17 8 25 23 5 34 10 24 12 -9 3 -33 -1 -52 -7 -25 -8
-39 -8 -55 0 -31 17 -60 48 -60 65 0 8 -5 15 -11 15 -8 0 -8 4 0 14 8 10 9 16
1 21 -6 3 -8 11 -4 16 3 6 -2 17 -12 24 -18 14 -18 14 1 15 l20 1 -20 15 c-14
11 -16 18 -7 21 6 3 9 10 5 16 -21 33 -20 168 4 407 8 85 8 262 0 324 -8 66
-49 146 -89 176 -27 20 -47 25 -109 28 -48 3 -79 0 -83 -7z"/>
<path d="M4620 10940 c0 -5 -5 -10 -11 -10 -12 0 -240 -129 -249 -141 -3 -3
-16 -12 -30 -19 -14 -7 -31 -21 -38 -32 -7 -10 -18 -18 -23 -18 -15 0 -169
-160 -169 -175 0 -3 -16 -28 -37 -54 -26 -36 -45 -51 -69 -55 -29 -6 -58 -36
-34 -36 6 0 10 5 10 10 0 6 7 10 15 10 24 0 18 -14 -22 -51 -90 -81 -114 -94
-179 -94 -44 0 -65 5 -78 18 -10 9 -25 17 -34 17 -11 0 -6 6 12 15 15 8 37 15
47 15 10 0 21 5 25 11 8 13 -51 2 -78 -14 -12 -8 -30 -8 -65 1 -66 17 -193 8
-246 -17 -23 -10 -53 -22 -67 -26 -21 -6 -99 -51 -135 -77 -56 -41 -134 -111
-152 -134 -13 -17 -39 -48 -58 -69 -20 -21 -63 -79 -95 -129 -33 -50 -73 -110
-90 -133 -16 -23 -30 -49 -30 -58 0 -8 -3 -15 -7 -15 -9 0 -33 -49 -33 -67 0
-7 -4 -13 -9 -13 -10 0 -25 -24 -61 -97 -12 -24 -24 -43 -28 -43 -5 0 -16 -20
-26 -45 -11 -25 -23 -45 -28 -45 -4 0 -8 -5 -8 -11 0 -5 -13 -38 -29 -72 -16
-34 -41 -89 -56 -122 -15 -33 -43 -94 -62 -135 -46 -101 -49 -107 -68 -165 -9
-27 -21 -58 -26 -68 -5 -10 -7 -22 -4 -27 3 -5 1 -11 -5 -15 -15 -9 -13 -75 3
-75 9 0 8 -3 -2 -9 -7 -5 -10 -14 -7 -20 11 -17 26 -3 26 24 0 13 4 26 8 29 5
3 9 19 10 36 0 17 5 37 11 44 6 7 8 15 5 19 -3 3 4 10 15 17 12 6 19 15 16 21
-4 5 7 26 24 46 17 21 31 41 31 45 0 4 9 18 20 30 49 55 90 106 90 112 0 6 9
18 50 64 11 12 20 25 20 30 1 4 14 23 30 42 17 19 30 39 30 46 0 6 9 19 19 28
11 10 23 31 26 47 4 16 12 32 18 36 16 10 59 77 82 128 11 22 22 42 25 45 6 5
29 74 34 100 4 22 50 114 59 119 11 4 31 53 28 69 -1 6 4 12 11 12 7 0 24 19
38 41 14 23 35 42 50 46 14 3 33 13 44 22 10 9 19 14 20 12 1 -4 27 6 116 46
41 19 260 32 260 16 0 -6 13 -13 30 -16 16 -4 40 -18 52 -32 12 -14 25 -25 30
-25 31 0 98 -106 102 -159 1 -20 9 -49 18 -66 22 -41 30 -116 33 -280 4 -224
25 -395 48 -395 5 0 7 -7 4 -15 -4 -8 -2 -17 3 -20 6 -4 10 -15 10 -26 0 -11
7 -22 15 -25 8 -4 13 -10 10 -14 -9 -14 21 -59 67 -103 65 -60 98 -87 109 -87
5 0 9 -5 9 -11 0 -6 9 -22 20 -36 16 -20 20 -22 20 -9 0 10 3 16 8 14 4 -2 24
-12 44 -21 20 -9 39 -21 43 -27 3 -5 28 -16 56 -24 65 -20 98 -7 97 37 -1 20
-7 31 -20 35 -10 2 -18 11 -18 19 0 8 -9 17 -20 20 -10 3 -22 14 -25 24 -4 10
-13 19 -21 19 -8 0 -19 11 -24 25 -5 14 -16 25 -24 25 -9 0 -13 6 -10 14 4 10
-5 18 -28 25 -26 7 -28 9 -10 10 30 1 24 25 -8 29 -17 3 -19 6 -10 12 8 5 10
15 5 26 -4 11 -9 24 -10 29 -5 26 -18 55 -24 55 -9 0 -37 128 -34 153 2 10 -4
17 -13 17 -13 0 -14 3 -4 15 6 8 8 20 4 27 -4 6 -8 37 -9 67 -3 96 -4 101 -22
101 -12 0 -14 3 -6 8 7 5 11 24 8 47 -5 53 -33 176 -44 189 -5 6 -12 25 -15
43 -4 17 -14 34 -22 37 -9 3 -13 10 -10 15 3 5 -4 24 -17 42 -12 19 -29 47
-37 64 -17 32 -112 133 -144 152 -136 80 -242 98 -403 67 -52 -10 -100 -23
-107 -29 -17 -18 -56 -37 -56 -28 0 5 16 22 36 38 20 17 42 35 49 42 60 57
270 141 320 127 23 -6 117 -54 125 -64 17 -21 190 -39 190 -20 0 4 17 10 38
14 20 3 48 12 62 20 14 8 46 25 73 38 26 12 47 26 47 30 0 5 6 8 13 8 6 1 28
14 47 30 19 17 38 30 42 30 13 0 158 151 158 165 0 4 8 15 18 24 21 19 102
139 102 152 0 5 5 9 10 9 6 0 10 6 10 13 0 6 18 35 40 62 22 28 40 54 40 58 0
4 9 17 20 29 11 12 20 30 20 40 0 10 7 30 16 43 10 15 12 25 5 25 -6 0 -11 -4
-11 -10z"/>
<path d="M8291 10563 c-18 -7 -91 -81 -91 -92 0 -5 -7 -11 -15 -15 -8 -3 -15
-12 -15 -20 0 -7 -7 -16 -15 -20 -8 -3 -15 -10 -15 -16 0 -5 -8 -18 -17 -29
-34 -36 -54 -66 -74 -108 -11 -24 -25 -43 -31 -43 -6 0 -8 -3 -5 -7 4 -3 -1
-15 -10 -26 -10 -10 -17 -22 -17 -26 3 -11 -15 -49 -26 -56 -5 -3 -8 -11 -5
-16 4 -5 1 -9 -4 -9 -6 0 -11 -6 -11 -13 0 -18 -24 -67 -32 -67 -5 0 -8 -9 -8
-20 0 -11 -4 -20 -10 -20 -5 0 -10 -9 -10 -20 0 -11 -4 -20 -10 -20 -5 0 -10
-9 -10 -19 0 -11 -5 -23 -10 -26 -6 -4 -8 -10 -5 -15 3 -5 0 -12 -5 -15 -9 -6
-29 -42 -35 -65 -7 -27 -48 -100 -56 -100 -5 0 -9 -6 -8 -12 3 -17 -17 -64
-31 -73 -5 -3 -8 -11 -5 -16 4 -5 -1 -12 -10 -15 -9 -4 -14 -13 -11 -21 3 -7
-1 -16 -10 -20 -8 -3 -13 -12 -10 -20 3 -7 -1 -16 -9 -19 -8 -4 -15 -15 -15
-25 0 -10 -3 -19 -7 -19 -9 0 -33 -48 -33 -66 0 -6 -7 -14 -15 -18 -8 -3 -15
-12 -15 -21 0 -8 -4 -15 -10 -15 -5 0 -10 -6 -10 -14 0 -7 -6 -19 -14 -26 -8
-6 -13 -17 -10 -24 3 -8 -2 -16 -10 -19 -9 -4 -16 -13 -16 -22 0 -8 -4 -15 -9
-15 -5 0 -13 -10 -17 -22 -4 -13 -14 -28 -23 -35 -14 -11 -14 -12 4 -13 16 -1
14 -4 -7 -12 -30 -10 -36 -23 -15 -31 6 -3 -1 -10 -18 -16 -23 -10 -26 -14
-15 -21 11 -7 8 -11 -13 -19 -29 -11 -28 -30 1 -32 9 -1 4 -4 -12 -8 -16 -3
-31 -12 -34 -20 -3 -8 0 -11 7 -7 6 4 16 4 23 0 7 -5 5 -11 -8 -21 -15 -11
-16 -15 -5 -22 9 -6 10 -10 2 -16 -7 -3 -9 -15 -6 -25 3 -11 0 -20 -10 -23 -8
-4 -12 -13 -9 -20 3 -8 -2 -17 -12 -21 -13 -5 -14 -9 -5 -20 10 -11 8 -16 -9
-21 -13 -4 -19 -12 -16 -21 3 -7 -4 -18 -15 -24 -11 -6 -17 -15 -14 -20 3 -5
-4 -14 -15 -20 -11 -6 -20 -17 -20 -24 0 -7 -12 -18 -26 -24 -14 -7 -23 -16
-19 -21 3 -5 -11 -15 -30 -21 -27 -9 -33 -15 -26 -24 8 -9 -2 -16 -41 -26 -48
-12 -50 -14 -32 -27 13 -10 15 -14 4 -13 -35 5 -59 -1 -94 -25 -20 -13 -51
-28 -69 -33 -17 -5 -31 -14 -30 -20 3 -13 -51 -32 -92 -32 -21 0 -35 -6 -39
-16 -5 -13 -2 -15 14 -11 11 3 18 1 14 -4 -3 -5 -16 -9 -30 -9 -36 0 -71 -20
-54 -30 9 -6 2 -11 -23 -15 -35 -7 -74 -35 -48 -35 28 0 -1 -17 -31 -18 -20 0
-39 -9 -49 -21 -9 -11 -29 -23 -45 -27 -16 -4 -43 -17 -59 -29 -17 -12 -45
-26 -64 -30 -20 -4 -35 -14 -38 -26 -3 -10 -9 -16 -14 -13 -13 7 -51 -15 -44
-27 14 -22 145 4 220 45 17 9 35 16 41 16 6 0 59 25 117 55 105 55 129 62 85
24 -13 -10 -18 -18 -12 -19 6 0 23 11 38 25 15 14 30 25 34 25 4 0 14 8 23 18
8 9 30 28 49 42 19 14 59 45 89 70 31 25 83 66 116 92 88 67 208 188 335 338
30 36 59 70 65 76 5 6 26 30 45 53 19 24 44 52 55 64 11 13 42 49 70 82 27 33
52 62 55 65 16 14 142 182 171 230 72 114 150 294 120 276 -6 -4 -11 -14 -11
-23 0 -23 -95 -208 -143 -278 -61 -90 -197 -252 -228 -271 -12 -7 21 54 46 86
7 8 15 23 18 33 4 9 11 17 17 17 6 0 8 5 4 11 -3 6 -3 14 2 18 12 8 30 37 55
86 11 22 29 56 41 75 24 40 218 425 218 433 0 3 19 45 42 94 23 48 40 89 37
89 -2 1 5 11 15 23 11 12 16 21 13 21 -4 0 9 24 28 54 19 29 31 56 28 60 -3 3
2 8 11 12 9 3 16 10 16 15 0 17 43 68 52 63 4 -3 6 -9 3 -14 -3 -5 -1 -11 5
-15 5 -3 -11 -37 -40 -79 -72 -106 -180 -333 -180 -379 0 -20 16 7 35 58 23
64 44 116 56 135 5 8 12 22 15 30 41 100 90 165 118 154 14 -5 15 -9 4 -16
-10 -7 -9 -11 6 -19 15 -9 16 -13 5 -20 -12 -8 -11 -11 3 -19 9 -6 15 -17 12
-25 -4 -8 -1 -15 5 -15 6 0 8 -7 5 -15 -4 -9 1 -18 11 -21 9 -4 14 -13 11 -21
-3 -7 1 -16 9 -19 7 -3 11 -12 8 -20 -3 -8 0 -14 6 -14 6 0 11 -9 11 -19 0
-10 7 -21 15 -25 8 -3 15 -12 15 -21 0 -8 7 -15 15 -15 8 0 15 -6 15 -14 0 -8
7 -16 15 -20 8 -3 15 -12 15 -20 0 -7 9 -16 21 -19 12 -3 18 -10 14 -17 -4 -7
1 -14 13 -17 11 -2 22 -13 25 -24 3 -11 14 -19 26 -19 14 0 19 -5 15 -15 -4
-9 0 -15 10 -15 8 0 20 -9 26 -19 5 -11 23 -22 40 -26 16 -4 28 -12 27 -18 -1
-6 6 -13 16 -15 10 -2 41 -19 70 -38 28 -19 57 -34 64 -34 6 0 18 -6 25 -13 7
-8 30 -20 51 -26 26 -9 37 -18 37 -32 0 -10 -4 -19 -9 -19 -4 0 -26 -14 -47
-30 -82 -65 -94 -73 -144 -98 -19 -9 -38 -22 -43 -29 -4 -6 -21 -14 -37 -18
-17 -4 -36 -12 -43 -18 -6 -7 -43 -28 -82 -47 -38 -19 -72 -37 -75 -41 -3 -4
-21 -14 -40 -23 -19 -9 -53 -27 -75 -40 -65 -40 -146 -79 -200 -97 -37 -12
-45 -18 -30 -22 13 -3 8 -5 -14 -6 -28 -1 -32 -4 -28 -20 3 -14 -3 -23 -24
-31 -16 -7 -27 -16 -24 -20 3 -5 -8 -11 -24 -15 -17 -3 -40 -14 -53 -24 -13
-10 -40 -24 -60 -30 -21 -7 -38 -16 -38 -21 0 -4 -13 -13 -30 -19 -16 -5 -30
-16 -30 -24 0 -8 -12 -18 -26 -21 -17 -5 -24 -12 -20 -22 4 -9 -3 -18 -20 -24
-14 -6 -23 -14 -19 -19 3 -6 -3 -15 -14 -21 -11 -6 -18 -16 -15 -24 3 -7 -2
-16 -11 -20 -10 -3 -15 -12 -11 -21 3 -9 -3 -19 -14 -25 -11 -6 -17 -16 -14
-25 5 -11 -3 -17 -25 -21 -17 -4 -28 -10 -26 -15 3 -4 12 -6 19 -3 8 3 17 1
21 -5 4 -7 -5 -11 -25 -11 -20 0 -32 -6 -36 -17 -3 -10 -10 -26 -15 -35 -5
-11 -5 -19 2 -23 6 -4 3 -12 -8 -21 -14 -11 -15 -15 -5 -22 11 -7 10 -11 -3
-16 -11 -4 -15 -12 -11 -23 4 -9 1 -20 -6 -24 -9 -6 -9 -11 0 -22 10 -12 9
-16 -4 -21 -12 -5 -14 -9 -5 -20 9 -10 8 -15 -4 -20 -11 -4 -14 -13 -10 -25 3
-11 1 -22 -5 -26 -8 -5 -8 -10 0 -20 8 -9 6 -14 -6 -19 -9 -3 -14 -13 -11 -20
3 -8 -1 -20 -8 -26 -8 -7 -13 -16 -10 -20 5 -9 -22 -67 -35 -75 -5 -3 -7 -12
-4 -19 3 -7 -2 -16 -10 -19 -9 -4 -16 -15 -16 -26 0 -10 -7 -21 -15 -25 -8 -3
-15 -12 -15 -20 0 -8 -8 -20 -17 -26 -13 -8 -14 -13 -5 -16 17 -8 15 -24 -4
-24 -10 0 -14 -5 -10 -15 3 -8 1 -26 -4 -39 l-9 -24 54 17 c37 11 70 31 104
63 28 26 51 51 51 55 0 3 6 14 14 22 25 28 84 153 79 168 -3 7 -1 13 5 13 5 0
13 15 17 33 4 17 9 39 12 47 2 8 5 22 7 30 1 8 5 22 9 30 3 8 11 33 16 56 11
40 75 134 92 134 5 0 9 5 9 11 0 6 -15 0 -34 -15 -38 -29 -39 -22 -8 48 12 27
22 50 22 53 0 11 93 143 101 143 5 0 9 6 9 13 0 8 11 19 25 25 14 6 25 15 25
20 0 11 94 72 112 72 7 0 22 6 33 13 11 8 47 23 80 34 33 12 77 28 97 37 32
14 37 14 32 1 -4 -8 -10 -15 -14 -15 -4 0 -18 -10 -32 -22 -14 -13 -52 -42
-84 -65 -68 -49 -193 -163 -152 -139 15 9 37 26 50 38 22 22 50 45 133 107 22
17 49 38 61 48 11 10 40 28 63 41 23 13 50 30 59 37 53 44 219 160 367 257 79
52 141 103 220 184 61 61 124 118 140 125 25 12 30 21 33 57 2 25 -1 42 -7 42
-6 0 -11 7 -11 15 0 8 -4 15 -10 15 -19 0 -25 3 -35 16 -15 20 -57 32 -80 24
l-20 -7 20 -6 c11 -3 33 -8 48 -11 15 -4 25 -11 22 -16 -3 -5 4 -12 16 -15 12
-4 18 -12 15 -21 -3 -7 0 -16 6 -20 7 -5 5 -12 -7 -20 -16 -12 -21 -11 -37 3
-10 9 -21 14 -24 10 -3 -3 -21 1 -39 9 -19 8 -57 14 -85 14 -36 0 -50 4 -50
14 0 8 -11 17 -25 20 -14 4 -25 13 -25 20 0 8 -5 16 -12 18 -6 2 -12 14 -13
26 -1 18 4 22 27 22 15 0 28 -4 28 -10 0 -13 56 -22 115 -18 l50 3 -107 53
c-59 30 -112 60 -119 68 -6 8 -16 14 -21 14 -16 0 -112 79 -124 102 -6 12 -9
29 -6 40 2 10 -1 18 -7 18 -6 0 -11 -10 -11 -22 0 -21 -3 -20 -35 14 -19 20
-35 39 -35 41 0 3 -16 21 -35 42 -28 31 -64 90 -70 115 -1 3 -5 12 -8 20 -4 8
-8 26 -9 40 -3 24 -1 25 42 22 33 -2 41 0 30 8 -8 5 -31 10 -51 10 -36 0 -36
0 -43 53 -12 100 -8 134 18 162 30 33 36 63 18 93 -14 22 -56 29 -91 15z"/>
<path d="M6898 10463 c7 -3 16 -2 19 1 4 3 -2 6 -13 5 -11 0 -14 -3 -6 -6z"/>
<path d="M6870 10430 c0 -14 15 -19 29 -11 9 6 7 10 -8 14 -12 3 -21 1 -21 -3z"/>
<path d="M3893 10403 c-13 -2 -23 -9 -23 -14 0 -13 13 -11 36 6 10 8 17 14 14
13 -3 0 -15 -3 -27 -5z"/>
<path d="M6855 10400 c3 -5 -3 -10 -14 -10 -12 0 -21 -4 -21 -10 0 -11 30 -13
54 -4 13 5 14 9 5 20 -13 16 -33 19 -24 4z"/>
<path d="M3784 10364 c-18 -14 -18 -14 6 -3 31 14 36 19 24 19 -6 0 -19 -7
-30 -16z"/>
<path d="M7141 10236 c1 -29 -1 -58 -5 -64 -3 -6 -2 -13 3 -16 13 -8 42 4 35
15 -3 5 1 12 9 15 19 7 17 55 -3 71 -8 7 -10 13 -5 13 11 0 -15 20 -27 20 -5
0 -7 -24 -7 -54z"/>
<path d="M6670 10270 c-8 -5 -10 -10 -5 -10 6 0 17 5 25 10 8 5 11 10 5 10 -5
0 -17 -5 -25 -10z"/>
<path d="M7140 10014 c0 -4 8 -13 18 -20 16 -13 16 -13 0 -14 -20 0 -24 -15
-7 -26 8 -4 7 -9 -2 -16 -11 -8 -11 -11 -1 -15 10 -4 10 -8 1 -20 -10 -11 -10
-16 0 -23 11 -6 11 -9 1 -15 -10 -6 -9 -11 5 -22 11 -7 14 -13 7 -13 -14 0
-11 -62 3 -72 6 -5 5 -8 -2 -8 -7 0 -13 -7 -13 -15 0 -8 5 -15 11 -15 8 0 8
-4 0 -14 -15 -17 -2 -27 27 -20 11 4 18 12 16 19 -3 7 5 15 21 19 18 5 25 12
21 22 -3 8 1 17 9 21 12 4 13 9 5 18 -8 10 -8 15 0 20 8 5 8 10 0 20 -8 10 -8
15 0 20 8 5 6 11 -6 19 -9 7 -14 18 -11 23 4 6 0 13 -8 17 -8 3 -15 12 -15 20
0 7 -7 16 -15 20 -8 3 -12 12 -9 21 3 8 1 15 -6 15 -7 0 -9 8 -5 20 5 16 2 20
-19 20 -14 0 -26 -3 -26 -6z"/>
<path d="M7310 9900 c0 -5 5 -10 10 -10 6 0 10 5 10 10 0 6 -4 10 -10 10 -5 0
-10 -4 -10 -10z"/>
<path d="M3660 9863 c0 -7 9 -27 20 -45 26 -43 26 -29 0 19 -11 21 -20 32 -20
26z"/>
<path d="M7315 9770 c4 -14 2 -20 -9 -20 -8 0 -20 -9 -26 -19 -5 -11 -19 -22
-30 -26 -11 -3 -19 -11 -17 -18 1 -6 -18 -17 -43 -23 -42 -11 -45 -14 -21 -18
20 -3 23 -16 3 -16 -25 0 -40 -19 -22 -30 8 -5 7 -9 -5 -14 -14 -5 -15 -9 -5
-21 10 -12 9 -16 -5 -21 -17 -7 -17 -8 -1 -19 15 -12 15 -13 0 -19 -13 -5 -14
-9 -4 -21 10 -12 10 -15 0 -15 -7 0 -10 -8 -7 -20 3 -11 1 -23 -5 -26 -5 -3
-7 -12 -4 -19 2 -7 -2 -16 -10 -19 -8 -3 -14 -13 -14 -22 0 -9 -8 -23 -17 -31
-16 -13 -16 -14 -1 -10 22 7 30 -3 16 -20 -6 -7 -9 -16 -6 -18 9 -10 38 7 38
21 0 8 7 14 14 14 8 0 27 11 42 25 15 14 31 25 37 25 5 0 7 7 3 15 -3 8 -1 15
4 15 13 0 40 59 33 76 -4 10 2 14 21 14 25 0 36 -15 16 -22 -6 -2 -11 -20 -12
-41 -1 -21 -5 -40 -10 -43 -4 -3 -6 -9 -3 -14 3 -4 -2 -13 -10 -20 -8 -7 -15
-17 -15 -22 0 -14 -59 -68 -75 -68 -9 0 -12 -6 -8 -16 4 -10 -1 -17 -16 -21
-23 -6 -28 -19 -8 -26 7 -3 0 -9 -15 -15 -19 -8 -26 -16 -22 -27 4 -9 -1 -17
-11 -21 -13 -5 -14 -8 -3 -15 10 -6 9 -11 -6 -22 -11 -8 -16 -19 -12 -25 3 -6
-3 -14 -15 -17 -11 -4 -18 -13 -16 -20 3 -7 -6 -18 -19 -24 -14 -6 -22 -16
-19 -22 4 -5 -7 -15 -24 -22 -17 -6 -31 -17 -31 -23 0 -18 -25 -24 -88 -23
l-57 1 44 15 c44 16 44 16 20 29 l-24 13 27 1 c43 0 60 10 47 26 -9 11 -8 14
2 14 8 0 21 5 29 10 13 9 13 11 0 20 -13 8 -13 10 1 10 9 0 22 7 29 15 10 13
9 15 -8 15 -13 0 -47 -26 -84 -63 -35 -35 -76 -69 -93 -76 -28 -12 -28 -14
-10 -22 17 -6 15 -8 -10 -9 -30 -1 -92 -29 -66 -30 9 0 11 -3 5 -9 -31 -28
-488 -42 -498 -15 -3 8 -19 14 -38 14 -21 0 -40 7 -51 20 -9 11 -29 20 -46 20
-20 0 -30 6 -34 20 -3 11 -14 20 -25 20 -11 0 -22 9 -25 20 -4 16 -14 20 -46
20 -23 0 -41 5 -41 11 0 6 9 8 20 4 14 -5 20 -2 20 9 0 12 -10 16 -37 17 -34
0 -36 1 -15 10 13 5 27 7 32 4 4 -3 10 2 14 10 4 10 -1 15 -14 15 -26 0 -26
16 0 23 25 6 26 27 3 28 -10 0 -3 5 16 12 40 14 55 38 19 31 -20 -5 -21 -4 -6
6 10 6 24 10 30 9 15 -3 101 22 108 31 11 15 131 30 232 30 104 0 110 1 133
26 24 26 28 75 6 82 -6 2 -9 7 -6 12 8 13 -21 31 -51 31 -35 0 -284 -18 -338
-25 -21 -3 -46 -12 -55 -20 -9 -8 -35 -19 -58 -25 -24 -7 -43 -16 -43 -21 0
-5 -16 -14 -35 -21 -19 -7 -35 -19 -35 -27 0 -8 -9 -16 -20 -19 -10 -3 -22
-13 -25 -23 -3 -10 -12 -21 -20 -24 -8 -3 -15 -12 -15 -19 0 -8 -7 -20 -15
-27 -8 -7 -13 -16 -10 -20 3 -5 0 -10 -6 -12 -6 -2 -12 -36 -13 -77 -3 -66 -1
-74 16 -79 14 -3 16 -7 8 -12 -16 -10 -4 -30 16 -30 8 0 12 -5 9 -10 -9 -14
14 -42 28 -33 6 3 7 1 3 -6 -18 -28 169 -164 213 -156 21 4 22 4 6 -3 -17 -8
-14 -12 29 -30 65 -29 205 -62 296 -69 87 -6 320 12 400 31 30 8 69 21 85 30
17 9 37 16 45 16 8 0 33 14 54 30 22 17 43 30 48 30 18 0 75 57 161 160 38 45
128 207 133 240 3 20 10 42 17 60 15 38 40 149 42 191 1 25 4 50 7 55 3 5 6
39 7 77 2 48 -2 67 -10 67 -7 0 -5 6 6 13 12 9 14 16 7 21 -6 4 -9 13 -6 20 3
8 0 17 -6 21 -9 6 -9 10 1 16 12 8 11 11 -1 19 -10 6 -11 13 -5 18 17 12 15
62 -2 62 -10 0 -12 -6 -8 -20z m-10 -170 c-3 -5 -13 -10 -21 -10 -8 0 -12 5
-9 10 3 6 13 10 21 10 8 0 12 -4 9 -10z m-5 -39 c0 -5 -6 -12 -12 -15 -10 -5
-10 -7 0 -12 21 -10 13 -24 -14 -24 -22 0 -24 3 -15 14 6 8 11 18 10 22 -3 18
1 24 16 24 8 0 15 -4 15 -9z m-1260 -335 c0 -2 -11 -6 -25 -8 -13 -3 -22 -1
-19 3 5 9 44 13 44 5z m-67 -263 c-7 -2 -19 -2 -25 0 -7 3 -2 5 12 5 14 0 19
-2 13 -5z m35 -40 c-10 -2 -28 -2 -40 0 -13 2 -5 4 17 4 22 1 32 -1 23 -4z
m50 -40 c-10 -2 -28 -2 -40 0 -13 2 -5 4 17 4 22 1 32 -1 23 -4z m760 0 c-10
-2 -26 -2 -35 0 -10 3 -2 5 17 5 19 0 27 -2 18 -5z m-632 -36 c4 -4 -19 -6
-52 -6 -48 1 -53 3 -29 9 34 9 71 7 81 -3z m354 -17 c0 -5 -4 -10 -10 -10 -5
0 -10 5 -10 10 0 6 5 10 10 10 6 0 10 -4 10 -10z m78 3 c-10 -2 -28 -2 -40 0
-13 2 -5 4 17 4 22 1 32 -1 23 -4z m85 0 c-13 -2 -33 -2 -45 0 -13 2 -3 4 22
4 25 0 35 -2 23 -4z m-299 -12 c3 -4 -21 -7 -52 -8 -34 -1 -49 1 -38 6 24 9
85 11 90 2z m43 3 c-3 -3 -12 -4 -19 -1 -8 3 -5 6 6 6 11 1 17 -2 13 -5z m50
0 c-3 -3 -12 -4 -19 -1 -8 3 -5 6 6 6 11 1 17 -2 13 -5z m-237 -14 c-14 -4
-41 -8 -60 -8 l-35 0 30 8 c17 4 44 8 60 8 29 0 29 0 5 -8z m315 -20 c3 -5 1
-10 -4 -10 -6 0 -11 5 -11 10 0 6 2 10 4 10 3 0 8 -4 11 -10z m52 4 c-3 -3
-12 -4 -19 -1 -8 3 -5 6 6 6 11 1 17 -2 13 -5z m-130 -10 c-3 -3 -12 -4 -19
-1 -8 3 -5 6 6 6 11 1 17 -2 13 -5z"/>
<path d="M8015 9770 c-3 -5 -1 -10 4 -10 6 0 11 5 11 10 0 6 -2 10 -4 10 -3 0
-8 -4 -11 -10z"/>
<path d="M5126 9733 c-6 -14 -5 -15 5 -6 7 7 10 15 7 18 -3 3 -9 -2 -12 -12z"/>
<path d="M7996 9714 c-10 -37 -2 -39 11 -4 6 17 8 30 3 30 -4 0 -11 -12 -14
-26z"/>
<path d="M4863 9602 c-20 -3 -22 -9 -21 -53 0 -27 5 -52 10 -55 6 -4 5 -10 -3
-14 -10 -7 -10 -12 -1 -23 7 -7 9 -17 6 -20 -4 -3 -7 -60 -9 -125 -1 -65 -5
-123 -8 -129 -9 -14 2 -23 19 -16 8 3 22 2 31 -1 15 -6 15 -8 3 -16 -8 -6 -25
-10 -37 -10 -13 0 -23 -4 -23 -8 0 -5 42 -8 93 -6 50 2 85 1 77 -2 -8 -3 -22
-8 -30 -11 -8 -3 -41 -7 -73 -8 -59 -3 -89 -16 -68 -30 8 -4 6 -12 -5 -23 -15
-15 -15 -16 2 -23 16 -6 16 -8 2 -8 -14 -1 -29 -53 -33 -116 0 -5 -4 -15 -8
-22 -4 -6 -5 -18 -1 -26 3 -8 -1 -17 -9 -20 -8 -3 -18 -24 -22 -46 -4 -23 -11
-41 -16 -41 -14 0 -11 -30 4 -31 6 0 2 -4 -10 -9 -13 -5 -23 -18 -23 -29 0
-11 -5 -23 -11 -26 -6 -4 -8 -13 -5 -21 3 -8 -1 -14 -9 -14 -14 0 -19 -11 -16
-36 1 -7 -5 -14 -14 -18 -28 -10 -15 -26 23 -28 37 -1 37 -1 -8 -7 -34 -5 -46
-11 -49 -26 -2 -11 -9 -24 -17 -28 -8 -4 -14 -14 -14 -21 0 -8 -7 -19 -15 -26
-11 -9 -12 -16 -5 -25 8 -10 6 -15 -9 -20 -12 -3 -21 -12 -21 -20 0 -7 -7 -21
-16 -29 -8 -9 -13 -20 -10 -25 3 -5 -1 -14 -10 -21 -8 -7 -13 -19 -10 -26 3
-7 1 -16 -4 -19 -12 -8 -1 -35 15 -35 17 0 48 37 41 48 -3 6 1 13 10 16 9 4
14 13 10 22 -3 8 -2 12 4 9 5 -3 15 7 22 22 7 15 21 34 30 41 10 7 18 19 18
25 0 7 14 27 30 45 16 19 32 42 35 53 4 10 11 19 16 19 5 0 9 9 9 19 0 10 6
21 14 24 8 3 21 19 29 36 l15 31 -34 0 c-22 0 -33 4 -29 10 4 6 12 10 18 9 36
-4 66 3 71 17 6 15 0 16 -39 11 -25 -4 -45 -3 -45 3 0 12 34 22 62 16 25 -4
101 23 82 30 -6 3 -31 0 -55 -5 -27 -6 -48 -6 -53 -1 -15 15 45 32 85 26 25
-4 40 -1 48 8 10 12 6 13 -26 10 -21 -2 -51 -1 -68 3 -29 6 -28 7 20 19 28 8
65 14 83 14 17 0 32 3 32 8 0 4 -17 6 -39 4 -56 -6 -61 15 -6 24 65 9 66 24 1
24 -31 0 -56 5 -56 10 0 6 15 10 34 10 56 0 126 12 126 22 0 5 -23 7 -52 3
-29 -3 -62 -7 -72 -8 -10 -1 -21 4 -23 11 -5 13 24 17 88 13 41 -2 93 15 84
29 -3 5 -12 7 -20 3 -8 -3 -15 0 -15 6 0 6 11 11 24 11 26 0 47 21 28 28 -19
6 -14 22 8 22 11 0 20 5 20 10 0 6 -9 10 -20 10 -11 0 -20 5 -20 10 0 6 9 10
19 10 11 0 23 5 26 10 4 6 -5 10 -19 10 -35 0 -33 18 2 22 36 4 35 21 -3 29
-27 6 -28 7 -5 8 14 1 31 5 39 10 22 14 -4 22 -56 15 -69 -8 -102 -8 -110 0
-13 13 21 26 70 26 27 0 46 4 43 8 -3 5 -30 7 -61 4 -37 -3 -55 -1 -55 7 0 6
6 12 13 13 34 4 76 7 114 8 39 1 75 20 39 20 -21 0 -20 16 2 25 15 6 14 8 -8
18 -21 8 -22 11 -7 14 20 5 23 22 5 24 -7 1 -32 1 -55 -1 -57 -3 -55 17 2 26
25 3 45 10 45 14 0 4 -11 5 -25 2 -18 -3 -25 0 -25 12 0 9 8 16 17 16 15 0 14
2 -3 15 -19 14 -19 15 3 21 17 5 20 10 13 23 -5 9 -11 24 -14 33 -4 14 -10 15
-38 7 -41 -11 -98 -12 -98 0 0 5 30 12 66 16 36 4 63 10 59 13 -7 7 -12 8 -57
10 -38 3 -35 22 3 22 19 0 28 4 23 11 -3 6 -17 8 -31 4 -32 -8 -117 5 -106 16
4 4 39 9 76 10 37 1 70 6 73 10 4 8 -92 8 -143 1z m122 -142 c3 -6 -4 -14 -16
-19 -22 -8 -22 -8 5 -15 16 -4 26 -10 23 -13 -9 -8 -91 -22 -100 -16 -13 8 13
32 29 26 8 -3 14 -1 14 5 0 5 -9 12 -21 15 -12 3 -18 10 -14 16 8 14 72 14 80
1z m-17 -88 c2 -8 -10 -12 -37 -12 -46 0 -56 16 -13 23 36 5 45 3 50 -11z
m-40 -44 c-3 -7 -10 -13 -16 -12 -59 5 -58 5 -37 14 30 13 57 12 53 -2z m85
-39 c-13 -13 -108 -20 -134 -10 -23 8 -22 9 13 16 20 4 41 4 46 1 6 -3 21 -2
34 3 26 9 54 3 41 -10z m-23 -39 c13 -9 13 -10 0 -11 -79 -9 -106 -6 -95 11 8
13 75 13 95 0z m-35 -175 c-1 -13 -95 -19 -95 -6 0 5 6 12 13 15 20 8 82 2 82
-9z m-34 -49 c-6 -7 -22 -11 -36 -8 -33 6 -21 22 17 22 25 0 28 -3 19 -14z
m96 8 c-3 -3 -12 -4 -19 -1 -8 3 -5 6 6 6 11 1 17 -2 13 -5z m-53 -43 c6 -10
-52 -21 -71 -14 -7 3 -13 9 -13 14 0 12 77 12 84 0z m-9 -40 c16 -7 10 -10
-27 -16 -50 -8 -81 1 -57 16 17 11 57 10 84 0z m-235 -365 c0 -9 -30 -14 -35
-6 -4 6 3 10 14 10 12 0 21 -2 21 -4z m-60 -96 c0 -5 -7 -10 -15 -10 -8 0 -15
5 -15 10 0 6 7 10 15 10 8 0 15 -4 15 -10z"/>
<path d="M7047 9296 c-4 -10 -1 -13 9 -9 7 3 14 9 14 14 0 14 -17 10 -23 -5z"/>
<path d="M7026 9253 c-6 -14 -5 -15 5 -6 7 7 10 15 7 18 -3 3 -9 -2 -12 -12z"/>
<path d="M5050 9190 c0 -5 11 -10 25 -10 14 0 25 5 25 10 0 6 -11 10 -25 10
-14 0 -25 -4 -25 -10z"/>
<path d="M6972 9168 c-7 -7 -12 -16 -12 -21 0 -5 7 -1 16 8 9 9 14 18 12 20
-2 3 -10 -1 -16 -7z"/>
<path d="M6957 9118 c6 -11 31 -10 37 1 3 5 -5 8 -18 7 -13 0 -22 -4 -19 -8z"/>
<path d="M9270 9059 c-30 -5 -72 -16 -93 -24 -20 -8 -50 -15 -65 -15 -15 -1
-45 -8 -67 -16 -22 -8 -65 -22 -95 -30 -30 -8 -63 -19 -73 -25 -10 -5 -57 -14
-105 -20 -126 -14 -192 -30 -167 -40 15 -6 12 -8 -16 -8 -44 -1 -101 -20 -94
-32 3 -4 -13 -13 -35 -19 -23 -6 -44 -18 -47 -26 -3 -7 -11 -14 -19 -14 -7 0
-25 -11 -40 -25 -14 -13 -35 -27 -45 -30 -11 -4 -17 -11 -14 -16 4 -5 -2 -12
-12 -16 -20 -8 -73 -61 -73 -74 0 -4 -9 -13 -20 -19 -11 -6 -18 -15 -15 -20 3
-6 -5 -15 -19 -21 -14 -7 -23 -16 -20 -20 2 -5 -4 -14 -16 -21 -11 -7 -20 -21
-20 -30 0 -10 -4 -18 -10 -18 -5 0 -10 -9 -10 -19 0 -10 -7 -22 -16 -25 -9 -4
-14 -13 -10 -21 3 -9 -1 -18 -9 -21 -21 -8 -19 -24 3 -24 9 -1 2 -8 -18 -17
-19 -8 -29 -17 -22 -20 17 -6 15 -23 -2 -23 -21 0 -31 -21 -15 -31 11 -7 9
-10 -8 -15 -24 -7 -32 -24 -11 -24 7 0 2 -7 -11 -16 -17 -12 -20 -19 -11 -24
9 -6 6 -11 -9 -20 -13 -7 -20 -18 -17 -26 3 -7 -3 -18 -14 -24 -11 -6 -20 -17
-20 -26 0 -8 -7 -17 -16 -21 -8 -3 -13 -11 -11 -18 3 -6 -4 -17 -15 -24 -11
-7 -17 -19 -14 -27 3 -8 1 -14 -5 -14 -5 0 -14 -11 -19 -25 -5 -14 -15 -25
-21 -25 -6 0 -9 -7 -5 -15 3 -9 -3 -19 -14 -25 -11 -6 -20 -17 -20 -25 0 -8
-9 -20 -19 -27 -10 -6 -17 -17 -14 -24 2 -7 -5 -18 -17 -24 -11 -6 -18 -15
-15 -20 3 -5 -3 -15 -15 -22 -11 -7 -20 -17 -20 -23 0 -5 -12 -20 -27 -32 -14
-13 -23 -23 -20 -23 4 0 -9 -16 -29 -35 -19 -19 -39 -35 -44 -35 -6 0 -10 -8
-10 -18 0 -11 -12 -22 -31 -29 -17 -7 -28 -17 -24 -22 3 -6 0 -11 -9 -11 -8 0
-28 -13 -44 -30 -17 -16 -35 -30 -41 -30 -6 0 -20 -9 -31 -20 -11 -11 -36 -26
-55 -35 -20 -8 -34 -18 -31 -23 3 -5 -20 -16 -50 -26 -30 -10 -57 -23 -60 -31
-3 -7 -25 -18 -48 -24 -23 -6 -54 -19 -68 -31 -14 -11 -38 -24 -53 -30 -18 -7
-25 -15 -21 -25 3 -9 0 -15 -9 -15 -8 0 -15 -7 -15 -15 0 -19 39 -12 85 15 17
10 46 21 65 25 19 4 62 20 95 35 33 15 78 33 100 40 22 7 47 18 55 25 8 7 34
19 58 26 23 7 47 18 53 25 9 11 5 11 -20 4 -17 -5 -33 -5 -36 0 -5 8 64 25 72
17 2 -3 17 -1 33 3 24 7 28 6 23 -7 -5 -13 0 -12 23 4 16 11 53 35 82 53 28
19 52 35 52 38 0 2 -12 2 -26 -1 -14 -2 -22 -1 -17 4 5 5 22 10 38 11 36 2 75
25 75 44 0 8 6 14 14 14 21 0 31 21 15 31 -11 7 -11 9 3 9 16 0 78 57 78 73 0
4 -8 7 -17 7 -15 0 -16 2 -3 10 9 6 17 5 22 -3 5 -8 15 -3 32 18 13 17 23 31
22 32 -1 2 -17 -1 -34 -7 -20 -5 -30 -5 -27 1 4 5 13 9 21 9 8 0 14 10 14 24
0 13 6 27 13 29 9 4 9 8 -2 15 -11 8 -10 12 8 21 11 7 21 18 21 25 0 8 7 16
15 20 8 3 20 17 25 31 5 14 14 25 20 25 5 0 10 4 10 10 0 10 54 87 85 123 8 9
12 17 8 17 -3 0 4 11 17 25 13 14 20 25 16 25 -14 0 145 203 201 255 114 108
127 119 191 160 9 6 24 17 35 27 10 9 28 19 40 22 22 5 22 5 2 -10 -11 -9 -27
-19 -35 -24 -8 -5 -12 -12 -8 -15 6 -7 57 24 86 52 7 7 17 13 22 13 5 0 15 6
22 13 34 32 124 82 207 114 76 29 144 49 361 104 213 54 234 63 270 112 l30
41 -43 28 c-36 24 -51 28 -107 27 -36 -1 -90 -5 -120 -10z m-697 -216 c-7 -2
-19 -2 -25 0 -7 3 -2 5 12 5 14 0 19 -2 13 -5z m-846 -1279 c-3 -3 -12 -4 -19
-1 -8 3 -5 6 6 6 11 1 17 -2 13 -5z m-128 -98 c-2 -2 -22 -6 -44 -9 -28 -5
-34 -4 -20 3 19 8 73 14 64 6z"/>
<path d="M7245 8849 c-4 -6 -5 -13 -2 -16 7 -7 27 6 27 18 0 12 -17 12 -25 -2z"/>
<path d="M7211 8807 c-6 -8 -8 -17 -5 -20 10 -9 45 13 39 24 -9 13 -21 11 -34
-4z"/>
<path d="M7170 8760 c-8 -5 -12 -12 -8 -15 8 -8 58 5 58 16 0 12 -31 11 -50
-1z"/>
<path d="M7133 8719 c-6 -6 -9 -18 -6 -25 3 -9 -2 -14 -15 -14 -20 0 -39 -16
-30 -25 9 -10 63 13 63 26 0 8 10 18 23 24 12 5 22 13 22 17 0 12 -45 9 -57
-3z"/>
<path d="M4124 8631 c20 -22 26 -25 26 -13 0 4 -10 13 -22 21 -23 14 -23 14
-4 -8z"/>
<path d="M7048 8633 c-21 -5 -24 -23 -4 -23 22 0 46 11 46 21 0 9 -13 10 -42
2z"/>
<path d="M7889 8583 c-13 -16 -48 -50 -77 -77 -30 -26 -52 -50 -50 -52 2 -1
37 28 78 66 41 39 78 70 83 70 4 0 7 5 7 10 0 17 -15 11 -41 -17z"/>
<path d="M4175 8580 c3 -5 8 -10 11 -10 2 0 4 5 4 10 0 6 -5 10 -11 10 -5 0
-7 -4 -4 -10z"/>
<path d="M6985 8580 c-8 -13 25 -13 45 0 12 8 9 10 -12 10 -15 0 -30 -4 -33
-10z"/>
<path d="M8505 8540 c-10 -11 -15 -20 -11 -20 14 0 46 21 46 30 0 16 -16 11
-35 -10z"/>
<path d="M6925 8530 c-3 -5 1 -10 9 -10 8 0 18 5 21 10 3 6 -1 10 -9 10 -8 0
-18 -4 -21 -10z"/>
<path d="M8434 8467 c-66 -68 -73 -87 -9 -25 33 32 57 59 55 62 -3 2 -23 -15
-46 -37z"/>
<path d="M6860 8480 c-18 -12 -2 -12 25 0 13 6 15 9 5 9 -8 0 -22 -4 -30 -9z"/>
<path d="M9530 8487 c-3 -3 -40 -7 -83 -11 -109 -9 -140 -16 -154 -34 -7 -9
-13 -11 -13 -4 0 8 -8 7 -27 -3 -16 -7 -48 -19 -73 -26 -36 -9 -41 -13 -25
-19 14 -5 9 -8 -24 -13 -24 -3 -56 -14 -70 -25 -14 -10 -43 -24 -63 -31 -21
-7 -38 -19 -38 -27 0 -9 -11 -14 -29 -14 -25 0 -67 -29 -45 -31 5 0 -9 -6 -31
-13 -22 -7 -39 -17 -38 -22 1 -6 -14 -16 -33 -23 -19 -7 -34 -18 -34 -25 0 -6
-16 -18 -35 -25 -19 -7 -33 -17 -29 -22 3 -5 -9 -14 -26 -20 -19 -7 -29 -16
-26 -24 3 -8 -7 -18 -25 -24 -16 -5 -29 -16 -29 -24 0 -8 -11 -18 -25 -21 -14
-4 -25 -13 -25 -20 0 -8 -11 -21 -25 -30 -14 -9 -23 -21 -20 -26 4 -6 1 -10
-5 -10 -12 0 -79 -67 -73 -73 2 -2 -12 -21 -32 -42 -19 -22 -35 -44 -35 -50 0
-5 -9 -16 -20 -23 -12 -7 -18 -17 -15 -22 3 -5 -4 -14 -15 -20 -11 -6 -20 -17
-20 -26 0 -8 -7 -17 -15 -20 -8 -4 -15 -12 -15 -20 0 -8 -9 -19 -20 -26 -11
-7 -20 -17 -20 -22 0 -9 -11 -23 -57 -70 -13 -13 -23 -27 -23 -32 0 -5 -9 -15
-21 -22 -12 -7 -18 -16 -15 -19 3 -4 -3 -12 -14 -20 -11 -8 -20 -20 -20 -28 0
-8 -6 -18 -14 -22 -8 -4 -16 -15 -18 -23 -2 -8 -11 -21 -20 -28 -10 -7 -18
-20 -18 -28 0 -8 -5 -14 -10 -14 -6 0 -15 -10 -21 -22 -20 -45 -38 -72 -53
-80 -9 -5 -14 -13 -11 -18 3 -5 -3 -15 -15 -22 -11 -7 -20 -20 -20 -28 0 -8
-9 -21 -20 -28 -12 -7 -18 -17 -15 -22 3 -5 -4 -14 -15 -20 -11 -6 -20 -16
-20 -23 0 -6 -9 -20 -20 -32 -58 -58 -110 -117 -110 -125 0 -5 -10 -15 -22
-21 -13 -7 -34 -23 -48 -36 -57 -54 -66 -61 -98 -77 -18 -9 -30 -21 -27 -26 3
-5 -4 -12 -16 -15 -15 -5 -18 -10 -10 -18 7 -7 23 -6 53 3 24 8 49 13 55 11
14 -2 36 12 168 111 88 65 256 229 365 357 30 35 63 72 73 83 9 10 17 20 17
23 0 6 255 334 297 383 16 17 41 50 57 72 17 22 33 40 38 40 4 0 8 4 8 9 0 24
226 226 296 265 57 32 99 58 104 65 3 3 56 32 117 64 76 39 122 57 140 55 16
-2 28 -7 29 -13 1 -11 11 -41 25 -70 13 -28 17 -95 7 -102 -5 -3 -7 -11 -4
-19 3 -7 1 -16 -5 -20 -6 -3 -8 -12 -5 -19 3 -8 -2 -19 -10 -25 -8 -7 -14 -18
-14 -25 0 -7 -7 -15 -15 -19 -8 -3 -12 -12 -9 -19 3 -8 -2 -17 -11 -21 -10 -3
-15 -13 -12 -20 3 -8 -1 -20 -9 -27 -8 -7 -13 -18 -10 -25 3 -7 -4 -16 -15
-19 -12 -4 -18 -13 -15 -21 3 -7 -3 -18 -12 -24 -13 -7 -14 -12 -4 -18 9 -6 6
-12 -13 -20 -21 -10 -25 -17 -20 -33 4 -13 3 -19 -2 -16 -6 4 -19 0 -29 -8
-11 -8 -14 -14 -6 -15 18 0 15 -20 -4 -20 -11 0 -15 -6 -11 -20 3 -12 -1 -24
-11 -30 -14 -8 -15 -11 -3 -19 11 -7 9 -11 -9 -21 -17 -9 -20 -14 -9 -20 10
-7 10 -11 0 -23 -8 -11 -9 -17 -1 -22 8 -5 7 -11 -1 -22 -10 -12 -10 -16 2
-24 12 -8 12 -10 -1 -18 -12 -9 -12 -11 3 -17 11 -4 16 -13 12 -24 -3 -11 0
-20 10 -23 8 -4 12 -13 9 -22 -5 -11 2 -15 27 -16 19 0 28 -3 22 -6 -23 -9
-14 -21 23 -33 39 -13 75 -8 98 16 21 21 20 52 -4 97 -32 59 -33 53 85 302
126 264 152 369 120 477 -9 32 -20 60 -25 63 -5 3 -15 19 -24 35 -14 28 -13
31 6 41 42 22 247 9 269 -17 6 -8 17 -14 24 -14 6 0 20 -9 30 -20 10 -11 24
-20 32 -20 7 0 12 -3 12 -7 -3 -21 2 -33 12 -27 7 4 9 0 5 -14 -4 -11 -2 -23
3 -26 6 -4 8 -13 5 -20 -3 -8 0 -17 6 -21 9 -6 9 -9 -1 -15 -10 -7 -10 -12 0
-23 8 -10 8 -16 1 -19 -6 -2 -12 -37 -14 -78 -2 -41 -6 -82 -9 -90 -8 -22 -6
-53 6 -67 6 -9 6 -13 -1 -13 -7 0 -10 -16 -9 -37 1 -21 -2 -43 -6 -50 -4 -6
-3 -15 3 -18 8 -5 7 -11 -1 -22 -10 -11 -10 -16 0 -23 7 -4 9 -10 4 -13 -10
-6 -10 -308 1 -325 3 -6 1 -14 -5 -18 -9 -5 -8 -10 2 -18 8 -6 15 -27 17 -46
1 -19 8 -37 14 -41 6 -4 8 -11 4 -17 -7 -12 22 -72 36 -72 5 0 8 -7 4 -15 -3
-8 -1 -15 4 -15 6 0 10 -9 10 -20 0 -11 6 -23 14 -26 8 -3 12 -12 9 -20 -3 -8
0 -14 6 -14 6 0 16 -12 21 -26 6 -14 14 -22 20 -19 5 3 10 -4 10 -15 0 -13 8
-24 20 -27 11 -3 20 -9 20 -14 0 -17 62 -40 98 -37 55 5 54 35 -7 153 -28 54
-51 104 -51 111 0 7 -8 28 -18 46 -35 62 -54 166 -56 308 -3 144 7 406 19 505
4 33 9 68 10 77 4 47 13 20 19 -62 4 -49 12 -90 18 -90 6 0 8 15 4 38 -3 20
-8 80 -11 132 -3 52 -8 123 -10 158 -2 34 -8 68 -12 75 -4 7 -8 18 -9 25 -3
20 -8 22 -24 11 -13 -8 -13 -10 0 -19 13 -8 13 -11 1 -19 -8 -5 -11 -16 -8
-25 5 -11 1 -16 -13 -16 -11 0 -20 7 -20 15 0 8 -4 15 -10 15 -5 0 -10 7 -10
15 0 14 -20 36 -78 84 -12 10 -40 21 -62 25 -22 3 -40 11 -40 18 0 14 -228 3
-338 -16 -40 -7 -74 -10 -77 -8 -12 12 30 32 91 43 38 6 81 18 96 25 32 16
188 19 188 4 0 -6 30 -10 69 -10 74 0 104 -7 95 -21 -3 -5 8 -12 25 -15 17 -4
31 -12 31 -19 0 -7 9 -15 20 -18 29 -7 25 5 -10 33 -17 14 -37 31 -45 38 -8 7
-29 18 -47 24 -18 6 -36 15 -39 20 -5 8 -201 22 -209 15z"/>
<path d="M6810 8440 c-13 -8 -13 -10 2 -10 9 0 20 5 23 10 8 13 -5 13 -25 0z"/>
<path d="M8312 8324 c-23 -31 -42 -61 -42 -67 0 -5 14 10 31 34 18 24 41 54
52 67 11 12 16 22 10 22 -5 0 -28 -25 -51 -56z"/>
<path d="M9895 8330 c-3 -5 3 -10 15 -10 12 0 18 5 15 10 -3 6 -10 10 -15 10
-5 0 -12 -4 -15 -10z"/>
<path d="M8240 8229 c0 -5 5 -7 10 -4 6 3 10 8 10 11 0 2 -4 4 -10 4 -5 0 -10
-5 -10 -11z"/>
<path d="M6685 8190 c-3 -6 1 -7 9 -4 18 7 21 14 7 14 -6 0 -13 -4 -16 -10z"/>
<path d="M8206 8174 c-4 -9 -4 -19 -1 -22 2 -3 7 3 11 12 4 9 4 19 1 22 -2 3
-7 -3 -11 -12z"/>
<path d="M2295 7979 c-118 -15 -246 -69 -301 -128 -40 -41 -74 -98 -95 -160
-17 -47 -21 -93 -25 -280 -7 -252 0 -292 74 -440 48 -96 169 -221 272 -281 41
-25 77 -47 80 -51 3 -3 12 -6 20 -7 8 0 52 -14 97 -30 71 -25 98 -29 208 -31
69 -1 132 1 138 6 7 5 29 15 51 22 110 38 236 206 236 316 0 19 5 35 11 35 6
0 9 6 6 14 -3 7 -1 31 4 52 5 22 12 73 14 114 9 136 17 189 32 213 4 6 8 18
10 26 1 7 15 31 32 52 17 21 31 40 31 43 0 4 66 70 94 94 8 6 20 12 26 12 5 0
10 4 10 8 0 15 74 32 134 32 66 0 188 -38 244 -76 40 -27 132 -112 132 -121 0
-3 15 -24 34 -47 18 -23 41 -54 50 -71 9 -16 21 -37 26 -45 9 -14 46 -95 72
-157 6 -15 10 -32 9 -37 -1 -5 1 -16 5 -25 13 -30 12 -72 -2 -78 -20 -7 -17
-20 5 -26 29 -7 50 44 46 118 -1 33 -3 60 -4 60 -2 0 -4 11 -5 25 -6 65 -19
110 -31 110 -8 0 -11 7 -8 19 3 10 0 22 -6 25 -6 4 -11 15 -11 26 0 10 -7 21
-16 24 -8 3 -12 10 -9 16 3 6 -7 31 -24 56 -17 25 -31 49 -31 55 0 5 -4 9 -10
9 -5 0 -10 7 -10 15 0 9 -7 18 -15 21 -8 3 -17 14 -20 25 -4 10 -13 19 -21 19
-8 0 -19 11 -24 25 -5 14 -16 25 -25 25 -8 0 -15 7 -15 15 0 8 -11 17 -25 21
-14 3 -25 12 -25 19 0 12 -37 28 -68 30 -7 0 -16 6 -21 13 -4 7 -25 15 -47 19
-21 3 -42 11 -46 17 -4 7 -51 12 -115 14 -59 1 -130 3 -156 4 -26 0 -53 -4
-59 -10 -7 -7 -18 -12 -25 -12 -27 0 -101 -42 -141 -81 -40 -38 -79 -103 -87
-144 -3 -11 -9 -42 -14 -70 -6 -27 -15 -117 -21 -200 -6 -82 -15 -154 -20
-159 -6 -6 -10 -20 -10 -31 0 -40 -60 -143 -109 -188 -27 -23 -84 -61 -127
-82 -72 -36 -86 -39 -159 -40 -77 0 -135 17 -171 50 -7 5 -24 19 -40 30 -15
11 -68 67 -117 125 -120 141 -117 138 -110 112 6 -23 -3 -27 -26 -13 -7 5 -11
13 -7 19 3 6 2 13 -3 16 -4 3 -9 26 -9 51 -1 25 -4 50 -7 55 -3 5 -1 11 4 14
4 3 7 25 6 48 -2 24 0 47 3 53 3 5 6 27 7 49 1 24 8 43 18 51 17 12 17 13 0
20 -15 6 -15 8 -3 13 22 8 37 26 33 39 -2 6 6 18 19 27 18 13 19 16 5 16 -9 0
-17 5 -17 10 0 6 8 10 18 10 23 0 42 19 36 35 -3 7 4 15 15 18 12 3 25 16 30
29 8 20 10 21 16 6 10 -25 24 -23 18 2 -4 16 0 20 20 20 14 0 28 4 31 9 5 8
48 9 144 2 12 0 22 -7 22 -14 0 -7 9 -18 20 -25 11 -6 17 -18 14 -26 -3 -8 5
-31 19 -53 13 -21 27 -48 31 -60 10 -30 30 -44 66 -45 48 -2 53 9 50 110 0 12
-5 22 -10 22 -6 0 -9 3 -8 8 3 12 -43 82 -55 82 -6 0 -8 3 -4 6 7 8 -24 44
-39 44 -7 0 -14 7 -18 15 -3 8 -11 15 -17 15 -7 0 -21 7 -31 16 -41 38 -293
21 -328 -21 -6 -8 -27 -19 -47 -26 -39 -12 -131 -102 -159 -155 -10 -19 -22
-34 -27 -34 -13 0 3 120 25 185 47 141 147 216 343 255 70 14 127 20 157 17
56 -7 65 9 11 17 -42 6 -72 5 -148 -5z m965 -269 c0 -5 -15 -12 -34 -15 -21
-4 -38 -16 -46 -30 -7 -13 -21 -26 -31 -28 -11 -3 -23 -16 -28 -29 -6 -12 -10
-19 -10 -14 -1 5 -10 1 -21 -9 -11 -10 -17 -21 -14 -26 2 -4 -5 -13 -16 -19
-11 -6 -20 -15 -20 -21 0 -5 -10 -24 -22 -42 -13 -18 -24 -34 -25 -36 -2 -2
-5 -2 -8 1 -8 7 35 119 52 136 7 7 13 18 13 23 0 16 70 72 119 96 48 24 91 30
91 13z m-348 -795 c-5 -5 -14 -28 -21 -50 -17 -50 -52 -105 -67 -105 -6 0 -19
-9 -28 -19 -27 -30 -216 -65 -216 -41 0 6 6 10 14 10 7 0 51 19 97 42 88 44
209 151 209 185 0 15 2 16 10 3 5 -8 6 -19 2 -25z m-732 -17 c0 -6 -7 -5 -15
2 -8 7 -15 17 -15 22 0 6 7 5 15 -2 8 -7 15 -17 15 -22z m35 -28 c10 -11 13
-20 7 -20 -6 0 -16 9 -22 20 -6 11 -9 20 -7 20 2 0 12 -9 22 -20z"/>
<path d="M8045 7930 c-3 -5 -1 -10 4 -10 6 0 11 5 11 10 0 6 -2 10 -4 10 -3 0
-8 -4 -11 -10z"/>
<path d="M7987 7863 c-4 -3 -7 -11 -7 -17 0 -6 5 -5 12 2 6 6 9 14 7 17 -3 3
-9 2 -12 -2z"/>
<path d="M9982 7770 c0 -14 2 -19 5 -12 2 6 2 18 0 25 -3 6 -5 1 -5 -13z"/>
<path d="M9991 7694 c0 -11 3 -14 6 -6 3 7 2 16 -1 19 -3 4 -6 -2 -5 -13z"/>
<path d="M9991 7654 c0 -11 3 -14 6 -6 3 7 2 16 -1 19 -3 4 -6 -2 -5 -13z"/>
<path d="M9994 7540 c0 -52 1 -74 3 -47 2 26 2 68 0 95 -2 26 -3 4 -3 -48z"/>
<path d="M9992 7415 c0 -16 2 -22 5 -12 2 9 2 23 0 30 -3 6 -5 -1 -5 -18z"/>
<path d="M7480 7389 c0 -5 5 -7 10 -4 6 3 10 8 10 11 0 2 -4 4 -10 4 -5 0 -10
-5 -10 -11z"/>
<path d="M9990 7319 c0 -5 5 -7 10 -4 6 3 10 8 10 11 0 2 -4 4 -10 4 -5 0 -10
-5 -10 -11z"/>
<path d="M10003 7265 c0 -22 2 -30 4 -17 2 12 2 30 0 40 -3 9 -5 -1 -4 -23z"/>
<path d="M5427 7163 c-4 -3 -7 -15 -7 -25 0 -10 -7 -18 -15 -18 -8 0 -15 -7
-15 -16 0 -11 5 -14 16 -10 12 4 14 1 9 -14 -5 -15 0 -21 22 -26 15 -4 35 -12
43 -19 8 -7 26 -16 40 -20 27 -8 118 -101 113 -115 -3 -7 8 -52 16 -65 9 -15
8 -115 -1 -115 -4 0 -8 -11 -8 -25 0 -14 -5 -25 -11 -25 -9 0 -8 48 4 130 0 3
-3 17 -6 33 -4 15 -9 38 -12 51 -5 23 -79 106 -96 106 -14 0 2 -29 31 -59 47
-46 61 -128 39 -233 -11 -59 -37 -144 -50 -170 -5 -10 -9 -27 -9 -38 0 -11 -4
-20 -10 -20 -5 0 -10 -9 -10 -20 0 -10 -9 -44 -21 -75 -12 -31 -19 -65 -16
-76 3 -10 1 -21 -4 -24 -5 -3 -7 -26 -6 -51 2 -25 -1 -48 -5 -50 -5 -3 -6 -10
-2 -15 3 -5 7 -30 10 -56 9 -90 66 -183 137 -219 27 -14 37 -34 17 -34 -6 0
-22 -11 -35 -25 -14 -13 -25 -22 -25 -19 0 14 -56 -27 -57 -43 -2 -30 -22 -73
-33 -73 -5 0 -10 -8 -10 -18 0 -10 -5 -23 -10 -28 -6 -6 -11 -28 -13 -50 -1
-21 -6 -45 -10 -51 -17 -27 23 -12 69 27 27 22 54 40 61 40 7 0 13 4 13 8 0 4
18 19 40 32 22 14 40 28 40 33 0 4 5 7 11 7 6 0 30 13 53 30 68 46 121 63 174
57 32 -4 53 -1 66 9 18 13 16 14 -27 14 -29 0 -47 4 -47 11 0 7 -8 18 -17 25
-14 10 -15 15 -6 25 10 10 18 10 37 -1 21 -11 28 -11 41 0 15 12 13 16 -10 38
-25 23 -31 24 -93 17 -113 -13 -184 -8 -202 13 -8 11 -23 22 -34 26 -10 3 -16
12 -13 20 3 8 -2 16 -15 19 -11 3 -17 10 -13 17 4 6 1 17 -5 25 -10 12 -10 18
-1 29 8 10 8 15 1 18 -14 4 -2 65 15 72 8 3 11 -2 8 -15 -3 -12 0 -19 8 -19
10 0 14 13 14 45 0 25 3 45 7 45 5 0 8 13 8 29 0 17 5 33 10 36 6 4 8 11 4 16
-3 5 0 17 7 25 10 13 10 17 0 23 -10 6 -9 9 2 14 8 3 30 36 48 74 18 37 42 78
53 91 11 12 16 22 13 22 -6 0 7 30 55 124 7 13 6 21 -2 26 -8 5 -7 10 2 18 22
18 10 212 -14 212 -5 0 -7 8 -3 19 3 10 -1 23 -9 30 -8 7 -12 19 -9 27 3 9 -2
14 -17 14 -16 0 -20 4 -16 15 10 26 -91 115 -131 115 -13 0 -26 7 -29 15 -5
11 -23 15 -73 15 -37 0 -71 -3 -74 -7z m308 -1333 c-16 -11 -36 -20 -42 -20
-7 0 -13 -7 -13 -15 0 -8 -11 -22 -25 -31 -14 -9 -25 -22 -25 -30 0 -7 -9 -18
-20 -24 -11 -6 -18 -15 -15 -20 8 -12 -35 -40 -62 -40 -28 0 -30 16 -3 30 11
6 20 17 20 24 0 8 11 21 25 30 14 9 25 23 25 31 0 8 11 17 25 21 14 3 25 12
25 19 0 14 63 44 95 44 16 1 15 -3 -10 -19z"/>
<path d="M5470 7006 c0 -2 7 -7 16 -10 8 -3 12 -2 9 4 -6 10 -25 14 -25 6z"/>
<path d="M4400 6954 c-19 -8 -43 -17 -52 -20 -10 -4 -20 -14 -23 -23 -3 -10
-21 -25 -40 -34 -19 -9 -35 -21 -35 -26 0 -5 -10 -13 -22 -17 -13 -3 -36 -15
-51 -26 -49 -35 -180 -95 -235 -108 -28 -6 -54 -16 -57 -21 -3 -5 -25 -13 -48
-19 -44 -12 -170 -56 -197 -70 -9 -4 -31 -11 -50 -15 -19 -4 -39 -11 -45 -15
-5 -3 -37 -17 -70 -30 -82 -33 -195 -89 -212 -106 -8 -8 -20 -14 -26 -14 -7 0
-32 -16 -57 -35 -25 -20 -61 -48 -80 -63 -79 -62 -199 -202 -220 -257 -5 -14
-14 -25 -20 -25 -5 0 -10 -6 -10 -14 0 -21 -40 -107 -48 -102 -4 2 -8 -10 -9
-28 -1 -17 -13 -56 -28 -86 -50 -106 -88 -175 -106 -196 -11 -11 -19 -24 -19
-27 0 -4 -39 -45 -86 -91 -54 -52 -84 -88 -79 -96 9 -14 53 -5 78 18 10 8 33
25 51 36 114 70 207 194 327 434 28 56 54 102 59 102 4 0 11 15 14 34 4 18 15
41 26 51 11 10 20 23 20 30 0 7 9 20 20 30 11 10 20 24 20 31 0 16 96 117 128
133 12 6 22 17 22 24 0 14 59 43 79 38 8 -1 12 3 8 12 -6 16 -8 16 123 46 47
10 89 17 93 14 4 -3 14 0 21 6 8 7 18 11 22 10 5 -2 27 2 49 9 109 30 182 46
205 44 14 -2 50 7 80 18 30 12 86 32 124 45 38 13 73 29 77 36 4 6 12 8 18 5
6 -4 11 -2 11 3 0 6 8 11 19 11 10 0 24 6 30 14 7 8 31 24 54 36 41 22 161
130 152 138 -2 2 5 12 17 22 17 13 21 29 23 83 1 37 0 66 -4 66 -3 -1 -22 -8
-41 -15z m-540 -439 c-7 -9 -15 -13 -17 -11 -7 7 7 26 19 26 6 0 6 -6 -2 -15z"/>
<path d="M8519 6875 c-26 -7 -73 -25 -105 -41 -64 -30 -194 -131 -194 -149 0
-7 -12 -17 -26 -23 -14 -7 -23 -16 -19 -21 3 -5 -8 -17 -24 -27 -16 -9 -27
-22 -25 -29 3 -6 -8 -17 -23 -24 -26 -13 -27 -14 -8 -21 18 -7 18 -8 -7 -15
-34 -9 -59 -35 -34 -35 10 0 14 -4 11 -10 -3 -5 -15 -10 -25 -10 -20 0 -64
-39 -55 -49 3 -2 12 4 19 15 11 14 18 16 26 8 8 -8 7 -14 -4 -23 -8 -7 -12
-19 -10 -26 3 -7 -4 -19 -16 -25 -16 -9 -19 -14 -10 -25 9 -10 6 -15 -9 -20
-26 -8 -27 -20 -3 -30 15 -6 15 -8 -4 -15 -23 -9 -38 -58 -23 -76 5 -6 4 -16
-4 -23 -9 -11 -9 -14 1 -18 6 -3 9 -10 5 -16 -11 -17 -10 -167 0 -167 5 0 7
-9 4 -20 -3 -11 -1 -23 5 -26 5 -3 7 -12 4 -19 -3 -8 2 -19 10 -25 8 -7 14
-19 14 -26 0 -8 5 -14 10 -14 6 0 15 -11 20 -25 5 -14 14 -25 20 -25 6 0 18
-6 26 -14 7 -8 19 -16 26 -18 10 -4 10 -8 1 -20 -11 -12 -3 -18 55 -36 123
-41 204 -24 265 55 29 38 36 90 15 111 -19 19 -67 14 -91 -9 -35 -33 -65 -41
-106 -28 -110 35 -158 172 -116 332 13 49 80 198 118 262 68 112 166 222 228
255 60 31 95 27 135 -17 19 -20 34 -45 34 -55 0 -10 5 -18 11 -18 6 0 8 -9 4
-20 -3 -11 -2 -20 3 -20 6 0 9 -18 8 -41 -1 -22 1 -42 6 -45 5 -3 6 -9 3 -14
-3 -4 -8 -48 -11 -97 -9 -127 -8 -127 -16 -138 -10 -15 2 -290 12 -290 1 0 4
-11 6 -25 7 -42 11 -54 24 -85 7 -16 12 -36 11 -43 -1 -7 5 -15 14 -18 10 -4
13 -13 10 -24 -4 -12 1 -22 11 -28 10 -6 15 -16 11 -26 -4 -9 -2 -16 3 -16 6
0 10 -4 10 -10 0 -5 18 -33 40 -62 22 -29 40 -57 40 -61 0 -4 -10 -12 -22 -17
-21 -9 -21 -10 -3 -9 40 2 55 -1 72 -19 26 -26 124 -88 153 -97 14 -4 30 -12
37 -17 7 -5 55 -12 107 -15 82 -5 105 -3 162 17 130 43 220 134 316 317 78
149 118 289 120 423 1 78 -19 190 -34 190 -4 0 -8 8 -8 18 -1 47 -101 139
-180 165 -86 28 -124 29 -160 4 -36 -24 -53 -51 -26 -41 21 8 126 -25 152 -48
11 -10 26 -18 32 -18 7 0 12 -6 12 -14 0 -8 7 -17 16 -20 9 -4 14 -13 10 -21
-3 -9 1 -18 9 -21 7 -3 11 -12 9 -19 -3 -7 0 -16 5 -20 6 -3 9 -11 5 -16 -3
-5 0 -16 6 -24 6 -8 9 -19 5 -25 -4 -6 -2 -17 5 -25 8 -9 8 -15 0 -20 -8 -5
-8 -10 0 -20 8 -10 8 -15 0 -20 -8 -5 -8 -11 1 -21 8 -9 8 -18 2 -26 -10 -12
-12 -27 -14 -70 0 -9 -7 -22 -15 -28 -7 -7 -11 -16 -8 -22 3 -5 0 -16 -7 -24
-10 -12 -10 -17 -1 -23 9 -5 5 -11 -13 -19 -14 -7 -22 -17 -19 -25 3 -8 -2
-20 -11 -27 -8 -7 -15 -19 -15 -27 0 -7 -7 -16 -16 -20 -8 -3 -13 -12 -10 -19
3 -8 -4 -19 -15 -25 -12 -6 -18 -17 -15 -24 3 -8 -4 -21 -16 -29 -13 -9 -17
-19 -12 -28 4 -7 4 -10 0 -6 -4 3 -17 -3 -28 -14 -15 -15 -17 -22 -9 -28 8 -4
1 -12 -18 -20 -17 -7 -31 -19 -31 -27 0 -7 -16 -23 -35 -34 -19 -12 -35 -24
-35 -28 0 -14 -76 -31 -134 -31 -31 0 -56 4 -56 9 0 16 -54 71 -70 71 -11 1
-10 5 7 19 21 18 21 18 -25 14 -46 -5 -48 -4 -84 44 -48 64 -81 131 -115 234
-24 74 -27 99 -26 209 1 127 4 171 13 180 15 14 35 69 36 100 1 19 4 42 8 50
12 31 14 109 2 114 -7 3 -6 8 4 15 8 5 11 13 8 16 -10 10 -28 -4 -28 -21 0 -8
-4 -14 -10 -14 -5 0 -7 6 -4 14 3 8 0 17 -5 21 -6 3 -9 10 -6 15 3 5 1 18 -5
29 -7 14 -7 22 1 26 6 5 4 11 -6 19 -9 6 -15 16 -14 21 3 14 -18 62 -31 70 -5
3 -8 11 -4 16 3 6 -3 13 -15 16 -23 6 -29 23 -8 23 6 1 -3 7 -20 15 -23 10
-31 19 -27 29 4 11 0 16 -10 16 -9 0 -16 6 -16 14 0 7 -14 16 -31 20 -39 8
-43 7 -100 -9z"/>
<path d="M4665 6819 c-4 -6 -5 -12 -2 -15 2 -3 7 2 10 11 7 17 1 20 -8 4z"/>
<path d="M4730 6789 c0 -5 -4 -8 -10 -4 -5 3 -19 0 -30 -7 -17 -11 -22 -11
-30 2 -9 13 -11 13 -20 0 -5 -8 -10 -20 -10 -26 0 -16 -67 -82 -90 -89 -10 -3
-22 -15 -25 -26 -4 -10 -10 -19 -15 -19 -16 0 -85 -81 -82 -97 2 -10 -2 -14
-11 -10 -13 5 -30 -15 -24 -28 1 -2 -8 -12 -20 -20 -13 -9 -23 -22 -23 -30 0
-8 -11 -31 -25 -51 -14 -20 -25 -44 -25 -52 0 -9 -6 -23 -13 -31 -8 -9 -24
-43 -37 -76 -13 -33 -27 -64 -32 -69 -4 -6 -8 -17 -8 -26 0 -10 -6 -30 -14
-46 -8 -16 -21 -51 -28 -79 -7 -27 -17 -53 -22 -56 -5 -4 -6 -14 -3 -23 4 -9
3 -16 -2 -16 -8 0 -22 -66 -22 -102 0 -10 -4 -18 -9 -18 -5 0 -9 -8 -9 -17 -4
-183 0 -216 28 -301 17 -48 41 -113 55 -144 14 -32 23 -58 20 -58 -4 0 1 -11
10 -25 21 -32 22 -149 1 -198 -21 -50 -45 -61 -119 -52 -33 3 -65 10 -71 15
-5 4 -28 13 -50 19 -47 13 -103 78 -164 193 l-38 73 2 134 c1 73 -1 148 -6
165 -8 37 -9 36 -15 -29 -3 -27 -9 -55 -15 -61 -7 -8 -6 -14 1 -19 7 -5 8 -11
1 -19 -6 -7 -7 -23 -4 -35 4 -18 2 -22 -8 -19 -17 6 -20 25 -20 151 0 53 -4
97 -10 97 -5 0 -9 11 -9 24 0 36 -56 89 -86 82 -28 -7 -48 20 -33 47 9 15 5
17 -23 17 -35 0 -45 -5 -66 -31 -19 -25 -6 -44 64 -99 57 -45 65 -56 83 -113
14 -48 20 -99 22 -207 3 -142 14 -215 41 -261 26 -45 69 -86 118 -113 50 -27
199 -75 233 -76 10 0 17 -6 15 -12 -7 -19 -135 -60 -205 -66 -63 -5 -153 12
-153 29 0 5 -9 9 -20 9 -12 0 -39 9 -61 19 -22 11 -54 23 -72 26 -18 4 -39 13
-47 20 -8 7 -31 16 -50 20 -19 4 -62 20 -95 35 -33 15 -85 30 -115 33 l-55 6
40 -15 c22 -8 45 -20 50 -27 6 -6 31 -23 58 -37 26 -13 47 -28 47 -32 0 -11
-28 -10 -34 1 -4 5 -25 12 -49 16 -23 4 -51 13 -63 20 -13 9 -42 12 -79 10
-48 -3 -63 -9 -86 -32 l-29 -28 63 3 c44 3 92 -4 158 -21 142 -37 181 -52 334
-126 77 -38 158 -72 180 -75 54 -9 212 17 263 43 9 5 52 26 96 47 92 45 206
149 206 187 0 8 3 17 8 21 16 16 27 122 19 175 -9 48 -4 92 19 186 4 15 19
371 26 615 0 8 4 33 8 55 5 22 11 60 14 85 4 25 10 62 15 83 5 20 6 37 3 37
-3 0 -1 5 6 12 7 7 12 22 12 34 0 39 66 184 83 184 6 0 8 3 5 6 -4 3 14 24 40
47 182 166 224 224 192 262 -14 17 -50 20 -50 4z m-294 -510 c-3 -22 -10 -58
-16 -80 -11 -39 -20 -106 -39 -279 -6 -47 -12 -182 -15 -300 -5 -229 -18 -319
-42 -299 -8 6 -14 18 -14 25 0 8 -4 22 -9 32 -85 166 -97 254 -60 441 6 34 16
64 20 67 5 3 9 17 9 32 0 15 9 44 19 65 17 34 34 83 30 89 -1 2 8 21 20 43 11
22 21 47 21 56 0 9 7 22 15 29 8 6 14 15 13 18 -2 9 43 102 49 102 3 0 2 -18
-1 -41z m-621 -1119 c25 -39 45 -73 45 -75 0 -3 -7 -5 -15 -5 -8 0 -15 3 -15
8 0 4 -12 21 -26 37 -27 31 -44 66 -44 91 0 24 8 16 55 -56z"/>
<path d="M6317 6773 c-12 -12 -7 -22 8 -17 8 4 15 10 15 15 0 11 -14 12 -23 2z"/>
<path d="M6285 6736 c-23 -7 -40 -18 -40 -26 0 -8 -12 -21 -28 -29 -19 -9 -24
-17 -18 -25 7 -8 4 -16 -10 -25 -12 -7 -18 -18 -15 -26 2 -7 -2 -19 -10 -26
-11 -9 -11 -15 -3 -25 9 -11 7 -15 -5 -20 -10 -4 -14 -13 -11 -24 3 -10 1 -21
-5 -25 -5 -3 -7 -17 -4 -31 4 -14 2 -24 -5 -24 -6 0 -11 -4 -11 -10 0 -5 7
-10 17 -10 14 0 14 -2 -2 -20 -16 -18 -16 -20 -1 -26 13 -5 14 -9 4 -21 -10
-12 -9 -17 6 -25 15 -8 16 -12 5 -19 -11 -8 -10 -12 6 -25 16 -12 17 -16 6
-23 -18 -12 -5 -31 22 -32 22 0 22 0 -1 -10 -26 -10 -25 -36 2 -31 9 2 16 -2
16 -8 0 -5 -7 -10 -16 -10 -30 0 1 -123 59 -232 35 -67 114 -166 137 -173 11
-4 20 -11 20 -16 0 -12 145 -105 225 -144 72 -35 150 -81 186 -109 14 -12 36
-28 49 -36 12 -8 28 -20 34 -26 6 -5 64 -50 129 -98 197 -148 318 -282 408
-456 19 -36 36 -67 39 -70 6 -6 98 -230 113 -275 5 -16 14 -38 18 -47 12 -25
13 -24 -23 -38 -18 -7 -43 -23 -56 -34 -46 -41 -143 -15 -291 78 -49 31 -63
34 -31 6 13 -11 29 -20 37 -20 7 0 13 -4 13 -8 0 -8 84 -53 123 -66 25 -8 21
-27 -5 -24 -13 2 -27 6 -33 10 -5 3 -29 9 -52 13 -24 4 -43 11 -43 15 0 7 -41
21 -75 25 -5 1 -23 7 -39 13 -29 13 -92 7 -102 -9 -3 -5 -9 -7 -14 -4 -5 3
-14 -3 -19 -14 -6 -10 -23 -22 -38 -26 -37 -9 -53 -23 -46 -40 3 -9 -5 -17
-22 -21 -20 -5 -25 -11 -21 -26 3 -14 -1 -22 -15 -25 -36 -10 -15 -106 25
-117 28 -7 51 8 82 59 44 69 78 76 234 46 30 -6 94 -14 141 -17 74 -6 94 -3
150 16 35 13 78 34 95 46 42 32 50 30 58 -13 8 -53 -3 -287 -14 -291 -5 -2 -6
-10 -3 -18 3 -8 -5 -35 -18 -62 -13 -26 -24 -52 -24 -57 -1 -14 -35 -47 -72
-68 -38 -21 -152 -32 -196 -18 -52 15 -154 24 -141 11 28 -28 293 -50 322 -27
7 5 15 7 18 4 11 -10 -16 -45 -45 -58 -16 -7 -27 -18 -25 -24 3 -7 -31 -17
-88 -26 -80 -14 -96 -14 -115 -2 -29 19 -133 19 -171 -1 -26 -13 -31 -23 -37
-68 -9 -65 -10 -146 -1 -155 3 -3 6 -16 6 -29 0 -12 5 -24 11 -26 9 -3 16 -25
18 -57 1 -11 6 -10 20 5 10 10 16 24 14 29 -2 6 6 21 18 34 11 12 18 25 15 28
-3 3 0 13 6 21 7 8 13 21 14 30 9 59 13 64 52 58 111 -18 187 -16 255 8 37 13
79 35 93 48 38 35 125 126 123 131 -2 5 26 63 42 87 9 14 17 28 18 33 1 13 23
91 31 112 12 28 20 64 25 105 3 19 7 53 10 75 8 60 8 204 0 250 -3 22 -8 51
-10 65 -9 64 -18 100 -42 170 -14 41 -29 79 -34 84 -5 6 -9 15 -9 22 0 6 -7
28 -15 48 -8 20 -15 39 -14 43 0 3 -6 10 -15 15 -9 5 -16 17 -16 27 0 10 -10
33 -23 52 -12 19 -31 50 -40 69 -24 48 -40 74 -52 82 -5 4 -7 10 -3 13 3 4 -2
16 -13 28 -41 47 -49 57 -49 65 0 4 -15 24 -33 44 -17 20 -45 54 -62 74 -34
43 -40 49 -121 124 -100 94 -170 150 -187 150 -10 0 -14 5 -11 15 4 9 0 15 -9
15 -9 0 -29 11 -45 25 -17 14 -35 25 -41 25 -7 0 -14 7 -17 15 -3 8 -16 17
-27 21 -12 4 -33 15 -46 25 -13 11 -32 19 -42 19 -11 0 -19 6 -19 14 0 8 -13
17 -30 21 -16 4 -30 10 -30 14 0 4 -16 15 -35 24 -19 9 -35 21 -35 26 0 5 -13
14 -30 20 -16 5 -30 15 -30 20 0 6 -11 13 -25 17 -14 3 -25 12 -25 19 0 8 -9
17 -20 20 -11 3 -20 13 -20 20 0 8 -11 17 -25 21 -14 3 -23 9 -20 13 2 4 -13
26 -35 49 -21 23 -41 49 -44 57 -3 8 -13 15 -21 15 -9 0 -14 4 -11 9 3 5 -8
27 -24 50 -17 22 -30 46 -30 51 0 6 -7 13 -16 17 -8 3 -13 11 -10 19 3 7 -1
18 -9 24 -8 6 -11 18 -8 26 3 8 1 20 -5 27 -12 15 -20 54 -27 126 -3 30 -8 57
-10 60 -3 2 -1 9 4 15 5 6 11 29 13 50 2 25 13 50 31 70 32 37 68 104 58 110
-3 2 -24 -2 -46 -8z m-44 -620 c-10 -11 -8 -16 9 -21 14 -5 19 -12 15 -25 -4
-12 1 -19 15 -23 13 -3 18 -10 14 -21 -4 -9 0 -18 9 -22 9 -3 13 -13 10 -25
-4 -14 0 -19 16 -19 23 0 27 -10 10 -27 -8 -8 -2 -13 21 -18 28 -6 30 -8 14
-20 -17 -12 -16 -13 4 -19 13 -4 22 -16 22 -27 0 -14 7 -19 25 -19 18 0 25 -5
25 -20 0 -13 7 -20 19 -20 11 0 26 -8 33 -18 7 -11 29 -22 50 -26 20 -3 39
-13 42 -21 3 -10 19 -15 46 -15 27 0 40 -4 40 -14 0 -8 12 -17 26 -20 28 -7
23 -21 -9 -28 -12 -2 7 -14 50 -32 156 -67 376 -243 536 -428 45 -52 131 -177
129 -188 0 -3 6 -13 15 -22 17 -19 67 -111 109 -198 14 -30 30 -63 35 -72 5
-10 9 -25 9 -33 0 -8 4 -15 8 -15 4 0 8 -9 9 -20 1 -10 8 -34 16 -52 21 -47
29 -86 18 -93 -10 -6 -26 33 -17 42 3 3 -2 12 -10 20 -8 9 -12 23 -9 34 4 13
2 19 -9 19 -9 0 -16 7 -16 15 0 18 -34 99 -72 174 -16 29 -28 59 -28 67 0 8
-4 14 -8 14 -5 0 -16 15 -25 33 -18 35 -39 69 -47 77 -3 3 -17 23 -33 46 -53
78 -196 215 -322 306 -5 4 -23 18 -40 31 -16 13 -52 39 -80 57 -27 19 -52 36
-55 39 -26 30 -101 78 -210 133 -96 49 -215 124 -261 165 -99 87 -209 292
-177 330 8 10 7 13 -6 13 -9 0 -16 5 -16 10 0 6 14 10 31 10 26 0 29 -2 20
-14z m596 -482 c-3 -3 -12 -4 -19 -1 -8 3 -5 6 6 6 11 1 17 -2 13 -5z"/>
<path d="M6565 6489 c-16 -10 -30 -24 -30 -31 0 -7 -7 -18 -15 -24 -11 -10
-12 -15 -2 -27 10 -12 10 -16 0 -19 -8 -3 -5 -14 11 -36 19 -27 25 -30 42 -21
11 5 17 14 15 18 -9 14 30 42 48 35 9 -3 16 -11 16 -16 0 -6 7 -8 15 -4 8 3
14 2 12 -3 -1 -4 25 -39 58 -76 33 -37 62 -72 63 -76 2 -5 10 -9 18 -9 9 0 12
-4 9 -10 -8 -14 45 -81 58 -73 6 3 7 1 3 -5 -4 -6 -14 -8 -24 -5 -10 4 1 -14
24 -43 22 -27 71 -94 108 -149 38 -55 72 -101 77 -103 5 -2 9 -11 9 -19 0 -8
17 -38 38 -66 20 -28 46 -65 57 -83 53 -86 114 -172 141 -199 17 -16 32 -34
35 -40 2 -5 10 -10 18 -12 7 -1 23 -11 35 -22 34 -32 138 -81 174 -81 35 0 62
12 101 48 14 12 29 22 33 22 5 0 8 7 8 15 0 22 31 18 37 -4 3 -11 13 -21 24
-24 13 -3 17 -11 13 -21 -3 -9 -1 -16 4 -16 13 0 44 -59 37 -71 -3 -4 -1 -10
5 -14 5 -3 7 -17 4 -31 -3 -13 -2 -24 4 -24 5 0 12 -9 15 -20 3 -11 12 -20 21
-20 19 0 21 -16 4 -24 -10 -3 -8 -8 4 -16 9 -6 15 -17 12 -25 -4 -8 1 -18 10
-21 9 -3 16 -14 16 -24 0 -11 5 -22 10 -25 6 -3 10 -15 10 -26 0 -10 5 -19 11
-19 5 0 7 -5 4 -10 -4 -6 -1 -17 5 -25 6 -8 9 -19 5 -25 -3 -5 -2 -10 2 -10 8
0 22 -27 48 -95 5 -11 9 -23 9 -27 1 -3 5 -10 9 -14 4 -5 17 -26 27 -49 11
-22 29 -53 39 -70 11 -16 20 -38 20 -47 1 -10 8 -18 17 -18 9 0 14 -5 12 -12
-2 -6 3 -19 11 -28 9 -9 23 -27 31 -40 8 -13 34 -43 58 -67 23 -24 42 -48 42
-54 0 -5 3 -9 8 -9 4 0 23 -15 42 -33 55 -51 99 -79 116 -73 18 7 10 25 -38
78 -18 20 -44 51 -58 68 -14 18 -30 37 -35 44 -18 19 -111 169 -134 214 -12
24 -20 49 -17 55 2 7 8 2 11 -10 7 -23 25 -32 25 -13 0 9 -16 27 -54 58 -9 7
-16 20 -15 30 0 14 2 14 9 -3 5 -11 9 -15 9 -9 1 15 -23 64 -31 64 -5 0 -8 6
-8 14 0 7 -7 26 -14 42 -8 15 -12 32 -9 37 3 6 1 7 -5 3 -8 -5 -12 0 -12 13 0
12 -4 21 -10 21 -5 0 -10 7 -10 15 0 8 -4 23 -9 33 -5 9 -13 28 -19 42 -6 14
-22 51 -36 84 -14 32 -26 60 -26 62 0 15 55 -15 96 -51 12 -11 160 -86 214
-108 19 -8 78 -29 130 -47 122 -43 209 -82 264 -119 24 -17 46 -27 50 -24 3 4
6 -1 6 -10 0 -9 4 -17 9 -17 16 0 62 -54 57 -67 -3 -7 -1 -13 4 -13 13 0 40
-59 33 -76 -3 -7 0 -14 6 -14 6 0 11 5 11 10 0 6 4 10 10 10 5 0 7 -7 4 -15
-3 -8 1 -28 9 -44 8 -17 13 -40 10 -51 -3 -13 0 -20 8 -20 11 0 11 -2 -1 -10
-20 -13 -6 -24 23 -16 23 5 24 9 21 74 -3 80 -29 190 -51 215 -9 9 -14 20 -11
22 5 6 -25 44 -87 110 -70 74 -206 144 -405 208 -19 6 -37 14 -40 17 -3 3 -32
18 -65 35 -79 38 -126 71 -117 80 4 5 2 6 -3 2 -6 -3 -30 9 -53 26 -22 18 -59
45 -82 61 -22 17 -40 33 -40 38 0 4 -5 8 -11 8 -7 0 -21 10 -33 23 -12 12 -44
40 -71 62 -107 87 -225 214 -274 296 -39 63 -89 174 -96 212 -4 20 -11 40 -16
42 -4 3 -6 11 -4 18 8 21 -29 149 -45 160 -16 9 -82 -4 -110 -23 -13 -8 -13
-11 -1 -19 11 -7 9 -10 -8 -16 -23 -7 -27 -20 -10 -31 8 -5 6 -10 -5 -16 -21
-12 -21 -28 0 -28 11 0 15 -6 11 -20 -3 -11 -1 -23 4 -26 6 -4 6 -11 -1 -19
-7 -9 -6 -16 5 -25 12 -10 13 -16 4 -26 -9 -11 -8 -15 4 -20 8 -3 13 -13 10
-24 -3 -12 2 -20 16 -25 11 -3 18 -12 15 -20 -3 -7 3 -16 15 -20 12 -3 21 -13
21 -21 0 -8 7 -17 15 -20 8 -4 15 -12 15 -20 0 -7 8 -18 18 -23 15 -9 15 -12
2 -21 -8 -5 -23 -10 -33 -10 -28 0 -9 -20 21 -21 24 -2 24 -2 5 -6 -26 -5 -31
-23 -8 -23 8 0 15 -4 15 -9 0 -5 10 -7 23 -4 16 4 19 2 8 -5 -12 -9 -12 -12 1
-26 9 -8 18 -12 22 -9 3 4 6 0 6 -8 0 -8 25 -41 55 -74 30 -33 55 -66 55 -74
0 -18 -40 -82 -48 -78 -64 30 -94 50 -132 87 -62 63 -110 117 -110 125 0 4
-20 33 -45 65 -25 32 -45 62 -45 65 0 4 -13 24 -28 44 -15 20 -34 49 -42 66
-8 16 -34 58 -57 92 -24 35 -40 63 -35 63 4 0 0 6 -8 13 -17 14 -36 42 -50 75
-5 12 -14 22 -20 22 -6 0 -9 4 -5 10 3 5 -4 20 -15 32 -12 13 -27 30 -35 39
-8 9 -15 19 -15 23 0 15 -64 90 -136 161 -102 100 -122 115 -154 115 -16 0
-34 2 -42 4 -7 3 -26 -4 -43 -15z m1765 -1405 c0 -2 -9 -4 -20 -4 -11 0 -20 4
-20 9 0 5 9 7 20 4 11 -3 20 -7 20 -9z m86 -35 c6 -10 -26 -12 -50 -3 -9 3
-16 9 -16 13 0 10 59 1 66 -10z m204 -76 c14 -7 31 -13 38 -13 6 0 12 -4 12
-10 0 -15 -47 -12 -53 4 -3 7 -22 17 -43 21 -26 4 -33 9 -24 15 14 8 28 5 70
-17z m109 -59 c2 -2 2 -7 -2 -10 -8 -9 -47 6 -47 17 0 9 37 3 49 -7z m91 -74
c0 -5 -4 -10 -10 -10 -5 0 -10 5 -10 10 0 6 5 10 10 10 6 0 10 -4 10 -10z"/>
<path d="M8867 6381 c-4 -17 -3 -21 5 -13 5 5 8 16 6 23 -3 8 -7 3 -11 -10z"/>
<path d="M5580 6086 c0 -2 7 -9 15 -16 12 -10 15 -10 15 4 0 9 -7 16 -15 16
-8 0 -15 -2 -15 -4z"/>
<path d="M5600 6041 c0 -5 5 -13 10 -16 6 -3 10 -2 10 4 0 5 -4 13 -10 16 -5
3 -10 2 -10 -4z"/>
<path d="M5625 5990 c3 -5 11 -10 16 -10 6 0 7 5 4 10 -3 6 -11 10 -16 10 -6
0 -7 -4 -4 -10z"/>
<path d="M5990 5839 c0 -5 5 -7 10 -4 6 3 10 8 10 11 0 2 -4 4 -10 4 -5 0 -10
-5 -10 -11z"/>
<path d="M5434 5725 c-15 -11 -16 -14 -3 -15 8 0 24 7 35 15 15 11 16 14 3 15
-8 0 -24 -7 -35 -15z"/>
<path d="M5378 5683 c-16 -8 -28 -19 -28 -26 0 -7 -18 -21 -40 -31 -22 -11
-40 -25 -40 -32 0 -7 -10 -16 -22 -20 -13 -4 -36 -20 -52 -35 -17 -16 -38 -29
-47 -29 -10 0 -20 -9 -24 -19 -3 -10 -17 -22 -31 -25 -14 -4 -36 -18 -50 -31
-13 -13 -32 -26 -43 -30 -11 -3 -32 -16 -47 -28 -44 -34 -212 -87 -241 -76
-14 5 -28 9 -33 9 -12 0 1 -42 24 -72 19 -27 23 -28 116 -28 71 0 114 6 161
21 35 12 66 25 69 29 3 4 32 21 65 38 112 56 200 104 215 116 8 7 30 18 48 26
17 7 32 16 32 21 0 5 5 9 11 9 6 0 31 15 57 32 26 18 63 41 82 52 19 10 37 21
40 25 3 3 30 18 60 33 30 15 50 27 44 28 -14 0 -88 -34 -129 -60 -26 -16 -56
-33 -130 -74 -11 -6 -32 -23 -47 -39 -15 -15 -36 -27 -48 -27 -11 0 -20 2 -20
3 0 15 35 70 47 74 11 4 11 8 3 13 -9 6 -9 13 -1 29 7 12 10 25 7 30 -3 5 1
14 9 21 8 7 15 21 15 31 0 10 5 21 10 24 14 9 12 35 -2 34 -7 -1 -25 -8 -40
-16z"/>
<path d="M8325 5640 c3 -5 8 -10 11 -10 2 0 4 5 4 10 0 6 -5 10 -11 10 -5 0
-7 -4 -4 -10z"/>
<path d="M5930 5526 c-12 -28 -34 -67 -48 -88 -14 -22 -26 -47 -27 -57 0 -10
-20 -37 -43 -60 -23 -24 -42 -47 -42 -51 0 -5 -10 -18 -22 -30 -12 -11 -19
-23 -15 -26 4 -4 -2 -13 -13 -21 -11 -8 -20 -22 -20 -32 0 -11 -6 -21 -14 -24
-12 -5 -31 -61 -27 -81 1 -5 -3 -12 -9 -16 -24 -15 -33 -187 -15 -280 27 -136
38 -177 65 -235 54 -117 70 -155 70 -164 0 -5 7 -14 15 -21 8 -6 14 -15 13
-18 -1 -4 7 -25 17 -47 36 -76 29 -446 -10 -563 -19 -59 -96 -179 -117 -185
-35 -10 -51 -103 -23 -127 8 -7 12 -16 9 -21 -3 -5 -1 -9 4 -9 5 0 33 -22 63
-50 29 -27 84 -65 121 -84 36 -19 65 -36 63 -38 -2 -2 14 -5 36 -5 23 -1 46
-6 52 -11 30 -22 285 4 420 43 26 8 51 15 55 16 36 9 222 98 239 114 7 8 31
24 53 36 22 13 40 28 40 34 0 7 9 20 20 30 11 10 20 24 20 32 0 7 5 13 10 13
6 0 10 7 10 15 0 9 -9 15 -25 15 -20 0 -25 5 -25 25 0 14 -4 25 -8 25 -4 0 -8
10 -9 22 -1 11 -6 24 -12 27 -5 4 -12 18 -14 31 -2 14 -7 34 -11 45 -26 67
-35 96 -46 145 -35 154 -71 252 -146 402 -19 36 -34 75 -34 85 0 11 -5 24 -10
29 -12 12 -12 11 -40 144 -24 111 -35 182 -33 228 1 17 -2 32 -6 32 -8 0 -7
85 4 241 3 47 17 137 30 200 14 63 28 125 30 139 9 41 7 63 -7 71 -21 14 -28
11 -37 -15 -5 -13 -17 -26 -26 -30 -9 -3 -14 -10 -11 -15 4 -5 -1 -16 -9 -24
-8 -9 -15 -22 -15 -29 0 -7 -7 -22 -15 -32 -8 -10 -12 -23 -8 -29 3 -5 0 -13
-8 -17 -7 -5 -14 -17 -15 -27 -6 -42 -29 -118 -36 -124 -5 -3 -10 -28 -12 -55
-3 -27 -5 -49 -6 -49 -2 0 -4 -11 -13 -98 -2 -21 -6 -39 -8 -41 -2 -3 -1 -46
3 -98 3 -51 7 -112 7 -135 1 -34 5 -43 19 -43 14 0 14 -2 3 -9 -9 -6 -11 -15
-6 -27 5 -11 9 -23 10 -29 0 -5 4 -16 8 -22 5 -7 5 -17 2 -23 -3 -5 -3 -16 2
-22 4 -7 9 -31 10 -52 2 -22 7 -44 13 -50 6 -6 5 -16 -1 -28 -8 -14 -6 -18 6
-18 11 0 15 -6 10 -19 -3 -10 1 -24 10 -31 14 -11 13 -14 -2 -25 -15 -11 -15
-13 6 -20 16 -5 21 -12 18 -26 -3 -11 1 -23 10 -28 11 -6 12 -10 4 -15 -16
-10 -13 -26 5 -26 12 0 15 -6 10 -24 -4 -15 -1 -26 7 -29 9 -4 8 -8 -3 -16
-12 -8 -12 -12 2 -28 9 -10 18 -30 20 -44 2 -15 9 -33 15 -40 6 -8 14 -29 18
-47 3 -18 11 -30 16 -26 5 3 9 -8 9 -25 0 -16 4 -31 9 -33 12 -5 96 -181 93
-195 -2 -7 2 -13 8 -13 5 0 10 -11 10 -24 0 -14 5 -28 10 -31 6 -3 10 -17 10
-31 0 -13 5 -24 10 -24 29 0 -5 -47 -40 -56 -3 0 -12 -3 -20 -7 -26 -10 -372
-40 -470 -41 -80 0 -107 4 -171 28 -42 15 -93 38 -114 50 l-38 23 32 24 c17
13 40 38 51 56 11 18 26 33 35 33 9 0 13 5 10 10 -4 6 5 30 19 55 28 47 36 79
14 57 -14 -14 -48 -16 -48 -2 0 5 12 12 28 16 47 10 52 13 52 28 0 13 -4 14
-25 4 -14 -6 -28 -8 -32 -5 -11 11 30 37 50 31 11 -3 17 0 17 9 0 8 -8 14 -17
13 -26 -2 -22 28 4 32 12 2 24 10 27 18 4 11 2 12 -14 4 -38 -20 -33 16 5 38
17 10 18 11 3 12 -20 0 -24 25 -8 35 8 5 7 12 -2 23 -10 12 -10 16 0 19 14 5
17 33 2 33 -5 0 -7 7 -4 15 4 8 11 12 17 8 7 -4 8 8 3 38 -4 24 -9 64 -12 89
-3 25 -10 49 -15 55 -5 5 -9 16 -9 25 0 8 -18 51 -40 95 -22 44 -40 84 -40 88
0 5 -7 15 -15 23 -8 8 -12 21 -9 29 4 8 2 15 -3 15 -25 0 -92 182 -113 308
-12 74 -7 231 8 241 4 3 14 25 21 48 8 23 22 51 33 62 10 11 18 25 18 30 0 5
16 30 35 55 19 26 35 49 35 52 0 3 11 20 24 37 33 45 56 96 56 125 0 23 -3 24
-35 19 -20 -3 -44 -16 -55 -29 -32 -40 -32 -13 0 58 17 37 29 73 27 78 -2 6
-14 -11 -27 -38z m687 -1428 c-3 -8 -6 -5 -6 6 -1 11 2 17 5 13 3 -3 4 -12 1
-19z m-721 -31 c13 -101 16 -189 7 -184 -6 4 -10 -14 -10 -48 0 -30 -5 -61
-12 -69 -6 -8 -10 -18 -9 -22 2 -5 -1 -9 -7 -9 -5 0 -9 7 -8 15 1 8 5 38 8 65
7 46 11 117 14 239 1 49 12 57 17 13z m742 -18 c-3 -8 -7 -3 -11 10 -4 17 -3
21 5 13 5 -5 8 -16 6 -23z m12 -35 c0 -8 -4 -12 -10 -9 -5 3 -10 10 -10 16 0
5 5 9 10 9 6 0 10 -7 10 -16z m-619 -680 c34 -14 62 -16 167 -10 70 3 143 9
162 12 23 4 32 3 25 -3 -12 -12 -161 -33 -230 -33 -44 0 -73 5 -162 25 -13 3
-23 10 -23 15 0 14 13 12 61 -6z"/>
<path d="M8613 5483 c15 -2 37 -2 50 0 12 2 0 4 -28 4 -27 0 -38 -2 -22 -4z"/>
<path d="M7437 5289 c7 -7 15 -10 18 -7 3 3 -2 9 -12 12 -14 6 -15 5 -6 -5z"/>
<path d="M4450 5242 c-33 -15 -2 -95 42 -107 48 -13 71 -31 115 -90 37 -49
143 -248 143 -268 0 -15 97 -146 129 -176 64 -59 118 -101 129 -101 6 0 17 -6
24 -13 20 -20 108 -64 164 -81 60 -19 192 -36 287 -36 64 0 67 1 67 24 0 17
-7 27 -22 31 -13 3 -39 10 -58 15 -79 20 -178 53 -220 73 -70 33 -215 154
-284 237 -7 8 -26 43 -42 77 -16 34 -33 62 -38 63 -4 0 -5 -7 -2 -16 4 -11 -2
-10 -24 6 -17 12 -30 28 -30 36 0 8 -4 14 -9 14 -5 0 -21 34 -36 75 -16 42
-32 78 -36 81 -4 2 -6 11 -3 18 3 7 -2 16 -10 19 -9 4 -16 12 -16 19 0 8 -9
21 -20 31 -12 10 -19 21 -16 26 3 4 0 8 -7 9 -7 0 -31 8 -55 16 -45 17 -84 13
-103 -10 -9 -11 -9 -17 0 -28 19 -23 -6 -29 -34 -9 -26 19 -32 38 -15 48 12 7
14 25 3 24 -5 0 -15 -3 -23 -7z m145 -73 c11 -17 2 -18 -25 -4 -24 14 -24 14
-3 15 12 0 25 -5 28 -11z m25 -72 c0 -5 -7 -4 -15 3 -8 7 -15 20 -15 29 1 13
3 13 15 -3 8 -11 15 -24 15 -29z"/>
<path d="M4820 5033 c0 -12 5 -25 10 -28 13 -8 13 15 0 35 -8 12 -10 11 -10
-7z"/>
<path d="M4843 4972 c10 -10 17 -24 17 -30 0 -7 4 -12 10 -12 10 0 3 27 -13
48 -5 6 -14 12 -20 12 -5 0 -3 -8 6 -18z"/>
<path d="M2933 4940 c-3 -11 -9 -20 -13 -20 -4 0 -15 -19 -24 -43 -28 -74 -17
-98 25 -56 19 19 19 22 5 38 -15 16 -15 19 -1 31 8 7 15 18 15 26 0 7 7 20 16
28 14 15 14 16 -1 16 -9 0 -19 -9 -22 -20z"/>
<path d="M8262 4585 c11 -20 23 -34 25 -31 5 5 -35 66 -42 66 -3 0 5 -16 17
-35z"/>
<path d="M8306 4515 c4 -8 11 -15 16 -15 6 0 5 6 -2 15 -7 8 -14 15 -16 15 -2
0 -1 -7 2 -15z"/>
<path d="M8320 4470 c0 -5 7 -10 16 -10 8 0 12 5 9 10 -3 6 -10 10 -16 10 -5
0 -9 -4 -9 -10z"/>
<path d="M8361 4433 c7 -12 15 -20 18 -17 3 2 -3 12 -13 22 -17 16 -18 16 -5
-5z"/>
<path d="M5018 4333 c-34 -5 -36 -20 -4 -33 13 -5 27 -14 31 -21 6 -9 -2 -10
-31 -3 -146 31 -342 -37 -485 -168 -17 -16 -34 -28 -38 -28 -13 0 -70 -31 -76
-41 -11 -16 -21 -10 -23 14 -1 18 7 28 34 41 20 9 34 19 31 22 -10 11 -66 -7
-104 -33 -21 -14 -60 -32 -88 -39 -62 -17 -165 -18 -165 -3 0 6 -6 9 -13 6
-11 -4 -41 0 -116 17 -8 1 -17 8 -19 14 -2 7 -12 12 -23 12 -10 0 -28 9 -40
21 -23 23 -83 35 -124 25 -22 -6 -26 -12 -24 -34 2 -15 0 -33 -4 -40 -6 -8 -2
-12 11 -12 11 0 25 -7 32 -15 16 -19 103 -61 143 -69 85 -18 83 -17 65 -27
-19 -10 -99 6 -133 27 -12 7 -28 9 -40 4 -16 -7 -16 -9 -4 -9 10 -1 36 -12 59
-25 24 -13 49 -22 56 -19 7 2 23 -2 36 -10 37 -24 244 -43 298 -28 25 7 53 13
63 12 9 0 17 4 17 8 0 9 134 67 175 75 41 9 283 85 320 102 17 7 64 25 105 40
106 37 203 75 215 83 32 23 110 36 218 36 128 0 141 7 92 53 -13 13 -22 29
-19 35 3 9 -45 12 -198 13 -112 1 -215 0 -230 -3z m77 -131 c-6 -5 -50 -24
-100 -42 -49 -18 -103 -39 -120 -45 -99 -41 -328 -107 -319 -94 3 5 12 9 20 9
8 0 14 5 14 10 0 6 7 10 15 10 8 0 15 4 15 9 0 5 10 13 23 17 12 4 45 18 72
31 103 50 419 129 380 95z m-725 -172 c0 -5 -5 -10 -11 -10 -5 0 -7 5 -4 10 3
6 8 10 11 10 2 0 4 -4 4 -10z m-200 -100 c0 -6 -29 -10 -66 -10 -41 0 -63 4
-59 10 3 6 33 10 66 10 33 0 59 -4 59 -10z"/>
<path d="M6830 4316 c0 -9 5 -16 10 -16 6 0 10 4 10 9 0 6 -4 13 -10 16 -5 3
-10 -1 -10 -9z"/>
<path d="M4480 4160 c0 -5 -8 -10 -17 -11 -10 0 -13 -3 -7 -5 7 -3 27 2 45 10
34 14 34 14 7 15 -16 1 -28 -3 -28 -9z"/>
<path d="M3690 4103 c-6 -31 -6 -39 3 -50 5 -7 14 -13 19 -13 7 0 7 4 0 13 -5
6 -12 23 -15 37 -2 14 -5 19 -7 13z"/>
<path d="M3725 4010 c11 -5 29 -9 40 -9 l20 0 -20 9 c-11 5 -29 9 -40 9 l-20
0 20 -9z"/>
<path d="M7095 3820 c3 -5 18 -10 33 -9 24 0 25 1 7 9 -28 12 -47 12 -40 0z"/>
</g>
</svg>
